<svg width="72" height="72" viewBox="0 0 72 72" fill="none" xmlns="http://www.w3.org/2000/svg">
<g clip-path="url(#clip0_5669_42843)">
<path d="M13.955 3.44789L21.2013 1.00028L19.756 6.55537L13.955 3.44789Z" fill="#47FF9E"/>
<path d="M3.7599 8.96726L10.3339 3.01253L11.7014 10.7084L3.7599 8.96726Z" fill="#47FF9E"/>
<path d="M-0.0897214 19.5813L1.72556 12.1775L6.04085 17.6774L-0.0897214 19.5813Z" fill="#47FF9E"/>
<path d="M63.3461 15.9115C62.2253 14.8595 60.6247 14.5042 58.5839 14.8569C56.5834 15.2007 54.9077 16.444 53.5982 18.5379C51.7864 21.418 50.9167 25.6552 50.7285 29.4914C46.1006 24.0289 37.1826 13.8936 34.6277 11.1906C31.7431 8.11808 29.6392 6.80829 27.6088 6.79109C26.3388 6.7753 25.1735 7.30269 24.1434 8.35409C22.0831 10.4669 22.0389 12.7465 22.74 14.8471C22.3394 14.5057 21.9483 14.1846 21.5566 13.8834C17.7165 10.9941 14.5548 12.0754 13.0033 13.8824C11.5031 15.6409 11.0627 18.4896 12.2356 21.2437C11.5604 21.0647 10.902 20.9961 10.2598 21.068C8.66476 21.2231 7.25911 22.1139 6.06364 23.7109C3.83857 26.6994 6.12888 30.6254 7.83733 32.8344C7.30613 32.8695 6.78295 32.9748 6.2878 33.1509C4.43768 33.8391 3.2722 35.4369 3.02973 37.6509C2.78726 39.865 4.15923 41.9444 5.22076 43.3249C6.57175 45.0836 9.10662 47.7861 11.3406 50.16C12.7389 51.66 14.0698 53.068 14.9418 54.073L15.7267 54.9755C20.6775 60.6972 23.6613 64.1526 30.7545 68.044C38.5764 72.3461 49.0729 70.491 56.7402 63.5943C57.0993 63.2743 57.4488 62.944 57.7885 62.6034C69.3165 51.1236 65.5768 37.5729 65.1467 36.1502C64.561 32.7924 64.3849 29.4561 64.6056 26.241C64.6388 25.7718 64.694 25.2331 64.7601 24.6648C65.0848 21.6627 65.5003 17.923 63.3658 15.922L63.3461 15.9115ZM61.9379 24.3451C61.8711 24.9435 61.805 25.5119 61.7704 26.0311C61.5224 29.5055 61.7312 33.1028 62.3597 36.7119C62.368 36.7722 62.3861 36.8427 62.4144 36.9036C62.5794 37.4384 66.4375 49.9821 55.774 60.6059C48.9192 67.4255 39.1776 69.4719 32.0945 65.5808C26.9226 62.734 22.4209 58.8256 18.76 54.1906C15.2437 49.7498 10.9332 46.1569 7.44004 41.6067C6.26278 40.073 5.7171 38.8471 5.82214 37.9597C5.94422 36.8227 6.43488 36.0962 7.26385 35.7895C10.2154 34.7122 12.0611 37.3752 13.7928 39.1147C14.3668 39.6911 14.9116 40.2367 15.4659 40.8025C16.6619 42.0267 17.8076 43.2595 19.2445 44.8105C19.2445 44.8105 19.6036 45.2008 19.6136 45.2011C19.7882 45.3961 19.9528 45.5908 20.1373 45.7861C20.6511 46.3708 21.5502 46.4161 22.1349 45.9024C22.7096 45.3884 22.7546 44.4993 22.2409 43.9146C20.4469 41.9033 18.9797 40.3613 17.5892 38.9416C16.996 38.3346 16.4026 37.7377 15.7603 37.0993C15.7118 37.0479 15.6632 36.9966 15.6143 36.9552C14.2815 35.6171 12.9101 34.2279 11.1901 32.4287C9.36351 30.5065 7.08995 27.0511 8.32709 25.3953C9.03415 24.4448 9.75851 23.945 10.541 23.867C11.6245 23.7575 12.9862 24.4262 14.5864 25.8618C18.2845 29.1773 22.0687 32.9854 26.5134 37.8526C27.0374 38.4275 27.9165 38.4723 28.5015 37.9486C29.0764 37.4246 29.1115 36.5352 28.5875 35.9602L28.5195 35.8883C28.4715 35.8169 28.4238 35.7355 28.3555 35.6736C26.7646 33.9081 25.1751 32.0926 23.6242 30.3282C20.8521 27.1688 18.2449 24.1942 16.3558 22.3603C14.0287 20.0938 13.9116 17.1493 15.1323 15.7232C16.1562 14.5315 17.9124 14.6911 19.8522 16.1463C23.7415 19.067 28.4493 24.8919 31.5723 28.7315C32.7133 30.1342 33.6122 31.2499 34.1853 31.8563C34.7099 32.4113 35.5893 32.4461 36.1537 31.9418L36.1743 31.9224C36.7395 31.3881 36.7646 30.4984 36.2303 29.9332L36.1138 29.8098C36.1138 29.8098 36.0757 29.7387 36.0569 29.6982C34.34 27.0788 32.4615 24.5148 30.6501 22.0528C29.7063 20.7557 28.7233 19.4275 27.7903 18.1007C25.5194 14.9054 24.0671 12.4836 26.1585 10.3316C26.7869 9.68908 27.2692 9.61264 27.5794 9.61138C28.7095 9.62322 30.397 10.8012 32.5824 13.1237C34.185 14.8295 35.7456 16.6042 37.2965 18.3686C39.5557 20.9133 41.7947 23.4673 44.0331 26.0414C45.8451 28.1233 47.6572 30.2052 49.4282 32.3259C49.5056 32.4181 49.5927 32.5206 49.6702 32.6128C50.2896 33.3506 50.7886 34.1049 51.7965 34.1934C51.8565 34.195 51.9264 34.197 51.9964 34.199C52.1064 34.2021 52.23 34.0755 52.3608 34.0492C52.7026 33.9888 53.1016 33.3198 53.3094 33.0455C53.6314 32.6244 53.5236 32.1912 53.5082 31.6706C53.4932 31.1399 53.4981 30.6099 53.523 30.0804C53.5549 28.9508 53.6567 27.8232 53.8182 26.7073C54.1289 24.5552 54.6613 22.3494 55.7353 20.4489C55.8092 20.3109 55.8931 20.1732 55.977 20.0355C56.8464 18.6495 57.8794 17.8482 59.0557 17.6413C60.1714 17.4526 60.9686 17.5651 61.4071 17.9777C62.5182 19.0194 62.1576 22.2305 61.9374 24.3651L61.9379 24.3451Z" fill="#715924"/>
<path d="M61.4467 17.9985C62.5578 19.0402 62.1972 22.2513 61.977 24.3859C61.9101 24.9843 61.844 25.5527 61.8094 26.0719C61.5614 29.5463 61.7702 33.1436 62.3987 36.7527C62.417 36.8133 62.4251 36.8835 62.4534 36.9443C62.6184 37.4792 66.4765 50.0229 55.813 60.6467C48.9582 67.4663 39.2167 69.5127 32.1335 65.6216C26.9616 62.7748 22.4599 58.8664 18.799 54.2314C15.2827 49.7906 10.9722 46.1977 7.47905 41.6475C6.30179 40.1138 5.75611 38.8879 5.86115 38.0005C5.98323 36.8635 6.47389 36.137 7.30286 35.8303C10.2544 34.753 12.1001 37.416 13.8318 39.1555C14.4058 39.7319 14.9506 40.2775 15.5049 40.8433C16.7009 42.0675 17.8463 43.3102 19.2835 44.8513C19.2835 44.8513 19.6426 45.2416 19.6526 45.2419C19.8272 45.4369 19.9918 45.6316 20.1763 45.8269C20.6901 46.4116 21.5892 46.4569 22.1739 45.9432C22.7486 45.4292 22.7936 44.5401 22.2799 43.9554C20.4859 41.9441 19.0187 40.4021 17.6282 38.9824C17.035 38.3754 16.4416 37.7785 15.7993 37.1401C15.7508 37.0887 15.7022 37.0374 15.6533 36.996C14.3205 35.6579 12.9491 34.2687 11.2291 32.4695C9.40252 30.5473 7.12896 27.0919 8.36609 25.4361C9.07315 24.4856 9.79752 23.9858 10.58 23.9078C11.6635 23.7983 13.0252 24.4669 14.6254 25.9026C18.3235 29.2181 22.1077 33.0262 26.5524 37.8934C27.0764 38.4683 27.9555 38.5131 28.5405 37.9894C29.1155 37.4654 29.1505 36.576 28.6265 36.001L28.5585 35.9291C28.5105 35.8577 28.4628 35.7763 28.3945 35.7144C26.8036 33.9489 25.2141 32.1334 23.6632 30.369C20.8911 27.2096 18.2839 24.235 16.3948 22.4011C14.0677 20.1346 13.9506 17.1901 15.1713 15.764C16.1952 14.5723 17.9514 14.7319 19.8912 16.1871C23.7805 19.1078 28.4883 24.9327 31.6113 28.7722C32.7523 30.1749 33.6512 31.2907 34.2143 31.8968C34.7389 32.4518 35.6183 32.4866 36.1827 31.9823L36.2033 31.9629C36.7686 31.4286 36.7936 30.5389 36.2593 29.9737L36.1428 29.8503C36.1428 29.8503 36.1048 29.7792 36.0859 29.7387C34.369 27.1193 32.4905 24.5553 30.6791 22.0933C29.7353 20.7962 28.7523 19.468 27.8193 18.1412C25.5484 14.946 24.0961 12.5241 26.1875 10.3722C26.8159 9.7296 27.2982 9.65316 27.6084 9.65189C28.7385 9.66373 30.426 10.8417 32.6114 13.1642C34.214 14.8701 35.7746 16.6447 37.3255 18.4091C39.5848 20.9538 41.8237 23.5079 44.0621 26.0819C45.8741 28.1638 47.6862 30.2457 49.4572 32.3664C45.5274 34.7867 43.0066 37.9769 41.9371 41.8483C40.042 48.7477 43.4902 55.2474 43.6328 55.5115C44.0038 56.1922 44.8162 56.4752 45.466 56.1334C45.4966 56.1143 45.5371 56.0954 45.5677 56.0763C46.1382 55.7122 46.3201 54.937 45.9683 54.2868C45.94 54.226 42.9301 48.4989 44.5338 42.7118C45.5023 39.2277 47.9536 36.3756 51.8258 34.2239C51.8858 34.2256 51.9557 34.2275 52.0257 34.2295C52.1357 34.2326 52.2593 34.106 52.3901 34.0797C52.7319 34.0193 53.1309 33.3503 53.3387 33.076C53.6607 32.6549 53.5529 32.2217 53.5375 31.7011C53.5225 31.1705 53.5274 30.6404 53.5523 30.1109C53.5842 28.9813 53.686 27.8538 53.8475 26.7379C54.1582 24.5858 54.6906 22.3799 55.7645 20.4794C55.8385 20.3414 55.9224 20.2037 56.0063 20.066C56.8757 18.68 57.9087 17.8788 59.085 17.6718C60.2007 17.4832 60.9979 17.5957 61.4364 18.0082L61.4467 17.9985Z" fill="#F19200"/>
<path d="M53.0604 31.9477C53.4211 32.6381 53.1878 33.4619 52.5385 33.7837C52.2849 33.9066 52.0411 34.0398 51.7972 34.173C47.9251 36.3248 45.4738 39.1768 44.5052 42.6609C42.9016 48.4481 45.9114 54.1751 45.9397 54.2359C46.2916 54.8861 46.0996 55.661 45.5392 56.0254C45.5086 56.0445 45.4781 56.0637 45.4375 56.0825C44.7976 56.4246 43.9753 56.1414 43.6043 55.4606C43.462 55.1865 40.0137 48.6868 41.9085 41.7974C42.978 37.926 45.4989 34.7358 49.4286 32.3155C49.9988 31.9614 50.5985 31.6282 51.2278 31.3058C51.8774 30.974 52.6995 31.2673 53.0602 31.9577L53.0604 31.9477Z" fill="#715924"/>
<path d="M55.8946 25.4215L56.0946 25.3415C56.6946 22.3415 59.4446 17.5615 63.2946 18.7715C68.1146 20.3015 66.9346 24.8215 66.2046 28.1515C65.2346 32.6315 69.2946 55.8215 56.3646 64.5715C51.0946 68.1515 44.6046 69.9315 38.4946 68.2215C32.9846 66.6815 28.1046 63.0415 25.4246 58.0315C24.5946 56.4715 23.7846 54.9115 22.9846 53.3415C20.5746 48.6315 12.7546 35.0915 11.7346 32.7315C10.9046 30.8015 10.1246 28.3815 10.7446 26.2915C11.2846 24.4615 13.4346 23.4615 15.2646 23.5015C17.4946 23.5515 18.9546 25.2815 20.1546 26.9115C20.7246 27.6715 21.2846 28.4915 21.9246 29.2815L26.8846 36.8515C25.3046 34.3915 23.6546 31.4515 21.9246 29.2815C20.4846 26.3215 14.4046 16.3715 21.5546 13.6115C25.3346 12.1615 27.9546 16.6115 29.9446 19.6115C31.9346 23.0815 34.1246 26.4815 36.1646 29.8915C34.2246 26.5015 33.1146 24.0415 30.5546 20.4815C30.3546 20.2115 30.1646 19.9215 29.9546 19.6115C29.0046 17.9615 28.1046 16.2915 27.2746 14.6015C25.8446 11.6515 25.5246 6.91154 28.8246 5.09154C32.9546 2.82154 36.6946 7.79154 38.7946 11.3415L38.8446 11.3115C38.2246 8.15154 39.2246 5.33154 42.2946 4.95154C46.7446 4.40154 48.3946 9.70154 50.0046 12.8415C51.3846 15.5115 53.8546 20.6015 55.9046 25.4315L55.8946 25.4215Z" fill="url(#paint0_radial_5669_42843)"/>
<path d="M67.5646 33.4515C67.5246 31.2215 67.4946 29.2915 67.6746 28.4715L67.7446 28.1315C68.4746 24.8015 69.7146 19.2315 63.7446 17.3315C62.2146 16.8515 60.6646 17.0415 59.2446 17.8715C57.8346 18.7015 56.7046 20.1315 55.8846 21.6415C54.2146 17.9115 52.4746 14.3515 51.3246 12.1215C51.0846 11.6615 50.8546 11.1615 50.6046 10.6315C49.1546 7.5215 46.9446 2.8415 42.0946 3.4415C40.4946 3.6415 39.1846 4.3815 38.3146 5.5915C38.0146 6.0115 37.7746 6.4815 37.5946 6.9815C33.6946 2.2915 30.3546 2.5215 28.0846 3.7715C25.0946 5.4215 24.2946 8.8815 24.9046 12.1615C23.7446 11.7115 22.4546 11.6515 21.0046 12.2015C19.0646 12.9515 17.7446 14.2115 17.0846 15.9515C16.3446 17.9115 16.5946 20.1915 17.2346 22.3915C16.6446 22.1615 15.9946 22.0115 15.2746 22.0015C12.8746 21.9515 10.0546 23.2715 9.2846 25.8715C8.4946 28.5315 9.5146 31.4015 10.3346 33.3315C10.9146 34.6715 13.4046 39.1415 16.0446 43.8715C18.2446 47.8115 20.5146 51.8815 21.6246 54.0315C22.4346 55.6115 23.2546 57.1815 24.0846 58.7515C26.8846 63.9915 31.9846 67.9715 38.0746 69.6815C39.2746 70.0215 40.5146 70.2315 41.7846 70.3215C46.8646 70.7015 52.3046 69.1415 57.1946 65.8215C67.9546 58.5415 67.6946 42.2215 67.5546 33.4615L67.5646 33.4515ZM55.5246 63.3315C50.1546 66.9715 44.0846 68.2315 38.9046 66.7815C33.5946 65.2915 29.1646 61.8515 26.7546 57.3315C25.9346 55.7815 25.1246 54.2215 24.3246 52.6515C23.1946 50.4515 20.9146 46.3515 18.6946 42.3915C16.2046 37.9315 13.6346 33.3315 13.1146 32.1315C12.1046 29.7815 11.7946 28.0015 12.1846 26.7015C12.5046 25.6115 14.0146 24.9615 15.2346 24.9915C16.6546 25.0215 17.6946 26.0815 18.9546 27.8015L19.4646 28.5015C19.8546 29.0415 20.2646 29.6015 20.6946 30.1415L25.6246 37.6515C25.8546 38.0115 26.0746 38.3715 26.3046 38.7115C26.7646 39.4015 27.7046 39.5815 28.3846 39.1215C29.0746 38.6615 29.2546 37.7315 28.7946 37.0415C28.5846 36.7215 28.3646 36.3915 28.1546 36.0515C27.7146 35.3715 27.2746 34.6515 26.8246 33.9315C25.6746 32.0615 24.4746 30.1315 23.2046 28.5115C23.0746 28.2415 22.9046 27.9215 22.7246 27.5715C21.4446 25.1115 18.7846 19.9915 19.9046 17.0315C20.2546 16.1215 20.9646 15.4615 22.0946 15.0215C24.3346 14.1615 26.1646 16.6015 28.3146 19.8815L28.6346 20.3615C29.8546 22.4815 31.1546 24.6015 32.4146 26.6515C33.2346 27.9915 34.0546 29.3215 34.8346 30.6315C34.8346 30.6315 34.8346 30.6315 34.8346 30.6415C35.1146 31.1315 35.4046 31.6515 35.7346 32.1815C35.9946 32.6115 36.4446 32.8615 36.9046 32.9015C37.2046 32.9215 37.5146 32.8515 37.7946 32.6915C38.5046 32.2615 38.7246 31.3415 38.2946 30.6315C37.9946 30.1315 37.7146 29.6515 37.4346 29.1615C36.9146 28.2515 36.4546 27.4215 36.0146 26.6115C34.8046 24.3915 33.6546 22.3015 31.7246 19.6015C31.6046 19.4415 31.4946 19.2715 31.3746 19.1015L31.1746 18.8015C30.2146 17.1415 29.3446 15.5215 28.5946 13.9615C27.5146 11.7215 27.0546 7.7715 29.5146 6.4215C32.3646 4.8515 35.4146 8.6515 37.4646 12.1215C37.8246 12.7315 38.1346 13.2915 38.3946 13.7715C40.7346 18.1215 43.4346 23.8615 45.4446 28.7615C45.7546 29.5315 46.6346 29.8915 47.4046 29.5815C48.1746 29.2715 48.5346 28.3915 48.2246 27.6215C46.1746 22.6315 43.4246 16.7815 41.0446 12.3615C40.8346 11.9615 40.5646 11.4815 40.2746 10.9915C39.9946 9.5015 40.1546 8.1915 40.7246 7.3915C41.1046 6.8615 41.6746 6.5615 42.4446 6.4615C44.9546 6.1515 46.2746 8.5415 47.8746 11.9515C48.1346 12.5115 48.3946 13.0515 48.6446 13.5415C50.2146 16.5815 52.6346 21.6215 54.4946 26.0315C56.0246 29.6615 57.0446 32.4515 57.5046 34.3415C57.6646 34.9915 58.2246 35.4315 58.8446 35.4815C58.9946 35.4915 59.1546 35.4815 59.3146 35.4415C60.1146 35.2415 60.6046 34.4315 60.4146 33.6215C59.9346 31.6915 58.9946 29.0515 57.5546 25.6015C57.9346 23.8015 59.1646 21.4315 60.7446 20.5015C61.4346 20.0915 62.0946 20.0115 62.8146 20.2315C65.7046 21.1515 65.7646 23.1315 64.7946 27.5215L64.7146 27.8715C64.4646 29.0215 64.4946 30.9215 64.5346 33.5315C64.6646 41.7315 64.9046 56.9915 55.4946 63.3615L55.5246 63.3315Z" fill="#715924"/>
</g>
<defs>
<radialGradient id="paint0_radial_5669_42843" cx="0" cy="0" r="1" gradientUnits="userSpaceOnUse" gradientTransform="translate(38.703 36.6979) rotate(90) scale(32.1794 28.182)">
<stop stop-color="#FFE585"/>
<stop offset="1" stop-color="#FFC738"/>
</radialGradient>
<clipPath id="clip0_5669_42843">
<rect width="72" height="72" fill="white"/>
</clipPath>
</defs>
</svg>
