<svg width="72" height="72" viewBox="0 0 72 72" fill="none" xmlns="http://www.w3.org/2000/svg">
<g clip-path="url(#clip0_5669_42860)">
<path d="M60.3461 14.9115C59.2253 13.8595 57.6247 13.5042 55.5839 13.8569C53.5834 14.2007 51.9077 15.444 50.5982 17.5379C48.7864 20.418 47.9167 24.6552 47.7285 28.4914C43.1006 23.0289 34.1826 12.8936 31.6277 10.1906C28.7431 7.11808 26.6392 5.80829 24.6088 5.79109C23.3388 5.7753 22.1735 6.30269 21.1434 7.35409C19.0831 9.46688 19.0389 11.7465 19.74 13.8471C19.3394 13.5057 18.9483 13.1846 18.5566 12.8834C14.7165 9.99408 11.5548 11.0754 10.0033 12.8824C8.50314 14.6409 8.06272 17.4896 9.23559 20.2437C8.56037 20.0647 7.90204 19.9961 7.25976 20.068C5.66476 20.2231 4.25911 21.1139 3.06364 22.7109C0.838572 25.6994 3.12888 29.6254 4.83733 31.8344C4.30613 31.8695 3.78295 31.9748 3.2878 32.1509C1.43768 32.8391 0.272201 34.4369 0.0297327 36.6509C-0.212736 38.865 1.15923 40.9444 2.22076 42.3249C3.57175 44.0836 6.10662 46.7861 8.34064 49.16C9.73893 50.66 11.0698 52.068 11.9418 53.073L12.7267 53.9755C17.6775 59.6972 20.6613 63.1526 27.7545 67.044C35.5764 71.3461 46.0729 69.491 53.7402 62.5943C54.0993 62.2743 54.4488 61.944 54.7885 61.6034C66.3165 50.1236 62.5768 36.5729 62.1467 35.1502C61.561 31.7924 61.3849 28.4561 61.6056 25.241C61.6388 24.7718 61.694 24.2331 61.7601 23.6648C62.0848 20.6627 62.5003 16.923 60.3658 14.922L60.3461 14.9115ZM58.9379 23.3451C58.8711 23.9435 58.805 24.5119 58.7704 25.0311C58.5224 28.5055 58.7312 32.1028 59.3597 35.7119C59.368 35.7722 59.3861 35.8427 59.4144 35.9036C59.5794 36.4384 63.4375 48.9821 52.774 59.6059C45.9192 66.4255 36.1776 68.4719 29.0945 64.5808C23.9226 61.734 19.4209 57.8256 15.76 53.1906C12.2437 48.7498 7.93324 45.1569 4.44004 40.6067C3.26278 39.073 2.7171 37.8471 2.82214 36.9597C2.94422 35.8227 3.43488 35.0962 4.26385 34.7895C7.21537 33.7122 9.06108 36.3752 10.7928 38.1147C11.3668 38.6911 11.9116 39.2367 12.4659 39.8025C13.6619 41.0267 14.8076 42.2595 16.2445 43.8105C16.2445 43.8105 16.6036 44.2008 16.6136 44.2011C16.7882 44.3961 16.9528 44.5908 17.1373 44.7861C17.6511 45.3708 18.5502 45.4161 19.1349 44.9024C19.7096 44.3884 19.7546 43.4993 19.2409 42.9146C17.4469 40.9033 15.9797 39.3613 14.5892 37.9416C13.996 37.3346 13.4026 36.7377 12.7603 36.0993C12.7118 36.0479 12.6632 35.9966 12.6143 35.9552C11.2815 34.6171 9.91008 33.2279 8.19009 31.4287C6.36351 29.5065 4.08995 26.0511 5.32709 24.3953C6.03415 23.4448 6.75851 22.945 7.54102 22.867C8.62454 22.7575 9.98624 23.4262 11.5864 24.8618C15.2845 28.1773 19.0687 31.9854 23.5134 36.8526C24.0374 37.4275 24.9165 37.4723 25.5015 36.9486C26.0764 36.4246 26.1115 35.5352 25.5875 34.9602L25.5195 34.8883C25.4715 34.8169 25.4238 34.7355 25.3555 34.6736C23.7646 32.9081 22.1751 31.0926 20.6242 29.3282C17.8521 26.1688 15.2449 23.1942 13.3558 21.3603C11.0287 19.0938 10.9116 16.1493 12.1323 14.7232C13.1562 13.5315 14.9124 13.6911 16.8522 15.1463C20.7415 18.067 25.4493 23.8919 28.5723 27.7315C29.7133 29.1342 30.6122 30.2499 31.1853 30.8563C31.7099 31.4113 32.5893 31.4461 33.1537 30.9418L33.1743 30.9224C33.7395 30.3881 33.7646 29.4984 33.2303 28.9332L33.1138 28.8098C33.1138 28.8098 33.0757 28.7387 33.0569 28.6982C31.34 26.0788 29.4615 23.5148 27.6501 21.0528C26.7063 19.7557 25.7233 18.4275 24.7903 17.1007C22.5194 13.9054 21.0671 11.4836 23.1585 9.33164C23.7869 8.68908 24.2692 8.61264 24.5794 8.61138C25.7095 8.62322 27.397 9.80123 29.5824 12.1237C31.185 13.8295 32.7456 15.6042 34.2965 17.3686C36.5557 19.9133 38.7947 22.4673 41.0331 25.0414C42.8451 27.1233 44.6572 29.2052 46.4282 31.3259C46.5056 31.4181 46.5927 31.5206 46.6702 31.6128C47.2896 32.3506 47.7886 33.1049 48.7965 33.1934C48.8565 33.195 48.9264 33.197 48.9964 33.199C49.1064 33.2021 49.23 33.0755 49.3608 33.0492C49.7026 32.9888 50.1016 32.3198 50.3094 32.0455C50.6314 31.6244 50.5236 31.1912 50.5082 30.6706C50.4932 30.1399 50.4981 29.6099 50.523 29.0804C50.5549 27.9508 50.6567 26.8232 50.8182 25.7073C51.1289 23.5552 51.6613 21.3494 52.7353 19.4489C52.8092 19.3109 52.8931 19.1732 52.977 19.0355C53.8464 17.6495 54.8794 16.8482 56.0557 16.6413C57.1714 16.4526 57.9686 16.5651 58.4071 16.9777C59.5182 18.0194 59.1576 21.2305 58.9374 23.3651L58.9379 23.3451Z" fill="#715924"/>
<path d="M58.4467 16.9985C59.5578 18.0402 59.1972 21.2513 58.977 23.3859C58.9101 23.9843 58.844 24.5527 58.8094 25.0719C58.5614 28.5463 58.7702 32.1436 59.3987 35.7527C59.417 35.8133 59.4251 35.8835 59.4534 35.9443C59.6184 36.4792 63.4765 49.0229 52.813 59.6467C45.9582 66.4663 36.2167 68.5127 29.1335 64.6216C23.9616 61.7748 19.4599 57.8664 15.799 53.2314C12.2827 48.7906 7.97225 45.1977 4.47905 40.6475C3.30179 39.1138 2.75611 37.8879 2.86115 37.0005C2.98323 35.8635 3.47389 35.137 4.30286 34.8303C7.25438 33.753 9.10009 36.416 10.8318 38.1555C11.4058 38.7319 11.9506 39.2775 12.5049 39.8433C13.7009 41.0675 14.8463 42.3102 16.2835 43.8513C16.2835 43.8513 16.6426 44.2416 16.6526 44.2419C16.8272 44.4369 16.9918 44.6316 17.1763 44.8269C17.6901 45.4116 18.5892 45.4569 19.1739 44.9432C19.7486 44.4292 19.7936 43.5401 19.2799 42.9554C17.4859 40.9441 16.0187 39.4021 14.6282 37.9824C14.035 37.3754 13.4416 36.7785 12.7993 36.1401C12.7508 36.0887 12.7022 36.0374 12.6533 35.996C11.3205 34.6579 9.94909 33.2687 8.22909 31.4695C6.40252 29.5473 4.12896 26.0919 5.36609 24.4361C6.07315 23.4856 6.79752 22.9858 7.58003 22.9078C8.66354 22.7983 10.0252 23.4669 11.6254 24.9026C15.3235 28.2181 19.1077 32.0262 23.5524 36.8934C24.0764 37.4683 24.9555 37.5131 25.5405 36.9894C26.1155 36.4654 26.1505 35.576 25.6265 35.001L25.5585 34.9291C25.5105 34.8577 25.4628 34.7763 25.3945 34.7144C23.8036 32.9489 22.2141 31.1334 20.6632 29.369C17.8911 26.2096 15.2839 23.235 13.3948 21.4011C11.0677 19.1346 10.9506 16.1901 12.1713 14.764C13.1952 13.5723 14.9514 13.7319 16.8912 15.1871C20.7805 18.1078 25.4883 23.9327 28.6113 27.7722C29.7523 29.1749 30.6512 30.2907 31.2143 30.8968C31.7389 31.4518 32.6183 31.4866 33.1827 30.9823L33.2033 30.9629C33.7686 30.4286 33.7936 29.5389 33.2593 28.9737L33.1428 28.8503C33.1428 28.8503 33.1048 28.7792 33.0859 28.7387C31.369 26.1193 29.4905 23.5553 27.6791 21.0933C26.7353 19.7962 25.7523 18.468 24.8193 17.1412C22.5484 13.946 21.0961 11.5241 23.1875 9.37215C23.8159 8.7296 24.2982 8.65316 24.6084 8.65189C25.7385 8.66373 27.426 9.84174 29.6114 12.1642C31.214 13.8701 32.7746 15.6447 34.3255 17.4091C36.5848 19.9538 38.8237 22.5079 41.0621 25.0819C42.8741 27.1638 44.6862 29.2457 46.4572 31.3664C42.5274 33.7867 40.0066 36.9769 38.9371 40.8483C37.042 47.7477 40.4902 54.2474 40.6328 54.5115C41.0038 55.1922 41.8162 55.4752 42.466 55.1334C42.4966 55.1143 42.5371 55.0954 42.5677 55.0763C43.1382 54.7122 43.3201 53.937 42.9683 53.2868C42.94 53.226 39.9301 47.4989 41.5338 41.7118C42.5023 38.2277 44.9536 35.3756 48.8258 33.2239C48.8858 33.2256 48.9557 33.2275 49.0257 33.2295C49.1357 33.2326 49.2593 33.106 49.3901 33.0797C49.7319 33.0193 50.1309 32.3503 50.3387 32.076C50.6607 31.6549 50.5529 31.2217 50.5375 30.7011C50.5225 30.1705 50.5274 29.6404 50.5523 29.1109C50.5842 27.9813 50.686 26.8538 50.8475 25.7379C51.1582 23.5858 51.6906 21.3799 52.7645 19.4794C52.8385 19.3414 52.9224 19.2037 53.0063 19.066C53.8757 17.68 54.9087 16.8788 56.085 16.6718C57.2007 16.4832 57.9979 16.5957 58.4364 17.0082L58.4467 16.9985Z" fill="#FFAC00"/>
<path d="M50.0604 30.9477C50.4211 31.6381 50.1878 32.4619 49.5385 32.7837C49.2849 32.9066 49.0411 33.0398 48.7972 33.173C44.9251 35.3248 42.4738 38.1768 41.5052 41.6609C39.9016 47.4481 42.9114 53.1751 42.9397 53.2359C43.2916 53.8861 43.0996 54.661 42.5392 55.0254C42.5086 55.0445 42.4781 55.0637 42.4375 55.0825C41.7976 55.4246 40.9753 55.1414 40.6043 54.4606C40.462 54.1865 37.0137 47.6868 38.9085 40.7974C39.978 36.926 42.4989 33.7358 46.4286 31.3155C46.9988 30.9614 47.5985 30.6282 48.2278 30.3058C48.8774 29.974 49.6995 30.2673 50.0602 30.9577L50.0604 30.9477Z" fill="#715924"/>
<path d="M59.8946 26.4215L60.0946 26.3415C60.6946 23.3415 63.4446 18.5615 67.2946 19.7715C72.1146 21.3015 70.9346 25.8215 70.2046 29.1515C69.2346 33.6315 73.2946 56.8215 60.3646 65.5715C55.0946 69.1515 48.6046 70.9315 42.4946 69.2215C36.9846 67.6815 32.1046 64.0415 29.4246 59.0315C28.5946 57.4715 27.7846 55.9115 26.9846 54.3415C24.5746 49.6315 16.7546 36.0915 15.7346 33.7315C14.9046 31.8015 14.1246 29.3815 14.7446 27.2915C15.2846 25.4615 17.4346 24.4615 19.2646 24.5015C21.4946 24.5515 22.9546 26.2815 24.1546 27.9115C24.7246 28.6715 25.2846 29.4915 25.9246 30.2815L30.8846 37.8515C29.3046 35.3915 27.6546 32.4515 25.9246 30.2815C24.4846 27.3215 18.4046 17.3715 25.5546 14.6115C29.3346 13.1615 31.9546 17.6115 33.9446 20.6115C35.9346 24.0815 38.1246 27.4815 40.1646 30.8915C38.2246 27.5015 37.1146 25.0415 34.5546 21.4815C34.3546 21.2115 34.1646 20.9215 33.9546 20.6115C33.0046 18.9615 32.1046 17.2915 31.2746 15.6015C29.8446 12.6515 29.5246 7.91154 32.8246 6.09154C36.9546 3.82154 40.6946 8.79154 42.7946 12.3415L42.8446 12.3115C42.2246 9.15154 43.2246 6.33154 46.2946 5.95154C50.7446 5.40154 52.3946 10.7015 54.0046 13.8415C55.3846 16.5115 57.8546 21.6015 59.9046 26.4315L59.8946 26.4215Z" fill="url(#paint0_radial_5669_42860)"/>
<path d="M71.5646 34.4515C71.5246 32.2215 71.4946 30.2915 71.6746 29.4715L71.7446 29.1315C72.4746 25.8015 73.7146 20.2315 67.7446 18.3315C66.2146 17.8515 64.6646 18.0415 63.2446 18.8715C61.8346 19.7015 60.7046 21.1315 59.8846 22.6415C58.2146 18.9115 56.4746 15.3515 55.3246 13.1215C55.0846 12.6615 54.8546 12.1615 54.6046 11.6315C53.1546 8.5215 50.9446 3.8415 46.0946 4.4415C44.4946 4.6415 43.1846 5.3815 42.3146 6.5915C42.0146 7.0115 41.7746 7.4815 41.5946 7.9815C37.6946 3.2915 34.3546 3.5215 32.0846 4.7715C29.0946 6.4215 28.2946 9.8815 28.9046 13.1615C27.7446 12.7115 26.4546 12.6515 25.0046 13.2015C23.0646 13.9515 21.7446 15.2115 21.0846 16.9515C20.3446 18.9115 20.5946 21.1915 21.2346 23.3915C20.6446 23.1615 19.9946 23.0115 19.2746 23.0015C16.8746 22.9515 14.0546 24.2715 13.2846 26.8715C12.4946 29.5315 13.5146 32.4015 14.3346 34.3315C14.9146 35.6715 17.4046 40.1415 20.0446 44.8715C22.2446 48.8115 24.5146 52.8815 25.6246 55.0315C26.4346 56.6115 27.2546 58.1815 28.0846 59.7515C30.8846 64.9915 35.9846 68.9715 42.0746 70.6815C43.2746 71.0215 44.5146 71.2315 45.7846 71.3215C50.8646 71.7015 56.3046 70.1415 61.1946 66.8215C71.9546 59.5415 71.6946 43.2215 71.5546 34.4615L71.5646 34.4515ZM59.5246 64.3315C54.1546 67.9715 48.0846 69.2315 42.9046 67.7815C37.5946 66.2915 33.1646 62.8515 30.7546 58.3315C29.9346 56.7815 29.1246 55.2215 28.3246 53.6515C27.1946 51.4515 24.9146 47.3515 22.6946 43.3915C20.2046 38.9315 17.6346 34.3315 17.1146 33.1315C16.1046 30.7815 15.7946 29.0015 16.1846 27.7015C16.5046 26.6115 18.0146 25.9615 19.2346 25.9915C20.6546 26.0215 21.6946 27.0815 22.9546 28.8015L23.4646 29.5015C23.8546 30.0415 24.2646 30.6015 24.6946 31.1415L29.6246 38.6515C29.8546 39.0115 30.0746 39.3715 30.3046 39.7115C30.7646 40.4015 31.7046 40.5815 32.3846 40.1215C33.0746 39.6615 33.2546 38.7315 32.7946 38.0415C32.5846 37.7215 32.3646 37.3915 32.1546 37.0515C31.7146 36.3715 31.2746 35.6515 30.8246 34.9315C29.6746 33.0615 28.4746 31.1315 27.2046 29.5115C27.0746 29.2415 26.9046 28.9215 26.7246 28.5715C25.4446 26.1115 22.7846 20.9915 23.9046 18.0315C24.2546 17.1215 24.9646 16.4615 26.0946 16.0215C28.3346 15.1615 30.1646 17.6015 32.3146 20.8815L32.6346 21.3615C33.8546 23.4815 35.1546 25.6015 36.4146 27.6515C37.2346 28.9915 38.0546 30.3215 38.8346 31.6315C38.8346 31.6315 38.8346 31.6315 38.8346 31.6415C39.1146 32.1315 39.4046 32.6515 39.7346 33.1815C39.9946 33.6115 40.4446 33.8615 40.9046 33.9015C41.2046 33.9215 41.5146 33.8515 41.7946 33.6915C42.5046 33.2615 42.7246 32.3415 42.2946 31.6315C41.9946 31.1315 41.7146 30.6515 41.4346 30.1615C40.9146 29.2515 40.4546 28.4215 40.0146 27.6115C38.8046 25.3915 37.6546 23.3015 35.7246 20.6015C35.6046 20.4415 35.4946 20.2715 35.3746 20.1015L35.1746 19.8015C34.2146 18.1415 33.3446 16.5215 32.5946 14.9615C31.5146 12.7215 31.0546 8.7715 33.5146 7.4215C36.3646 5.8515 39.4146 9.6515 41.4646 13.1215C41.8246 13.7315 42.1346 14.2915 42.3946 14.7715C44.7346 19.1215 47.4346 24.8615 49.4446 29.7615C49.7546 30.5315 50.6346 30.8915 51.4046 30.5815C52.1746 30.2715 52.5346 29.3915 52.2246 28.6215C50.1746 23.6315 47.4246 17.7815 45.0446 13.3615C44.8346 12.9615 44.5646 12.4815 44.2746 11.9915C43.9946 10.5015 44.1546 9.1915 44.7246 8.3915C45.1046 7.8615 45.6746 7.5615 46.4446 7.4615C48.9546 7.1515 50.2746 9.5415 51.8746 12.9515C52.1346 13.5115 52.3946 14.0515 52.6446 14.5415C54.2146 17.5815 56.6346 22.6215 58.4946 27.0315C60.0246 30.6615 61.0446 33.4515 61.5046 35.3415C61.6646 35.9915 62.2246 36.4315 62.8446 36.4815C62.9946 36.4915 63.1546 36.4815 63.3146 36.4415C64.1146 36.2415 64.6046 35.4315 64.4146 34.6215C63.9346 32.6915 62.9946 30.0515 61.5546 26.6015C61.9346 24.8015 63.1646 22.4315 64.7446 21.5015C65.4346 21.0915 66.0946 21.0115 66.8146 21.2315C69.7046 22.1515 69.7646 24.1315 68.7946 28.5215L68.7146 28.8715C68.4646 30.0215 68.4946 31.9215 68.5346 34.5315C68.6646 42.7315 68.9046 57.9915 59.4946 64.3615L59.5246 64.3315Z" fill="#715924"/>
</g>
<defs>
<radialGradient id="paint0_radial_5669_42860" cx="0" cy="0" r="1" gradientUnits="userSpaceOnUse" gradientTransform="translate(42.703 37.6979) rotate(90) scale(32.1794 28.182)">
<stop stop-color="#FFE585"/>
<stop offset="1" stop-color="#FFC738"/>
</radialGradient>
<clipPath id="clip0_5669_42860">
<rect width="72" height="72" fill="white"/>
</clipPath>
</defs>
</svg>
