<svg width="222" height="224" viewBox="0 0 222 224" fill="none" xmlns="http://www.w3.org/2000/svg">
<g filter="url(#filter0_ddd_99572_24780)">
<circle cx="134" cy="87" r="4.5" fill="#D9FFFF"/>
<circle cx="137" cy="92" r="4.5" fill="#D9FFFF"/>
<circle cx="139.5" cy="96.5" r="4.5" fill="#D9FFFF"/>
<circle cx="141.5" cy="101" r="4.5" fill="#D9FFFF"/>
<circle cx="143" cy="106" r="4.5" fill="#D9FFFF"/>
<circle cx="144" cy="111.5" r="4.5" fill="#D9FFFF"/>
<circle cx="144" cy="117" r="4.5" fill="#D9FFFF"/>
<circle cx="142" cy="122.5" r="4.5" fill="#D9FFFF"/>
<circle cx="140" cy="127.5" r="4.5" fill="#D9FFFF"/>
<circle cx="137" cy="133" r="4.5" fill="#D9FFFF"/>
<circle cx="133" cy="137" r="4.5" fill="#D9FFFF"/>
<circle cx="129" cy="140" r="4.5" fill="#D9FFFF"/>
<circle cx="124" cy="143" r="4.5" fill="#D9FFFF"/>
<circle cx="118.5" cy="144.5" r="4.5" fill="#D9FFFF"/>
<circle cx="113" cy="146" r="4.5" fill="#D9FFFF"/>
<circle cx="91" cy="140.5" r="4.5" fill="#D9FFFF"/>
<circle cx="107.5" cy="146.5" r="4.5" fill="#D9FFFF"/>
<circle cx="101.5" cy="145.5" r="4.5" fill="#D9FFFF"/>
<circle cx="96" cy="143.5" r="4.5" fill="#D9FFFF"/>
<circle cx="98.5" cy="79.5" r="4.5" fill="#D9FFFF"/>
<circle cx="94" cy="82" r="4.5" fill="#D9FFFF"/>
<circle cx="110" cy="77.5" r="4.5" fill="#D9FFFF"/>
<circle cx="110" cy="77.5" r="4.5" fill="#D9FFFF"/>
<circle cx="110" cy="77.5" r="4.5" fill="#D9FFFF"/>
<circle cx="104.5" cy="78.5" r="4.5" fill="#D9FFFF"/>
<circle cx="115.5" cy="78.5" r="4.5" fill="#D9FFFF"/>
<circle cx="120.5" cy="79.5" r="4.5" fill="#D9FFFF"/>
<circle cx="125.5" cy="81.5" r="4.5" fill="#D9FFFF"/>
<circle cx="129.5" cy="84.5" r="4.5" fill="#D9FFFF"/>
<circle cx="86.5495" cy="137.81" r="4.5" transform="rotate(176.65 86.5495 137.81)" fill="#D9FFFF"/>
<circle cx="83.2799" cy="133.675" r="4.5" transform="rotate(176.65 83.2799 133.675)" fill="#D9FFFF"/>
<circle cx="80.6442" cy="129.287" r="4.5" transform="rotate(176.65 80.6442 129.287)" fill="#D9FFFF"/>
<circle cx="78.2106" cy="124.671" r="4.5" transform="rotate(176.65 78.2106 124.671)" fill="#D9FFFF"/>
<circle cx="76.1842" cy="119.599" r="4.5" transform="rotate(176.65 76.1842 119.599)" fill="#D9FFFF"/>
<circle cx="75.4498" cy="114.451" r="4.5" transform="rotate(176.65 75.4498 114.451)" fill="#D9FFFF"/>
<circle cx="75.1217" cy="108.847" r="4.5" transform="rotate(176.65 75.1217 108.847)" fill="#D9FFFF"/>
<circle cx="76.5182" cy="103.143" r="4.5" transform="rotate(176.65 76.5182 103.143)" fill="#D9FFFF"/>
<circle cx="78.3707" cy="97.8429" r="4.5" transform="rotate(176.65 78.3707 97.8429)" fill="#D9FFFF"/>
<circle cx="81.0729" cy="92.2784" r="4.5" transform="rotate(176.65 81.0729 92.2784)" fill="#D9FFFF"/>
<circle cx="84.319" cy="88.171" r="4.5" transform="rotate(176.65 84.319 88.171)" fill="#D9FFFF"/>
<circle cx="88.4293" cy="84.9278" r="4.5" transform="rotate(176.65 88.4293 84.9278)" fill="#D9FFFF"/>
<circle cx="133.088" cy="93.8839" r="4.5" transform="rotate(0.726778 133.088 93.8839)" fill="#FFFFC9"/>
<circle cx="137.124" cy="99.046" r="4.5" transform="rotate(0.726778 137.124 99.046)" fill="#FFFFC9"/>
<circle cx="138.468" cy="105.106" r="4.5" transform="rotate(0.726778 138.468 105.106)" fill="#FFFFC9"/>
<circle cx="139.818" cy="112.064" r="4.5" transform="rotate(0.726778 139.818 112.064)" fill="#FFFFC9"/>
<circle cx="138.471" cy="118.349" r="4.5" transform="rotate(0.726778 138.471 118.349)" fill="#FFFFC9"/>
<circle cx="136.448" cy="124.86" r="4.5" transform="rotate(0.726778 136.448 124.86)" fill="#FFFFC9"/>
<circle cx="132.82" cy="129.818" r="4.5" transform="rotate(0.726778 132.82 129.818)" fill="#FFFFC9"/>
<circle cx="128.599" cy="134.284" r="4.5" transform="rotate(0.726778 128.599 134.284)" fill="#FFFFC9"/>
<circle cx="123.433" cy="138.103" r="4.5" transform="rotate(0.726778 123.433 138.103)" fill="#FFFFC9"/>
<circle cx="116.026" cy="139.896" r="4.5" transform="rotate(0.726778 116.026 139.896)" fill="#FFFFC9"/>
<circle cx="92.2346" cy="134.509" r="4.5" transform="rotate(0.726778 92.2346 134.509)" fill="#FFFFC9"/>
<circle cx="109.967" cy="140.342" r="4.5" transform="rotate(0.726778 109.967 140.342)" fill="#FFFFC9"/>
<circle cx="103.679" cy="139.668" r="4.5" transform="rotate(0.726778 103.679 139.668)" fill="#FFFFC9"/>
<circle cx="97.6183" cy="137.875" r="4.5" transform="rotate(0.726778 97.6183 137.875)" fill="#FFFFC9"/>
<circle cx="104.577" cy="84.004" r="4.5" transform="rotate(0.726778 104.577 84.004)" fill="#FFFFC9"/>
<circle cx="99.4133" cy="86.252" r="4.5" transform="rotate(0.726778 99.4133 86.252)" fill="#FFFFC9"/>
<circle cx="110.958" cy="83.7491" r="4.5" transform="rotate(0.726778 110.958 83.7491)" fill="#FFFFC9"/>
<circle cx="110.958" cy="83.7491" r="4.5" transform="rotate(0.726778 110.958 83.7491)" fill="#FFFFC9"/>
<circle cx="118.044" cy="84.004" r="4.5" transform="rotate(0.726778 118.044 84.004)" fill="#FFFFC9"/>
<circle cx="123.711" cy="86.6104" r="4.5" transform="rotate(0.726778 123.711 86.6104)" fill="#FFFFC9"/>
<circle cx="129.041" cy="89.8428" r="4.5" transform="rotate(0.726778 129.041 89.8428)" fill="#FFFFC9"/>
<circle cx="88.5361" cy="129.673" r="4.5" transform="rotate(177.377 88.5361 129.673)" fill="#FFFFC9"/>
<circle cx="84.7705" cy="124.181" r="4.5" transform="rotate(177.377 84.7705 124.181)" fill="#FFFFC9"/>
<circle cx="82.8154" cy="117.96" r="4.5" transform="rotate(177.377 82.8154 117.96)" fill="#FFFFC9"/>
<circle cx="82.5254" cy="111.612" r="4.5" transform="rotate(177.377 82.5254 111.612)" fill="#FFFFC9"/>
<circle cx="83.4238" cy="105.328" r="4.5" transform="rotate(177.377 83.4238 105.328)" fill="#FFFFC9"/>
<circle cx="85.75" cy="99.0964" r="4.5" transform="rotate(177.377 85.75 99.0964)" fill="#FFFFC9"/>
<circle cx="89.2675" cy="93.3854" r="4.5" transform="rotate(177.377 89.2675 93.3854)" fill="#FFFFC9"/>
<circle cx="93.7568" cy="88.8962" r="4.5" transform="rotate(177.377 93.7568 88.8962)" fill="#FFFFC9"/>
<circle cx="122" cy="100" r="4.5" fill="#D9FFFF"/>
<circle cx="125" cy="104" r="4.5" fill="#D9FFFF"/>
<circle cx="127" cy="110" r="4.5" fill="#D9FFFF"/>
<circle cx="127" cy="116" r="4.5" fill="#D9FFFF"/>
<circle cx="125" cy="122" r="4.5" fill="#D9FFFF"/>
<circle cx="121" cy="126" r="4.5" fill="#D9FFFF"/>
<circle cx="115.5" cy="129" r="4.5" fill="#D9FFFF"/>
<circle cx="102.5" cy="128" r="4.5" fill="#D9FFFF"/>
<circle cx="109" cy="130" r="4.5" fill="#D9FFFF"/>
<circle cx="98" cy="125" r="4.5" fill="#D9FFFF"/>
<circle cx="94.5" cy="119.5" r="4.5" fill="#D9FFFF"/>
<circle cx="94" cy="114" r="4.5" fill="#D9FFFF"/>
<circle cx="94" cy="108" r="4.5" fill="#D9FFFF"/>
<circle cx="96" cy="103" r="4.5" fill="#D9FFFF"/>
<circle cx="100" cy="99" r="4.5" fill="#D9FFFF"/>
<circle cx="105.5" cy="96" r="4.5" fill="#D9FFFF"/>
<circle cx="111" cy="96" r="4.5" fill="#D9FFFF"/>
<circle cx="116.5" cy="97.5" r="4.5" fill="#D9FFFF"/>
</g>
<defs>
<filter id="filter0_ddd_99572_24780" x="-1" y="0" width="223" height="226" filterUnits="userSpaceOnUse" color-interpolation-filters="sRGB">
<feFlood flood-opacity="0" result="BackgroundImageFix"/>
<feColorMatrix in="SourceAlpha" type="matrix" values="0 0 0 0 0 0 0 0 0 0 0 0 0 0 0 0 0 0 127 0" result="hardAlpha"/>
<feOffset/>
<feGaussianBlur stdDeviation="5"/>
<feComposite in2="hardAlpha" operator="out"/>
<feColorMatrix type="matrix" values="0 0 0 0 1 0 0 0 0 1 0 0 0 0 1 0 0 0 0.23 0"/>
<feBlend mode="normal" in2="BackgroundImageFix" result="effect1_dropShadow_99572_24780"/>
<feColorMatrix in="SourceAlpha" type="matrix" values="0 0 0 0 0 0 0 0 0 0 0 0 0 0 0 0 0 0 127 0" result="hardAlpha"/>
<feOffset/>
<feGaussianBlur stdDeviation="6.5"/>
<feComposite in2="hardAlpha" operator="out"/>
<feColorMatrix type="matrix" values="0 0 0 0 1 0 0 0 0 0.541667 0 0 0 0 0.541667 0 0 0 0.25 0"/>
<feBlend mode="normal" in2="effect1_dropShadow_99572_24780" result="effect2_dropShadow_99572_24780"/>
<feColorMatrix in="SourceAlpha" type="matrix" values="0 0 0 0 0 0 0 0 0 0 0 0 0 0 0 0 0 0 127 0" result="hardAlpha"/>
<feOffset/>
<feGaussianBlur stdDeviation="12"/>
<feComposite in2="hardAlpha" operator="out"/>
<feColorMatrix type="matrix" values="0 0 0 0 1 0 0 0 0 1 0 0 0 0 1 0 0 0 0.45 0"/>
<feBlend mode="normal" in2="effect2_dropShadow_99572_24780" result="effect3_dropShadow_99572_24780"/>
<feBlend mode="normal" in="SourceGraphic" in2="effect3_dropShadow_99572_24780" result="shape"/>
</filter>
</defs>
</svg>
