<svg width="238" height="236" viewBox="0 0 238 236" fill="none" xmlns="http://www.w3.org/2000/svg">
<g filter="url(#filter0_ddd_99572_17272)">
<circle cx="180" cy="57.5" r="4.5" fill="#D9FFFF"/>
<circle cx="188" cy="67.5" r="4.5" fill="#D9FFFF"/>
<circle cx="193.5" cy="79" r="4.5" fill="#D9FFFF"/>
<circle cx="199" cy="91" r="4.5" fill="#D9FFFF"/>
<circle cx="203.5" cy="104" r="4.5" fill="#D9FFFF"/>
<circle cx="204.5" cy="116" r="4.5" fill="#D9FFFF"/>
<circle cx="204.5" cy="130" r="4.5" fill="#D9FFFF"/>
<circle cx="200.5" cy="144" r="4.5" fill="#D9FFFF"/>
<circle cx="194.5" cy="157" r="4.5" fill="#D9FFFF"/>
<circle cx="187.5" cy="170.5" r="4.5" fill="#D9FFFF"/>
<circle cx="177.5" cy="178.5" r="4.5" fill="#D9FFFF"/>
<circle cx="168" cy="187.5" r="4.5" fill="#D9FFFF"/>
<circle cx="156.5" cy="193.5" r="4.5" fill="#D9FFFF"/>
<circle cx="142" cy="199" r="4.5" fill="#D9FFFF"/>
<circle cx="128" cy="202" r="4.5" fill="#D9FFFF"/>
<circle cx="74" cy="188" r="4.5" fill="#D9FFFF"/>
<circle cx="114" cy="203" r="4.5" fill="#D9FFFF"/>
<circle cx="99" cy="201" r="4.5" fill="#D9FFFF"/>
<circle cx="86" cy="195" r="4.5" fill="#D9FFFF"/>
<circle cx="93" cy="38.5" r="4.5" fill="#D9FFFF"/>
<circle cx="81" cy="44" r="4.5" fill="#D9FFFF"/>
<circle cx="121" cy="33" r="4.5" fill="#D9FFFF"/>
<circle cx="121" cy="33" r="4.5" fill="#D9FFFF"/>
<circle cx="121" cy="33" r="4.5" fill="#D9FFFF"/>
<circle cx="108" cy="35" r="4.5" fill="#D9FFFF"/>
<circle cx="134.5" cy="35" r="4.5" fill="#D9FFFF"/>
<circle cx="147" cy="38.5" r="4.5" fill="#D9FFFF"/>
<circle cx="160" cy="43" r="4.5" fill="#D9FFFF"/>
<circle cx="170" cy="50" r="4.5" fill="#D9FFFF"/>
<circle cx="63.0192" cy="181.812" r="4.5" transform="rotate(176.65 63.0192 181.812)" fill="#D9FFFF"/>
<circle cx="54.9342" cy="171.59" r="4.5" transform="rotate(176.65 54.9342 171.59)" fill="#D9FFFF"/>
<circle cx="48.4186" cy="160.742" r="4.5" transform="rotate(176.65 48.4186 160.742)" fill="#D9FFFF"/>
<circle cx="42.403" cy="149.33" r="4.5" transform="rotate(176.65 42.403 149.33)" fill="#D9FFFF"/>
<circle cx="37.3913" cy="136.789" r="4.5" transform="rotate(176.65 37.3913 136.789)" fill="#D9FFFF"/>
<circle cx="35.5768" cy="124.062" r="4.5" transform="rotate(176.65 35.5768 124.062)" fill="#D9FFFF"/>
<circle cx="34.7653" cy="110.206" r="4.5" transform="rotate(176.65 34.7653 110.206)" fill="#D9FFFF"/>
<circle cx="38.2174" cy="96.1007" r="4.5" transform="rotate(176.65 38.2174 96.1007)" fill="#D9FFFF"/>
<circle cx="42.7985" cy="82.9981" r="4.5" transform="rotate(176.65 42.7985 82.9981)" fill="#D9FFFF"/>
<circle cx="49.4791" cy="69.2384" r="4.5" transform="rotate(176.65 49.4791 69.2384)" fill="#D9FFFF"/>
<circle cx="57.5055" cy="59.0831" r="4.5" transform="rotate(176.65 57.5055 59.0831)" fill="#D9FFFF"/>
<circle cx="67.6666" cy="51.0626" r="4.5" transform="rotate(176.65 67.6666 51.0626)" fill="#D9FFFF"/>
<circle cx="172.731" cy="75.4122" r="4.5" transform="rotate(0.726778 172.731 75.4122)" fill="#FFFFC9"/>
<circle cx="182.208" cy="87.5313" r="4.5" transform="rotate(0.726778 182.208 87.5313)" fill="#FFFFC9"/>
<circle cx="185.362" cy="101.757" r="4.5" transform="rotate(0.726778 185.362 101.757)" fill="#FFFFC9"/>
<circle cx="188.53" cy="118.091" r="4.5" transform="rotate(0.726778 188.53 118.091)" fill="#FFFFC9"/>
<circle cx="185.369" cy="132.844" r="4.5" transform="rotate(0.726778 185.369 132.844)" fill="#FFFFC9"/>
<circle cx="180.62" cy="148.13" r="4.5" transform="rotate(0.726778 180.62 148.13)" fill="#FFFFC9"/>
<circle cx="172.106" cy="159.769" r="4.5" transform="rotate(0.726778 172.106 159.769)" fill="#FFFFC9"/>
<circle cx="162.193" cy="170.253" r="4.5" transform="rotate(0.726778 162.193 170.253)" fill="#FFFFC9"/>
<circle cx="150.067" cy="179.217" r="4.5" transform="rotate(0.726778 150.067 179.217)" fill="#FFFFC9"/>
<circle cx="132.68" cy="183.426" r="4.5" transform="rotate(0.726778 132.68 183.426)" fill="#FFFFC9"/>
<circle cx="76.8293" cy="170.78" r="4.5" transform="rotate(0.726778 76.8293 170.78)" fill="#FFFFC9"/>
<circle cx="118.453" cy="184.473" r="4.5" transform="rotate(0.726778 118.453 184.473)" fill="#FFFFC9"/>
<circle cx="103.694" cy="182.892" r="4.5" transform="rotate(0.726778 103.694 182.892)" fill="#FFFFC9"/>
<circle cx="89.4679" cy="178.683" r="4.5" transform="rotate(0.726778 89.4679 178.683)" fill="#FFFFC9"/>
<circle cx="105.801" cy="52.2218" r="4.5" transform="rotate(0.726778 105.801 52.2218)" fill="#FFFFC9"/>
<circle cx="93.6838" cy="57.4981" r="4.5" transform="rotate(0.726778 93.6838 57.4981)" fill="#FFFFC9"/>
<circle cx="120.783" cy="51.6231" r="4.5" transform="rotate(0.726778 120.783 51.6231)" fill="#FFFFC9"/>
<circle cx="120.783" cy="51.6231" r="4.5" transform="rotate(0.726778 120.783 51.6231)" fill="#FFFFC9"/>
<circle cx="137.415" cy="52.2218" r="4.5" transform="rotate(0.726778 137.415 52.2218)" fill="#FFFFC9"/>
<circle cx="150.72" cy="58.3389" r="4.5" transform="rotate(0.726778 150.72 58.3389)" fill="#FFFFC9"/>
<circle cx="163.234" cy="65.9278" r="4.5" transform="rotate(0.726778 163.234 65.9278)" fill="#FFFFC9"/>
<circle cx="68.1455" cy="159.426" r="4.5" transform="rotate(177.377 68.1455 159.426)" fill="#FFFFC9"/>
<circle cx="59.3076" cy="146.536" r="4.5" transform="rotate(177.377 59.3076 146.536)" fill="#FFFFC9"/>
<circle cx="54.7187" cy="131.93" r="4.5" transform="rotate(177.377 54.7187 131.93)" fill="#FFFFC9"/>
<circle cx="54.039" cy="117.03" r="4.5" transform="rotate(177.377 54.039 117.03)" fill="#FFFFC9"/>
<circle cx="56.1465" cy="102.277" r="4.5" transform="rotate(177.377 56.1465 102.277)" fill="#FFFFC9"/>
<circle cx="61.6074" cy="87.6481" r="4.5" transform="rotate(177.377 61.6074 87.6481)" fill="#FFFFC9"/>
<circle cx="69.8642" cy="74.2438" r="4.5" transform="rotate(177.377 69.8642 74.2438)" fill="#FFFFC9"/>
<circle cx="80.4023" cy="63.7057" r="4.5" transform="rotate(177.377 80.4023 63.7057)" fill="#FFFFC9"/>
<circle cx="148.5" cy="87" r="4.5" fill="#D9FFFF"/>
<circle cx="157" cy="97.5" r="4.5" fill="#D9FFFF"/>
<circle cx="161.5" cy="112.5" r="4.5" fill="#D9FFFF"/>
<circle cx="162.5" cy="125.5" r="4.5" fill="#D9FFFF"/>
<circle cx="157" cy="140.5" r="4.5" fill="#D9FFFF"/>
<circle cx="146.5" cy="152" r="4.5" fill="#D9FFFF"/>
<circle cx="133" cy="158" r="4.5" fill="#D9FFFF"/>
<circle cx="100.5" cy="156" r="4.5" fill="#D9FFFF"/>
<circle cx="117.5" cy="161.5" r="4.5" fill="#D9FFFF"/>
<circle cx="90" cy="147.5" r="4.5" fill="#D9FFFF"/>
<circle cx="80.5" cy="135" r="4.5" fill="#D9FFFF"/>
<circle cx="78.5" cy="121.5" r="4.5" fill="#D9FFFF"/>
<circle cx="78.5" cy="107" r="4.5" fill="#D9FFFF"/>
<circle cx="85" cy="94.5" r="4.5" fill="#D9FFFF"/>
<circle cx="95.5" cy="85" r="4.5" fill="#D9FFFF"/>
<circle cx="108" cy="77.5" r="4.5" fill="#D9FFFF"/>
<circle cx="121.5" cy="76.5" r="4.5" fill="#D9FFFF"/>
<circle cx="135" cy="81" r="4.5" fill="#D9FFFF"/>
</g>
<defs>
<filter id="filter0_ddd_99572_17272" x="0.642578" y="0" width="237.357" height="236" filterUnits="userSpaceOnUse" color-interpolation-filters="sRGB">
<feFlood flood-opacity="0" result="BackgroundImageFix"/>
<feColorMatrix in="SourceAlpha" type="matrix" values="0 0 0 0 0 0 0 0 0 0 0 0 0 0 0 0 0 0 127 0" result="hardAlpha"/>
<feOffset/>
<feGaussianBlur stdDeviation="5"/>
<feComposite in2="hardAlpha" operator="out"/>
<feColorMatrix type="matrix" values="0 0 0 0 1 0 0 0 0 1 0 0 0 0 1 0 0 0 0.23 0"/>
<feBlend mode="normal" in2="BackgroundImageFix" result="effect1_dropShadow_99572_17272"/>
<feColorMatrix in="SourceAlpha" type="matrix" values="0 0 0 0 0 0 0 0 0 0 0 0 0 0 0 0 0 0 127 0" result="hardAlpha"/>
<feOffset/>
<feGaussianBlur stdDeviation="6.5"/>
<feComposite in2="hardAlpha" operator="out"/>
<feColorMatrix type="matrix" values="0 0 0 0 1 0 0 0 0 0.541667 0 0 0 0 0.541667 0 0 0 0.25 0"/>
<feBlend mode="normal" in2="effect1_dropShadow_99572_17272" result="effect2_dropShadow_99572_17272"/>
<feColorMatrix in="SourceAlpha" type="matrix" values="0 0 0 0 0 0 0 0 0 0 0 0 0 0 0 0 0 0 127 0" result="hardAlpha"/>
<feOffset/>
<feGaussianBlur stdDeviation="12"/>
<feComposite in2="hardAlpha" operator="out"/>
<feColorMatrix type="matrix" values="0 0 0 0 1 0 0 0 0 1 0 0 0 0 1 0 0 0 0.45 0"/>
<feBlend mode="normal" in2="effect2_dropShadow_99572_17272" result="effect3_dropShadow_99572_17272"/>
<feBlend mode="normal" in="SourceGraphic" in2="effect3_dropShadow_99572_17272" result="shape"/>
</filter>
</defs>
</svg>
