<svg width="248" height="246" viewBox="0 0 248 246" fill="none" xmlns="http://www.w3.org/2000/svg">
<g filter="url(#filter0_ddd_99572_17632)">
<circle cx="188.5" cy="59" r="4.5" fill="#D9FFFF"/>
<circle cx="196.5" cy="70" r="4.5" fill="#D9FFFF"/>
<circle cx="202" cy="81.5" r="4.5" fill="#D9FFFF"/>
<circle cx="208.5" cy="94.5" r="4.5" fill="#D9FFFF"/>
<circle cx="213" cy="108.5" r="4.5" fill="#D9FFFF"/>
<circle cx="214" cy="120.5" r="4.5" fill="#D9FFFF"/>
<circle cx="214" cy="135.5" r="4.5" fill="#D9FFFF"/>
<circle cx="210" cy="150.5" r="4.5" fill="#D9FFFF"/>
<circle cx="203.5" cy="164.5" r="4.5" fill="#D9FFFF"/>
<circle cx="196" cy="178" r="4.5" fill="#D9FFFF"/>
<circle cx="186" cy="187" r="4.5" fill="#D9FFFF"/>
<circle cx="175.5" cy="196" r="4.5" fill="#D9FFFF"/>
<circle cx="163" cy="203" r="4.5" fill="#D9FFFF"/>
<circle cx="148.5" cy="208.5" r="4.5" fill="#D9FFFF"/>
<circle cx="133.5" cy="211.5" r="4.5" fill="#D9FFFF"/>
<circle cx="76.5" cy="196.5" r="4.5" fill="#D9FFFF"/>
<circle cx="118.5" cy="212.5" r="4.5" fill="#D9FFFF"/>
<circle cx="102.5" cy="210.5" r="4.5" fill="#D9FFFF"/>
<circle cx="89.5" cy="204.5" r="4.5" fill="#D9FFFF"/>
<circle cx="96.5" cy="39" r="4.5" fill="#D9FFFF"/>
<circle cx="83.5" cy="45.5" r="4.5" fill="#D9FFFF"/>
<circle cx="126.5" cy="33.5" r="4.5" fill="#D9FFFF"/>
<circle cx="126.5" cy="33.5" r="4.5" fill="#D9FFFF"/>
<circle cx="126.5" cy="33.5" r="4.5" fill="#D9FFFF"/>
<circle cx="112.5" cy="35.5" r="4.5" fill="#D9FFFF"/>
<circle cx="140" cy="35.5" r="4.5" fill="#D9FFFF"/>
<circle cx="153.5" cy="39" r="4.5" fill="#D9FFFF"/>
<circle cx="167.5" cy="44" r="4.5" fill="#D9FFFF"/>
<circle cx="177.5" cy="51.5" r="4.5" fill="#D9FFFF"/>
<circle cx="65.0241" cy="190.206" r="4.5" transform="rotate(176.65 65.0241 190.206)" fill="#D9FFFF"/>
<circle cx="56.5094" cy="179.442" r="4.5" transform="rotate(176.65 56.5094 179.442)" fill="#D9FFFF"/>
<circle cx="49.6461" cy="168.016" r="4.5" transform="rotate(176.65 49.6461 168.016)" fill="#D9FFFF"/>
<circle cx="43.3102" cy="155.996" r="4.5" transform="rotate(176.65 43.3102 155.996)" fill="#D9FFFF"/>
<circle cx="38.0319" cy="142.788" r="4.5" transform="rotate(176.65 38.0319 142.788)" fill="#D9FFFF"/>
<circle cx="36.1217" cy="129.384" r="4.5" transform="rotate(176.65 36.1217 129.384)" fill="#D9FFFF"/>
<circle cx="35.2672" cy="114.791" r="4.5" transform="rotate(176.65 35.2672 114.791)" fill="#D9FFFF"/>
<circle cx="38.903" cy="99.9356" r="4.5" transform="rotate(176.65 38.903 99.9356)" fill="#D9FFFF"/>
<circle cx="43.7272" cy="86.1368" r="4.5" transform="rotate(176.65 43.7272 86.1368)" fill="#D9FFFF"/>
<circle cx="50.7643" cy="71.6446" r="4.5" transform="rotate(176.65 50.7643 71.6446)" fill="#D9FFFF"/>
<circle cx="59.2174" cy="60.9493" r="4.5" transform="rotate(176.65 59.2174 60.9493)" fill="#D9FFFF"/>
<circle cx="69.9186" cy="52.5021" r="4.5" transform="rotate(176.65 69.9186 52.5021)" fill="#D9FFFF"/>
<circle cx="181.332" cy="77.4386" r="4.5" transform="rotate(0.726778 181.332 77.4386)" fill="#FFFFC9"/>
<circle cx="191.47" cy="90.4024" r="4.5" transform="rotate(0.726778 191.47 90.4024)" fill="#FFFFC9"/>
<circle cx="194.845" cy="105.621" r="4.5" transform="rotate(0.726778 194.845 105.621)" fill="#FFFFC9"/>
<circle cx="198.234" cy="123.094" r="4.5" transform="rotate(0.726778 198.234 123.094)" fill="#FFFFC9"/>
<circle cx="194.852" cy="138.876" r="4.5" transform="rotate(0.726778 194.852 138.876)" fill="#FFFFC9"/>
<circle cx="189.772" cy="155.229" r="4.5" transform="rotate(0.726778 189.772 155.229)" fill="#FFFFC9"/>
<circle cx="180.663" cy="167.678" r="4.5" transform="rotate(0.726778 180.663 167.678)" fill="#FFFFC9"/>
<circle cx="170.06" cy="178.894" r="4.5" transform="rotate(0.726778 170.06 178.894)" fill="#FFFFC9"/>
<circle cx="157.088" cy="188.482" r="4.5" transform="rotate(0.726778 157.088 188.482)" fill="#FFFFC9"/>
<circle cx="138.488" cy="192.984" r="4.5" transform="rotate(0.726778 138.488 192.984)" fill="#FFFFC9"/>
<circle cx="78.7424" cy="179.457" r="4.5" transform="rotate(0.726778 78.7424 179.457)" fill="#FFFFC9"/>
<circle cx="123.27" cy="194.106" r="4.5" transform="rotate(0.726778 123.27 194.106)" fill="#FFFFC9"/>
<circle cx="107.481" cy="192.414" r="4.5" transform="rotate(0.726778 107.481 192.414)" fill="#FFFFC9"/>
<circle cx="92.2629" cy="187.912" r="4.5" transform="rotate(0.726778 92.2629 187.912)" fill="#FFFFC9"/>
<circle cx="109.736" cy="52.6319" r="4.5" transform="rotate(0.726778 109.736 52.6319)" fill="#FFFFC9"/>
<circle cx="96.7717" cy="58.2755" r="4.5" transform="rotate(0.726778 96.7717 58.2755)" fill="#FFFFC9"/>
<circle cx="125.762" cy="51.9903" r="4.5" transform="rotate(0.726778 125.762 51.9903)" fill="#FFFFC9"/>
<circle cx="125.762" cy="51.9903" r="4.5" transform="rotate(0.726778 125.762 51.9903)" fill="#FFFFC9"/>
<circle cx="143.554" cy="52.6319" r="4.5" transform="rotate(0.726778 143.554 52.6319)" fill="#FFFFC9"/>
<circle cx="157.787" cy="59.1759" r="4.5" transform="rotate(0.726778 157.787 59.1759)" fill="#FFFFC9"/>
<circle cx="171.172" cy="67.294" r="4.5" transform="rotate(0.726778 171.172 67.294)" fill="#FFFFC9"/>
<circle cx="69.4531" cy="167.312" r="4.5" transform="rotate(177.377 69.4531 167.312)" fill="#FFFFC9"/>
<circle cx="60" cy="153.523" r="4.5" transform="rotate(177.377 60 153.523)" fill="#FFFFC9"/>
<circle cx="55.0908" cy="137.9" r="4.5" transform="rotate(177.377 55.0908 137.9)" fill="#FFFFC9"/>
<circle cx="54.3632" cy="121.96" r="4.5" transform="rotate(177.377 54.3632 121.96)" fill="#FFFFC9"/>
<circle cx="56.6181" cy="106.177" r="4.5" transform="rotate(177.377 56.6181 106.177)" fill="#FFFFC9"/>
<circle cx="62.4599" cy="90.529" r="4.5" transform="rotate(177.377 62.4599 90.529)" fill="#FFFFC9"/>
<circle cx="71.2929" cy="76.1891" r="4.5" transform="rotate(177.377 71.2929 76.1891)" fill="#FFFFC9"/>
<circle cx="82.5654" cy="64.9157" r="4.5" transform="rotate(177.377 82.5654 64.9157)" fill="#FFFFC9"/>
<circle cx="155.5" cy="90" r="4.5" fill="#D9FFFF"/>
<circle cx="164.5" cy="101" r="4.5" fill="#D9FFFF"/>
<circle cx="169" cy="117" r="4.5" fill="#D9FFFF"/>
<circle cx="170" cy="131" r="4.5" fill="#D9FFFF"/>
<circle cx="164.5" cy="147" r="4.5" fill="#D9FFFF"/>
<circle cx="153" cy="159" r="4.5" fill="#D9FFFF"/>
<circle cx="138.5" cy="165.5" r="4.5" fill="#D9FFFF"/>
<circle cx="104" cy="163.5" r="4.5" fill="#D9FFFF"/>
<circle cx="122.5" cy="169" r="4.5" fill="#D9FFFF"/>
<circle cx="93" cy="154.5" r="4.5" fill="#D9FFFF"/>
<circle cx="83" cy="141" r="4.5" fill="#D9FFFF"/>
<circle cx="81" cy="126.5" r="4.5" fill="#D9FFFF"/>
<circle cx="81" cy="111.5" r="4.5" fill="#D9FFFF"/>
<circle cx="87.5" cy="98" r="4.5" fill="#D9FFFF"/>
<circle cx="99" cy="87.5" r="4.5" fill="#D9FFFF"/>
<circle cx="112.5" cy="80" r="4.5" fill="#D9FFFF"/>
<circle cx="126.5" cy="79" r="4.5" fill="#D9FFFF"/>
<circle cx="141" cy="83.5" r="4.5" fill="#D9FFFF"/>
</g>
<defs>
<filter id="filter0_ddd_99572_17632" x="0.606445" y="0" width="247.394" height="246" filterUnits="userSpaceOnUse" color-interpolation-filters="sRGB">
<feFlood flood-opacity="0" result="BackgroundImageFix"/>
<feColorMatrix in="SourceAlpha" type="matrix" values="0 0 0 0 0 0 0 0 0 0 0 0 0 0 0 0 0 0 127 0" result="hardAlpha"/>
<feOffset/>
<feGaussianBlur stdDeviation="5"/>
<feComposite in2="hardAlpha" operator="out"/>
<feColorMatrix type="matrix" values="0 0 0 0 1 0 0 0 0 1 0 0 0 0 1 0 0 0 0.23 0"/>
<feBlend mode="normal" in2="BackgroundImageFix" result="effect1_dropShadow_99572_17632"/>
<feColorMatrix in="SourceAlpha" type="matrix" values="0 0 0 0 0 0 0 0 0 0 0 0 0 0 0 0 0 0 127 0" result="hardAlpha"/>
<feOffset/>
<feGaussianBlur stdDeviation="6.5"/>
<feComposite in2="hardAlpha" operator="out"/>
<feColorMatrix type="matrix" values="0 0 0 0 1 0 0 0 0 0.541667 0 0 0 0 0.541667 0 0 0 0.25 0"/>
<feBlend mode="normal" in2="effect1_dropShadow_99572_17632" result="effect2_dropShadow_99572_17632"/>
<feColorMatrix in="SourceAlpha" type="matrix" values="0 0 0 0 0 0 0 0 0 0 0 0 0 0 0 0 0 0 127 0" result="hardAlpha"/>
<feOffset/>
<feGaussianBlur stdDeviation="12"/>
<feComposite in2="hardAlpha" operator="out"/>
<feColorMatrix type="matrix" values="0 0 0 0 1 0 0 0 0 1 0 0 0 0 1 0 0 0 0.45 0"/>
<feBlend mode="normal" in2="effect2_dropShadow_99572_17632" result="effect3_dropShadow_99572_17632"/>
<feBlend mode="normal" in="SourceGraphic" in2="effect3_dropShadow_99572_17632" result="shape"/>
</filter>
</defs>
</svg>
