<svg width="260" height="258" viewBox="0 0 260 258" fill="none" xmlns="http://www.w3.org/2000/svg">
<g filter="url(#filter0_ddd_99572_17992)">
<circle cx="198" cy="61.5" r="4.5" fill="#D9FFFF"/>
<circle cx="207" cy="72.5" r="4.5" fill="#D9FFFF"/>
<circle cx="212.5" cy="85" r="4.5" fill="#D9FFFF"/>
<circle cx="219.5" cy="99" r="4.5" fill="#D9FFFF"/>
<circle cx="224.5" cy="114" r="4.5" fill="#D9FFFF"/>
<circle cx="225.5" cy="126" r="4.5" fill="#D9FFFF"/>
<circle cx="225.5" cy="142" r="4.5" fill="#D9FFFF"/>
<circle cx="221.5" cy="158" r="4.5" fill="#D9FFFF"/>
<circle cx="214" cy="173" r="4.5" fill="#D9FFFF"/>
<circle cx="206.5" cy="187.5" r="4.5" fill="#D9FFFF"/>
<circle cx="195.5" cy="196.5" r="4.5" fill="#D9FFFF"/>
<circle cx="184.5" cy="206.5" r="4.5" fill="#D9FFFF"/>
<circle cx="171.5" cy="213.5" r="4.5" fill="#D9FFFF"/>
<circle cx="156" cy="220" r="4.5" fill="#D9FFFF"/>
<circle cx="140" cy="223" r="4.5" fill="#D9FFFF"/>
<circle cx="80" cy="207" r="4.5" fill="#D9FFFF"/>
<circle cx="124" cy="224" r="4.5" fill="#D9FFFF"/>
<circle cx="107" cy="222" r="4.5" fill="#D9FFFF"/>
<circle cx="93" cy="215.5" r="4.5" fill="#D9FFFF"/>
<circle cx="101" cy="40" r="4.5" fill="#D9FFFF"/>
<circle cx="87" cy="47" r="4.5" fill="#D9FFFF"/>
<circle cx="133" cy="34" r="4.5" fill="#D9FFFF"/>
<circle cx="133" cy="34" r="4.5" fill="#D9FFFF"/>
<circle cx="133" cy="34" r="4.5" fill="#D9FFFF"/>
<circle cx="118" cy="36" r="4.5" fill="#D9FFFF"/>
<circle cx="147" cy="36" r="4.5" fill="#D9FFFF"/>
<circle cx="161" cy="40" r="4.5" fill="#D9FFFF"/>
<circle cx="176" cy="45.5" r="4.5" fill="#D9FFFF"/>
<circle cx="187" cy="53" r="4.5" fill="#D9FFFF"/>
<circle cx="67.4323" cy="200.279" r="4.5" transform="rotate(176.65 67.4323 200.279)" fill="#D9FFFF"/>
<circle cx="58.402" cy="188.861" r="4.5" transform="rotate(176.65 58.402 188.861)" fill="#D9FFFF"/>
<circle cx="51.1217" cy="176.743" r="4.5" transform="rotate(176.65 51.1217 176.743)" fill="#D9FFFF"/>
<circle cx="44.403" cy="163.995" r="4.5" transform="rotate(176.65 44.403 163.995)" fill="#D9FFFF"/>
<circle cx="38.8043" cy="149.987" r="4.5" transform="rotate(176.65 38.8043 149.987)" fill="#D9FFFF"/>
<circle cx="36.778" cy="135.771" r="4.5" transform="rotate(176.65 36.778 135.771)" fill="#D9FFFF"/>
<circle cx="35.8717" cy="120.293" r="4.5" transform="rotate(176.65 35.8717 120.293)" fill="#D9FFFF"/>
<circle cx="39.7282" cy="104.537" r="4.5" transform="rotate(176.65 39.7282 104.537)" fill="#D9FFFF"/>
<circle cx="44.8444" cy="89.9015" r="4.5" transform="rotate(176.65 44.8444 89.9015)" fill="#D9FFFF"/>
<circle cx="52.3073" cy="74.5323" r="4.5" transform="rotate(176.65 52.3073 74.5323)" fill="#D9FFFF"/>
<circle cx="61.2721" cy="63.1886" r="4.5" transform="rotate(176.65 61.2721 63.1886)" fill="#D9FFFF"/>
<circle cx="72.6227" cy="54.2296" r="4.5" transform="rotate(176.65 72.6227 54.2296)" fill="#D9FFFF"/>
<circle cx="190.826" cy="80.5538" r="4.5" transform="rotate(0.726778 190.826 80.5538)" fill="#FFFFC9"/>
<circle cx="201.607" cy="94.338" r="4.5" transform="rotate(0.726778 201.607 94.338)" fill="#FFFFC9"/>
<circle cx="205.194" cy="110.519" r="4.5" transform="rotate(0.726778 205.194 110.519)" fill="#FFFFC9"/>
<circle cx="208.798" cy="129.098" r="4.5" transform="rotate(0.726778 208.798 129.098)" fill="#FFFFC9"/>
<circle cx="205.202" cy="145.877" r="4.5" transform="rotate(0.726778 205.202 145.877)" fill="#FFFFC9"/>
<circle cx="199.801" cy="163.265" r="4.5" transform="rotate(0.726778 199.801 163.265)" fill="#FFFFC9"/>
<circle cx="190.115" cy="176.502" r="4.5" transform="rotate(0.726778 190.115 176.502)" fill="#FFFFC9"/>
<circle cx="178.841" cy="188.427" r="4.5" transform="rotate(0.726778 178.841 188.427)" fill="#FFFFC9"/>
<circle cx="165.049" cy="198.622" r="4.5" transform="rotate(0.726778 165.049 198.622)" fill="#FFFFC9"/>
<circle cx="145.273" cy="203.409" r="4.5" transform="rotate(0.726778 145.273 203.409)" fill="#FFFFC9"/>
<circle cx="81.7482" cy="189.026" r="4.5" transform="rotate(0.726778 81.7482 189.026)" fill="#FFFFC9"/>
<circle cx="129.092" cy="204.601" r="4.5" transform="rotate(0.726778 129.092 204.601)" fill="#FFFFC9"/>
<circle cx="112.304" cy="202.802" r="4.5" transform="rotate(0.726778 112.304 202.802)" fill="#FFFFC9"/>
<circle cx="96.1232" cy="198.016" r="4.5" transform="rotate(0.726778 96.1232 198.016)" fill="#FFFFC9"/>
<circle cx="114.701" cy="54.1778" r="4.5" transform="rotate(0.726778 114.701 54.1778)" fill="#FFFFC9"/>
<circle cx="100.917" cy="60.1788" r="4.5" transform="rotate(0.726778 100.917 60.1788)" fill="#FFFFC9"/>
<circle cx="131.742" cy="53.4962" r="4.5" transform="rotate(0.726778 131.742 53.4962)" fill="#FFFFC9"/>
<circle cx="131.742" cy="53.4962" r="4.5" transform="rotate(0.726778 131.742 53.4962)" fill="#FFFFC9"/>
<circle cx="150.659" cy="54.1778" r="4.5" transform="rotate(0.726778 150.659 54.1778)" fill="#FFFFC9"/>
<circle cx="165.792" cy="61.1348" r="4.5" transform="rotate(0.726778 165.792 61.1348)" fill="#FFFFC9"/>
<circle cx="180.024" cy="69.7667" r="4.5" transform="rotate(0.726778 180.024 69.7667)" fill="#FFFFC9"/>
<circle cx="71.8711" cy="176.113" r="4.5" transform="rotate(177.377 71.8711 176.113)" fill="#FFFFC9"/>
<circle cx="61.8193" cy="161.452" r="4.5" transform="rotate(177.377 61.8193 161.452)" fill="#FFFFC9"/>
<circle cx="56.5996" cy="144.84" r="4.5" transform="rotate(177.377 56.5996 144.84)" fill="#FFFFC9"/>
<circle cx="55.8261" cy="127.891" r="4.5" transform="rotate(177.377 55.8261 127.891)" fill="#FFFFC9"/>
<circle cx="58.2236" cy="111.111" r="4.5" transform="rotate(177.377 58.2236 111.111)" fill="#FFFFC9"/>
<circle cx="64.4345" cy="94.4724" r="4.5" transform="rotate(177.377 64.4345 94.4724)" fill="#FFFFC9"/>
<circle cx="73.8261" cy="79.2253" r="4.5" transform="rotate(177.377 73.8261 79.2253)" fill="#FFFFC9"/>
<circle cx="85.8115" cy="67.239" r="4.5" transform="rotate(177.377 85.8115 67.239)" fill="#FFFFC9"/>
<circle cx="162.5" cy="94.5" r="4.5" fill="#D9FFFF"/>
<circle cx="172" cy="106" r="4.5" fill="#D9FFFF"/>
<circle cx="177" cy="123" r="4.5" fill="#D9FFFF"/>
<circle cx="178" cy="137" r="4.5" fill="#D9FFFF"/>
<circle cx="172" cy="154" r="4.5" fill="#D9FFFF"/>
<circle cx="160" cy="166.5" r="4.5" fill="#D9FFFF"/>
<circle cx="145" cy="173" r="4.5" fill="#D9FFFF"/>
<circle cx="109" cy="171" r="4.5" fill="#D9FFFF"/>
<circle cx="128.5" cy="177" r="4.5" fill="#D9FFFF"/>
<circle cx="98" cy="161.5" r="4.5" fill="#D9FFFF"/>
<circle cx="87" cy="147.5" r="4.5" fill="#D9FFFF"/>
<circle cx="85" cy="132.5" r="4.5" fill="#D9FFFF"/>
<circle cx="85" cy="117" r="4.5" fill="#D9FFFF"/>
<circle cx="92" cy="103" r="4.5" fill="#D9FFFF"/>
<circle cx="104" cy="92" r="4.5" fill="#D9FFFF"/>
<circle cx="118" cy="84" r="4.5" fill="#D9FFFF"/>
<circle cx="132.5" cy="83" r="4.5" fill="#D9FFFF"/>
<circle cx="147.5" cy="88" r="4.5" fill="#D9FFFF"/>
</g>
<defs>
<filter id="filter0_ddd_99572_17992" x="0.564453" y="0" width="259.436" height="258" filterUnits="userSpaceOnUse" color-interpolation-filters="sRGB">
<feFlood flood-opacity="0" result="BackgroundImageFix"/>
<feColorMatrix in="SourceAlpha" type="matrix" values="0 0 0 0 0 0 0 0 0 0 0 0 0 0 0 0 0 0 127 0" result="hardAlpha"/>
<feOffset/>
<feGaussianBlur stdDeviation="5"/>
<feComposite in2="hardAlpha" operator="out"/>
<feColorMatrix type="matrix" values="0 0 0 0 1 0 0 0 0 1 0 0 0 0 1 0 0 0 0.23 0"/>
<feBlend mode="normal" in2="BackgroundImageFix" result="effect1_dropShadow_99572_17992"/>
<feColorMatrix in="SourceAlpha" type="matrix" values="0 0 0 0 0 0 0 0 0 0 0 0 0 0 0 0 0 0 127 0" result="hardAlpha"/>
<feOffset/>
<feGaussianBlur stdDeviation="6.5"/>
<feComposite in2="hardAlpha" operator="out"/>
<feColorMatrix type="matrix" values="0 0 0 0 1 0 0 0 0 0.541667 0 0 0 0 0.541667 0 0 0 0.25 0"/>
<feBlend mode="normal" in2="effect1_dropShadow_99572_17992" result="effect2_dropShadow_99572_17992"/>
<feColorMatrix in="SourceAlpha" type="matrix" values="0 0 0 0 0 0 0 0 0 0 0 0 0 0 0 0 0 0 127 0" result="hardAlpha"/>
<feOffset/>
<feGaussianBlur stdDeviation="12"/>
<feComposite in2="hardAlpha" operator="out"/>
<feColorMatrix type="matrix" values="0 0 0 0 1 0 0 0 0 1 0 0 0 0 1 0 0 0 0.45 0"/>
<feBlend mode="normal" in2="effect2_dropShadow_99572_17992" result="effect3_dropShadow_99572_17992"/>
<feBlend mode="normal" in="SourceGraphic" in2="effect3_dropShadow_99572_17992" result="shape"/>
</filter>
</defs>
</svg>
