<svg width="270" height="268" viewBox="0 0 270 268" fill="none" xmlns="http://www.w3.org/2000/svg">
<g filter="url(#filter0_ddd_99572_18352)">
<circle cx="206.5" cy="63" r="4.5" fill="#D9FFFF"/>
<circle cx="215.5" cy="75" r="4.5" fill="#D9FFFF"/>
<circle cx="221" cy="87.5" r="4.5" fill="#D9FFFF"/>
<circle cx="229" cy="102.5" r="4.5" fill="#D9FFFF"/>
<circle cx="234" cy="118.5" r="4.5" fill="#D9FFFF"/>
<circle cx="235" cy="130.5" r="4.5" fill="#D9FFFF"/>
<circle cx="235" cy="147.5" r="4.5" fill="#D9FFFF"/>
<circle cx="231" cy="164.5" r="4.5" fill="#D9FFFF"/>
<circle cx="223" cy="180.5" r="4.5" fill="#D9FFFF"/>
<circle cx="215" cy="195" r="4.5" fill="#D9FFFF"/>
<circle cx="204" cy="205" r="4.5" fill="#D9FFFF"/>
<circle cx="192" cy="215" r="4.5" fill="#D9FFFF"/>
<circle cx="178" cy="223" r="4.5" fill="#D9FFFF"/>
<circle cx="162.5" cy="229.5" r="4.5" fill="#D9FFFF"/>
<circle cx="145.5" cy="232.5" r="4.5" fill="#D9FFFF"/>
<circle cx="82.5" cy="215.5" r="4.5" fill="#D9FFFF"/>
<circle cx="128.5" cy="233.5" r="4.5" fill="#D9FFFF"/>
<circle cx="110.5" cy="231.5" r="4.5" fill="#D9FFFF"/>
<circle cx="96.5" cy="225" r="4.5" fill="#D9FFFF"/>
<circle cx="104.5" cy="40.5" r="4.5" fill="#D9FFFF"/>
<circle cx="89.5" cy="48.5" r="4.5" fill="#D9FFFF"/>
<circle cx="138.5" cy="34.5" r="4.5" fill="#D9FFFF"/>
<circle cx="138.5" cy="34.5" r="4.5" fill="#D9FFFF"/>
<circle cx="138.5" cy="34.5" r="4.5" fill="#D9FFFF"/>
<circle cx="122.5" cy="36.5" r="4.5" fill="#D9FFFF"/>
<circle cx="152.5" cy="36.5" r="4.5" fill="#D9FFFF"/>
<circle cx="167.5" cy="40.5" r="4.5" fill="#D9FFFF"/>
<circle cx="183.5" cy="46.5" r="4.5" fill="#D9FFFF"/>
<circle cx="194.5" cy="54.5" r="4.5" fill="#D9FFFF"/>
<circle cx="69.4401" cy="208.674" r="4.5" transform="rotate(176.65 69.4401 208.674)" fill="#D9FFFF"/>
<circle cx="59.9791" cy="196.712" r="4.5" transform="rotate(176.65 59.9791 196.712)" fill="#D9FFFF"/>
<circle cx="52.3522" cy="184.018" r="4.5" transform="rotate(176.65 52.3522 184.018)" fill="#D9FFFF"/>
<circle cx="45.3121" cy="170.663" r="4.5" transform="rotate(176.65 45.3121 170.663)" fill="#D9FFFF"/>
<circle cx="39.4479" cy="155.987" r="4.5" transform="rotate(176.65 39.4479 155.987)" fill="#D9FFFF"/>
<circle cx="37.3248" cy="141.094" r="4.5" transform="rotate(176.65 37.3248 141.094)" fill="#D9FFFF"/>
<circle cx="36.3756" cy="124.879" r="4.5" transform="rotate(176.65 36.3756 124.879)" fill="#D9FFFF"/>
<circle cx="40.4157" cy="108.373" r="4.5" transform="rotate(176.65 40.4157 108.373)" fill="#D9FFFF"/>
<circle cx="45.776" cy="93.0411" r="4.5" transform="rotate(176.65 45.776 93.0411)" fill="#D9FFFF"/>
<circle cx="53.5944" cy="76.9386" r="4.5" transform="rotate(176.65 53.5944 76.9386)" fill="#D9FFFF"/>
<circle cx="62.986" cy="65.0548" r="4.5" transform="rotate(176.65 62.986 65.0548)" fill="#D9FFFF"/>
<circle cx="74.8766" cy="55.669" r="4.5" transform="rotate(176.65 74.8766 55.669)" fill="#D9FFFF"/>
<circle cx="197.224" cy="84.4005" r="4.5" transform="rotate(0.726778 197.224 84.4005)" fill="#FFFFC9"/>
<circle cx="208.26" cy="98.5128" r="4.5" transform="rotate(0.726778 208.26 98.5128)" fill="#FFFFC9"/>
<circle cx="211.934" cy="115.078" r="4.5" transform="rotate(0.726778 211.934 115.078)" fill="#FFFFC9"/>
<circle cx="215.622" cy="134.099" r="4.5" transform="rotate(0.726778 215.622 134.099)" fill="#FFFFC9"/>
<circle cx="211.942" cy="151.278" r="4.5" transform="rotate(0.726778 211.942 151.278)" fill="#FFFFC9"/>
<circle cx="206.412" cy="169.078" r="4.5" transform="rotate(0.726778 206.412 169.078)" fill="#FFFFC9"/>
<circle cx="196.495" cy="182.631" r="4.5" transform="rotate(0.726778 196.495 182.631)" fill="#FFFFC9"/>
<circle cx="184.952" cy="194.84" r="4.5" transform="rotate(0.726778 184.952 194.84)" fill="#FFFFC9"/>
<circle cx="170.834" cy="205.278" r="4.5" transform="rotate(0.726778 170.834 205.278)" fill="#FFFFC9"/>
<circle cx="150.586" cy="210.179" r="4.5" transform="rotate(0.726778 150.586 210.179)" fill="#FFFFC9"/>
<circle cx="85.549" cy="195.454" r="4.5" transform="rotate(0.726778 85.549 195.454)" fill="#FFFFC9"/>
<circle cx="134.02" cy="211.399" r="4.5" transform="rotate(0.726778 134.02 211.399)" fill="#FFFFC9"/>
<circle cx="116.833" cy="209.557" r="4.5" transform="rotate(0.726778 116.833 209.557)" fill="#FFFFC9"/>
<circle cx="100.267" cy="204.656" r="4.5" transform="rotate(0.726778 100.267 204.656)" fill="#FFFFC9"/>
<circle cx="119.287" cy="57.3956" r="4.5" transform="rotate(0.726778 119.287 57.3956)" fill="#FFFFC9"/>
<circle cx="105.175" cy="63.5391" r="4.5" transform="rotate(0.726778 105.175 63.5391)" fill="#FFFFC9"/>
<circle cx="136.733" cy="56.6983" r="4.5" transform="rotate(0.726778 136.733 56.6983)" fill="#FFFFC9"/>
<circle cx="136.733" cy="56.6983" r="4.5" transform="rotate(0.726778 136.733 56.6983)" fill="#FFFFC9"/>
<circle cx="156.101" cy="57.3956" r="4.5" transform="rotate(0.726778 156.101 57.3956)" fill="#FFFFC9"/>
<circle cx="171.594" cy="64.5196" r="4.5" transform="rotate(0.726778 171.594 64.5196)" fill="#FFFFC9"/>
<circle cx="186.164" cy="73.3565" r="4.5" transform="rotate(0.726778 186.164 73.3565)" fill="#FFFFC9"/>
<circle cx="75.4375" cy="182.233" r="4.5" transform="rotate(177.377 75.4375 182.233)" fill="#FFFFC9"/>
<circle cx="65.1465" cy="167.222" r="4.5" transform="rotate(177.377 65.1465 167.222)" fill="#FFFFC9"/>
<circle cx="59.8027" cy="150.216" r="4.5" transform="rotate(177.377 59.8027 150.216)" fill="#FFFFC9"/>
<circle cx="59.0107" cy="132.864" r="4.5" transform="rotate(177.377 59.0107 132.864)" fill="#FFFFC9"/>
<circle cx="61.4648" cy="115.684" r="4.5" transform="rotate(177.377 61.4648 115.684)" fill="#FFFFC9"/>
<circle cx="67.8252" cy="98.6501" r="4.5" transform="rotate(177.377 67.8252 98.6501)" fill="#FFFFC9"/>
<circle cx="77.4394" cy="83.0397" r="4.5" transform="rotate(177.377 77.4394 83.0397)" fill="#FFFFC9"/>
<circle cx="89.7109" cy="70.7692" r="4.5" transform="rotate(177.377 89.7109 70.7692)" fill="#FFFFC9"/>
<circle cx="168.5" cy="98" r="4.5" fill="#D9FFFF"/>
<circle cx="178.5" cy="110" r="4.5" fill="#D9FFFF"/>
<circle cx="184" cy="128" r="4.5" fill="#D9FFFF"/>
<circle cx="185" cy="142" r="4.5" fill="#D9FFFF"/>
<circle cx="178.5" cy="160" r="4.5" fill="#D9FFFF"/>
<circle cx="166" cy="173" r="4.5" fill="#D9FFFF"/>
<circle cx="150.5" cy="179.5" r="4.5" fill="#D9FFFF"/>
<circle cx="113" cy="177.5" r="4.5" fill="#D9FFFF"/>
<circle cx="133.5" cy="184" r="4.5" fill="#D9FFFF"/>
<circle cx="102" cy="167.5" r="4.5" fill="#D9FFFF"/>
<circle cx="90" cy="153" r="4.5" fill="#D9FFFF"/>
<circle cx="88" cy="137.5" r="4.5" fill="#D9FFFF"/>
<circle cx="88" cy="121.5" r="4.5" fill="#D9FFFF"/>
<circle cx="95.5" cy="107" r="4.5" fill="#D9FFFF"/>
<circle cx="108" cy="95.5" r="4.5" fill="#D9FFFF"/>
<circle cx="122.5" cy="87" r="4.5" fill="#D9FFFF"/>
<circle cx="137.5" cy="86" r="4.5" fill="#D9FFFF"/>
<circle cx="153" cy="91.5" r="4.5" fill="#D9FFFF"/>
</g>
<defs>
<filter id="filter0_ddd_99572_18352" x="0.530273" y="0" width="269.47" height="268" filterUnits="userSpaceOnUse" color-interpolation-filters="sRGB">
<feFlood flood-opacity="0" result="BackgroundImageFix"/>
<feColorMatrix in="SourceAlpha" type="matrix" values="0 0 0 0 0 0 0 0 0 0 0 0 0 0 0 0 0 0 127 0" result="hardAlpha"/>
<feOffset/>
<feGaussianBlur stdDeviation="5"/>
<feComposite in2="hardAlpha" operator="out"/>
<feColorMatrix type="matrix" values="0 0 0 0 1 0 0 0 0 1 0 0 0 0 1 0 0 0 0.23 0"/>
<feBlend mode="normal" in2="BackgroundImageFix" result="effect1_dropShadow_99572_18352"/>
<feColorMatrix in="SourceAlpha" type="matrix" values="0 0 0 0 0 0 0 0 0 0 0 0 0 0 0 0 0 0 127 0" result="hardAlpha"/>
<feOffset/>
<feGaussianBlur stdDeviation="6.5"/>
<feComposite in2="hardAlpha" operator="out"/>
<feColorMatrix type="matrix" values="0 0 0 0 1 0 0 0 0 0.541667 0 0 0 0 0.541667 0 0 0 0.25 0"/>
<feBlend mode="normal" in2="effect1_dropShadow_99572_18352" result="effect2_dropShadow_99572_18352"/>
<feColorMatrix in="SourceAlpha" type="matrix" values="0 0 0 0 0 0 0 0 0 0 0 0 0 0 0 0 0 0 127 0" result="hardAlpha"/>
<feOffset/>
<feGaussianBlur stdDeviation="12"/>
<feComposite in2="hardAlpha" operator="out"/>
<feColorMatrix type="matrix" values="0 0 0 0 1 0 0 0 0 1 0 0 0 0 1 0 0 0 0.45 0"/>
<feBlend mode="normal" in2="effect2_dropShadow_99572_18352" result="effect3_dropShadow_99572_18352"/>
<feBlend mode="normal" in="SourceGraphic" in2="effect3_dropShadow_99572_18352" result="shape"/>
</filter>
</defs>
</svg>
