<svg width="282" height="280" viewBox="0 0 282 280" fill="none" xmlns="http://www.w3.org/2000/svg">
<g filter="url(#filter0_ddd_99572_18712)">
<circle cx="216" cy="65.5" r="4.5" fill="#D9FFFF"/>
<circle cx="226" cy="77.5" r="4.5" fill="#D9FFFF"/>
<circle cx="231.5" cy="91" r="4.5" fill="#D9FFFF"/>
<circle cx="240" cy="107" r="4.5" fill="#D9FFFF"/>
<circle cx="245.5" cy="124" r="4.5" fill="#D9FFFF"/>
<circle cx="246.5" cy="136" r="4.5" fill="#D9FFFF"/>
<circle cx="246.5" cy="154" r="4.5" fill="#D9FFFF"/>
<circle cx="242.5" cy="172" r="4.5" fill="#D9FFFF"/>
<circle cx="233.5" cy="189" r="4.5" fill="#D9FFFF"/>
<circle cx="225.5" cy="204.5" r="4.5" fill="#D9FFFF"/>
<circle cx="213.5" cy="214.5" r="4.5" fill="#D9FFFF"/>
<circle cx="201" cy="225.5" r="4.5" fill="#D9FFFF"/>
<circle cx="186.5" cy="233.5" r="4.5" fill="#D9FFFF"/>
<circle cx="170" cy="241" r="4.5" fill="#D9FFFF"/>
<circle cx="152" cy="244" r="4.5" fill="#D9FFFF"/>
<circle cx="86" cy="226" r="4.5" fill="#D9FFFF"/>
<circle cx="134" cy="245" r="4.5" fill="#D9FFFF"/>
<circle cx="115" cy="243" r="4.5" fill="#D9FFFF"/>
<circle cx="100" cy="236" r="4.5" fill="#D9FFFF"/>
<circle cx="109" cy="41.5" r="4.5" fill="#D9FFFF"/>
<circle cx="93" cy="50" r="4.5" fill="#D9FFFF"/>
<circle cx="145" cy="35" r="4.5" fill="#D9FFFF"/>
<circle cx="145" cy="35" r="4.5" fill="#D9FFFF"/>
<circle cx="145" cy="35" r="4.5" fill="#D9FFFF"/>
<circle cx="128" cy="37" r="4.5" fill="#D9FFFF"/>
<circle cx="159.5" cy="37" r="4.5" fill="#D9FFFF"/>
<circle cx="175" cy="41.5" r="4.5" fill="#D9FFFF"/>
<circle cx="192" cy="48" r="4.5" fill="#D9FFFF"/>
<circle cx="204" cy="56" r="4.5" fill="#D9FFFF"/>
<circle cx="71.8493" cy="218.746" r="4.5" transform="rotate(176.65 71.8493 218.746)" fill="#D9FFFF"/>
<circle cx="61.8727" cy="206.132" r="4.5" transform="rotate(176.65 61.8727 206.132)" fill="#D9FFFF"/>
<circle cx="53.8297" cy="192.745" r="4.5" transform="rotate(176.65 53.8297 192.745)" fill="#D9FFFF"/>
<circle cx="46.4069" cy="178.662" r="4.5" transform="rotate(176.65 46.4069 178.662)" fill="#D9FFFF"/>
<circle cx="40.2223" cy="163.187" r="4.5" transform="rotate(176.65 40.2223 163.187)" fill="#D9FFFF"/>
<circle cx="37.983" cy="147.48" r="4.5" transform="rotate(176.65 37.983 147.48)" fill="#D9FFFF"/>
<circle cx="36.9821" cy="130.381" r="4.5" transform="rotate(176.65 36.9821 130.381)" fill="#D9FFFF"/>
<circle cx="41.2428" cy="112.975" r="4.5" transform="rotate(176.65 41.2428 112.975)" fill="#D9FFFF"/>
<circle cx="46.8952" cy="96.8067" r="4.5" transform="rotate(176.65 46.8952 96.8067)" fill="#D9FFFF"/>
<circle cx="55.1393" cy="79.8263" r="4.5" transform="rotate(176.65 55.1393 79.8263)" fill="#D9FFFF"/>
<circle cx="65.0436" cy="67.294" r="4.5" transform="rotate(176.65 65.0436 67.294)" fill="#D9FFFF"/>
<circle cx="77.5827" cy="57.3966" r="4.5" transform="rotate(176.65 77.5827 57.3966)" fill="#D9FFFF"/>
<circle cx="206.449" cy="87.7374" r="4.5" transform="rotate(0.726778 206.449 87.7374)" fill="#FFFFC9"/>
<circle cx="218.077" cy="102.606" r="4.5" transform="rotate(0.726778 218.077 102.606)" fill="#FFFFC9"/>
<circle cx="221.948" cy="120.061" r="4.5" transform="rotate(0.726778 221.948 120.061)" fill="#FFFFC9"/>
<circle cx="225.835" cy="140.101" r="4.5" transform="rotate(0.726778 225.835 140.101)" fill="#FFFFC9"/>
<circle cx="221.956" cy="158.201" r="4.5" transform="rotate(0.726778 221.956 158.201)" fill="#FFFFC9"/>
<circle cx="216.131" cy="176.958" r="4.5" transform="rotate(0.726778 216.131 176.958)" fill="#FFFFC9"/>
<circle cx="205.683" cy="191.236" r="4.5" transform="rotate(0.726778 205.683 191.236)" fill="#FFFFC9"/>
<circle cx="193.521" cy="204.101" r="4.5" transform="rotate(0.726778 193.521 204.101)" fill="#FFFFC9"/>
<circle cx="178.644" cy="215.099" r="4.5" transform="rotate(0.726778 178.644 215.099)" fill="#FFFFC9"/>
<circle cx="157.311" cy="220.262" r="4.5" transform="rotate(0.726778 157.311 220.262)" fill="#FFFFC9"/>
<circle cx="88.7853" cy="204.747" r="4.5" transform="rotate(0.726778 88.7853 204.747)" fill="#FFFFC9"/>
<circle cx="139.856" cy="221.547" r="4.5" transform="rotate(0.726778 139.856 221.547)" fill="#FFFFC9"/>
<circle cx="121.747" cy="219.607" r="4.5" transform="rotate(0.726778 121.747 219.607)" fill="#FFFFC9"/>
<circle cx="104.293" cy="214.443" r="4.5" transform="rotate(0.726778 104.293 214.443)" fill="#FFFFC9"/>
<circle cx="124.333" cy="59.2852" r="4.5" transform="rotate(0.726778 124.333 59.2852)" fill="#FFFFC9"/>
<circle cx="109.465" cy="65.7579" r="4.5" transform="rotate(0.726778 109.465 65.7579)" fill="#FFFFC9"/>
<circle cx="142.714" cy="58.5489" r="4.5" transform="rotate(0.726778 142.714 58.5489)" fill="#FFFFC9"/>
<circle cx="142.714" cy="58.5489" r="4.5" transform="rotate(0.726778 142.714 58.5489)" fill="#FFFFC9"/>
<circle cx="163.12" cy="59.2852" r="4.5" transform="rotate(0.726778 163.12 59.2852)" fill="#FFFFC9"/>
<circle cx="179.445" cy="66.7901" r="4.5" transform="rotate(0.726778 179.445 66.7901)" fill="#FFFFC9"/>
<circle cx="194.797" cy="76.1007" r="4.5" transform="rotate(0.726778 194.797 76.1007)" fill="#FFFFC9"/>
<circle cx="78.1318" cy="190.818" r="4.5" transform="rotate(177.377 78.1318 190.818)" fill="#FFFFC9"/>
<circle cx="67.2881" cy="175.002" r="4.5" transform="rotate(177.377 67.2881 175.002)" fill="#FFFFC9"/>
<circle cx="61.6582" cy="157.083" r="4.5" transform="rotate(177.377 61.6582 157.083)" fill="#FFFFC9"/>
<circle cx="60.8232" cy="138.8" r="4.5" transform="rotate(177.377 60.8232 138.8)" fill="#FFFFC9"/>
<circle cx="63.4091" cy="120.699" r="4.5" transform="rotate(177.377 63.4091 120.699)" fill="#FFFFC9"/>
<circle cx="70.1093" cy="102.752" r="4.5" transform="rotate(177.377 70.1093 102.752)" fill="#FFFFC9"/>
<circle cx="80.2412" cy="86.3044" r="4.5" transform="rotate(177.377 80.2412 86.3044)" fill="#FFFFC9"/>
<circle cx="93.1699" cy="73.3747" r="4.5" transform="rotate(177.377 93.1699 73.3747)" fill="#FFFFC9"/>
<circle cx="175.5" cy="102.5" r="4.5" fill="#D9FFFF"/>
<circle cx="186" cy="115" r="4.5" fill="#D9FFFF"/>
<circle cx="192" cy="134" r="4.5" fill="#D9FFFF"/>
<circle cx="193" cy="148" r="4.5" fill="#D9FFFF"/>
<circle cx="186" cy="167" r="4.5" fill="#D9FFFF"/>
<circle cx="173" cy="180.5" r="4.5" fill="#D9FFFF"/>
<circle cx="157" cy="187" r="4.5" fill="#D9FFFF"/>
<circle cx="118" cy="185" r="4.5" fill="#D9FFFF"/>
<circle cx="139.5" cy="192" r="4.5" fill="#D9FFFF"/>
<circle cx="107" cy="174.5" r="4.5" fill="#D9FFFF"/>
<circle cx="94" cy="159.5" r="4.5" fill="#D9FFFF"/>
<circle cx="92" cy="143.5" r="4.5" fill="#D9FFFF"/>
<circle cx="92" cy="127" r="4.5" fill="#D9FFFF"/>
<circle cx="100" cy="112" r="4.5" fill="#D9FFFF"/>
<circle cx="113" cy="100" r="4.5" fill="#D9FFFF"/>
<circle cx="128" cy="91" r="4.5" fill="#D9FFFF"/>
<circle cx="143.5" cy="90" r="4.5" fill="#D9FFFF"/>
<circle cx="159.5" cy="96" r="4.5" fill="#D9FFFF"/>
</g>
<defs>
<filter id="filter0_ddd_99572_18712" x="0.490234" y="0" width="281.51" height="280" filterUnits="userSpaceOnUse" color-interpolation-filters="sRGB">
<feFlood flood-opacity="0" result="BackgroundImageFix"/>
<feColorMatrix in="SourceAlpha" type="matrix" values="0 0 0 0 0 0 0 0 0 0 0 0 0 0 0 0 0 0 127 0" result="hardAlpha"/>
<feOffset/>
<feGaussianBlur stdDeviation="5"/>
<feComposite in2="hardAlpha" operator="out"/>
<feColorMatrix type="matrix" values="0 0 0 0 1 0 0 0 0 1 0 0 0 0 1 0 0 0 0.23 0"/>
<feBlend mode="normal" in2="BackgroundImageFix" result="effect1_dropShadow_99572_18712"/>
<feColorMatrix in="SourceAlpha" type="matrix" values="0 0 0 0 0 0 0 0 0 0 0 0 0 0 0 0 0 0 127 0" result="hardAlpha"/>
<feOffset/>
<feGaussianBlur stdDeviation="6.5"/>
<feComposite in2="hardAlpha" operator="out"/>
<feColorMatrix type="matrix" values="0 0 0 0 1 0 0 0 0 0.541667 0 0 0 0 0.541667 0 0 0 0.25 0"/>
<feBlend mode="normal" in2="effect1_dropShadow_99572_18712" result="effect2_dropShadow_99572_18712"/>
<feColorMatrix in="SourceAlpha" type="matrix" values="0 0 0 0 0 0 0 0 0 0 0 0 0 0 0 0 0 0 127 0" result="hardAlpha"/>
<feOffset/>
<feGaussianBlur stdDeviation="12"/>
<feComposite in2="hardAlpha" operator="out"/>
<feColorMatrix type="matrix" values="0 0 0 0 1 0 0 0 0 1 0 0 0 0 1 0 0 0 0.45 0"/>
<feBlend mode="normal" in2="effect2_dropShadow_99572_18712" result="effect3_dropShadow_99572_18712"/>
<feBlend mode="normal" in="SourceGraphic" in2="effect3_dropShadow_99572_18712" result="shape"/>
</filter>
</defs>
</svg>
