<svg width="290" height="288" viewBox="0 0 290 288" fill="none" xmlns="http://www.w3.org/2000/svg">
<g filter="url(#filter0_ddd_99572_19072)">
<circle cx="222.5" cy="67" r="4.5" fill="#D9FFFF"/>
<circle cx="233" cy="79" r="4.5" fill="#D9FFFF"/>
<circle cx="239" cy="93.5" r="4.5" fill="#D9FFFF"/>
<circle cx="247.5" cy="109.5" r="4.5" fill="#D9FFFF"/>
<circle cx="253" cy="127.5" r="4.5" fill="#D9FFFF"/>
<circle cx="254" cy="139.5" r="4.5" fill="#D9FFFF"/>
<circle cx="254" cy="158.5" r="4.5" fill="#D9FFFF"/>
<circle cx="250" cy="177" r="4.5" fill="#D9FFFF"/>
<circle cx="241" cy="194.5" r="4.5" fill="#D9FFFF"/>
<circle cx="232.5" cy="211" r="4.5" fill="#D9FFFF"/>
<circle cx="220" cy="221" r="4.5" fill="#D9FFFF"/>
<circle cx="207.5" cy="232.5" r="4.5" fill="#D9FFFF"/>
<circle cx="192" cy="241" r="4.5" fill="#D9FFFF"/>
<circle cx="175" cy="248.5" r="4.5" fill="#D9FFFF"/>
<circle cx="156.5" cy="251.5" r="4.5" fill="#D9FFFF"/>
<circle cx="88" cy="233" r="4.5" fill="#D9FFFF"/>
<circle cx="137.5" cy="252.5" r="4.5" fill="#D9FFFF"/>
<circle cx="118" cy="250.5" r="4.5" fill="#D9FFFF"/>
<circle cx="102.5" cy="243.5" r="4.5" fill="#D9FFFF"/>
<circle cx="112" cy="42" r="4.5" fill="#D9FFFF"/>
<circle cx="95.5" cy="51" r="4.5" fill="#D9FFFF"/>
<circle cx="149.5" cy="35.5" r="4.5" fill="#D9FFFF"/>
<circle cx="149.5" cy="35.5" r="4.5" fill="#D9FFFF"/>
<circle cx="149.5" cy="35.5" r="4.5" fill="#D9FFFF"/>
<circle cx="131.5" cy="37.5" r="4.5" fill="#D9FFFF"/>
<circle cx="164" cy="37.5" r="4.5" fill="#D9FFFF"/>
<circle cx="180.5" cy="42" r="4.5" fill="#D9FFFF"/>
<circle cx="197.5" cy="48.5" r="4.5" fill="#D9FFFF"/>
<circle cx="210.5" cy="57" r="4.5" fill="#D9FFFF"/>
<circle cx="73.4557" cy="225.461" r="4.5" transform="rotate(176.65 73.4557 225.461)" fill="#D9FFFF"/>
<circle cx="63.1344" cy="212.412" r="4.5" transform="rotate(176.65 63.1344 212.412)" fill="#D9FFFF"/>
<circle cx="54.8151" cy="198.565" r="4.5" transform="rotate(176.65 54.8151 198.565)" fill="#D9FFFF"/>
<circle cx="47.1364" cy="183.995" r="4.5" transform="rotate(176.65 47.1364 183.995)" fill="#D9FFFF"/>
<circle cx="40.7379" cy="167.986" r="4.5" transform="rotate(176.65 40.7379 167.986)" fill="#D9FFFF"/>
<circle cx="38.4225" cy="151.738" r="4.5" transform="rotate(176.65 38.4225 151.738)" fill="#D9FFFF"/>
<circle cx="37.3873" cy="134.05" r="4.5" transform="rotate(176.65 37.3873 134.05)" fill="#D9FFFF"/>
<circle cx="41.7946" cy="116.043" r="4.5" transform="rotate(176.65 41.7946 116.043)" fill="#D9FFFF"/>
<circle cx="47.6422" cy="99.3175" r="4.5" transform="rotate(176.65 47.6422 99.3175)" fill="#D9FFFF"/>
<circle cx="56.1705" cy="81.7511" r="4.5" transform="rotate(176.65 56.1705 81.7511)" fill="#D9FFFF"/>
<circle cx="66.4166" cy="68.7862" r="4.5" transform="rotate(176.65 66.4166 68.7862)" fill="#D9FFFF"/>
<circle cx="79.3883" cy="58.548" r="4.5" transform="rotate(176.65 79.3883 58.548)" fill="#D9FFFF"/>
<circle cx="212.816" cy="89.7843" r="4.5" transform="rotate(0.726778 212.816 89.7843)" fill="#FFFFC9"/>
<circle cx="224.878" cy="105.209" r="4.5" transform="rotate(0.726778 224.878 105.209)" fill="#FFFFC9"/>
<circle cx="228.893" cy="123.315" r="4.5" transform="rotate(0.726778 228.893 123.315)" fill="#FFFFC9"/>
<circle cx="232.925" cy="144.104" r="4.5" transform="rotate(0.726778 232.925 144.104)" fill="#FFFFC9"/>
<circle cx="228.902" cy="162.88" r="4.5" transform="rotate(0.726778 228.902 162.88)" fill="#FFFFC9"/>
<circle cx="222.858" cy="182.336" r="4.5" transform="rotate(0.726778 222.858 182.336)" fill="#FFFFC9"/>
<circle cx="212.02" cy="197.149" r="4.5" transform="rotate(0.726778 212.02 197.149)" fill="#FFFFC9"/>
<circle cx="199.404" cy="210.492" r="4.5" transform="rotate(0.726778 199.404 210.492)" fill="#FFFFC9"/>
<circle cx="183.971" cy="221.9" r="4.5" transform="rotate(0.726778 183.971 221.9)" fill="#FFFFC9"/>
<circle cx="161.842" cy="227.258" r="4.5" transform="rotate(0.726778 161.842 227.258)" fill="#FFFFC9"/>
<circle cx="90.758" cy="211.163" r="4.5" transform="rotate(0.726778 90.758 211.163)" fill="#FFFFC9"/>
<circle cx="143.736" cy="228.59" r="4.5" transform="rotate(0.726778 143.736 228.59)" fill="#FFFFC9"/>
<circle cx="124.95" cy="226.578" r="4.5" transform="rotate(0.726778 124.95 226.578)" fill="#FFFFC9"/>
<circle cx="106.844" cy="221.222" r="4.5" transform="rotate(0.726778 106.844 221.222)" fill="#FFFFC9"/>
<circle cx="127.632" cy="60.2696" r="4.5" transform="rotate(0.726778 127.632 60.2696)" fill="#FFFFC9"/>
<circle cx="112.209" cy="66.9845" r="4.5" transform="rotate(0.726778 112.209 66.9845)" fill="#FFFFC9"/>
<circle cx="146.7" cy="59.5069" r="4.5" transform="rotate(0.726778 146.7 59.5069)" fill="#FFFFC9"/>
<circle cx="146.7" cy="59.5069" r="4.5" transform="rotate(0.726778 146.7 59.5069)" fill="#FFFFC9"/>
<circle cx="167.868" cy="60.2696" r="4.5" transform="rotate(0.726778 167.868 60.2696)" fill="#FFFFC9"/>
<circle cx="184.802" cy="68.0548" r="4.5" transform="rotate(0.726778 184.802 68.0548)" fill="#FFFFC9"/>
<circle cx="200.728" cy="77.7139" r="4.5" transform="rotate(0.726778 200.728 77.7139)" fill="#FFFFC9"/>
<circle cx="79.706" cy="196.713" r="4.5" transform="rotate(177.377 79.706 196.713)" fill="#FFFFC9"/>
<circle cx="68.457" cy="180.307" r="4.5" transform="rotate(177.377 68.457 180.307)" fill="#FFFFC9"/>
<circle cx="62.6172" cy="161.718" r="4.5" transform="rotate(177.377 62.6172 161.718)" fill="#FFFFC9"/>
<circle cx="61.7509" cy="142.754" r="4.5" transform="rotate(177.377 61.7509 142.754)" fill="#FFFFC9"/>
<circle cx="64.4336" cy="123.977" r="4.5" transform="rotate(177.377 64.4336 123.977)" fill="#FFFFC9"/>
<circle cx="71.3847" cy="105.359" r="4.5" transform="rotate(177.377 71.3847 105.359)" fill="#FFFFC9"/>
<circle cx="81.8935" cy="88.2966" r="4.5" transform="rotate(177.377 81.8935 88.2966)" fill="#FFFFC9"/>
<circle cx="95.3056" cy="74.8854" r="4.5" transform="rotate(177.377 95.3056 74.8854)" fill="#FFFFC9"/>
<circle cx="180.5" cy="105" r="4.5" fill="#D9FFFF"/>
<circle cx="191.5" cy="118" r="4.5" fill="#D9FFFF"/>
<circle cx="198" cy="138" r="4.5" fill="#D9FFFF"/>
<circle cx="199" cy="152" r="4.5" fill="#D9FFFF"/>
<circle cx="191.5" cy="172" r="4.5" fill="#D9FFFF"/>
<circle cx="178" cy="186" r="4.5" fill="#D9FFFF"/>
<circle cx="161.5" cy="192.5" r="4.5" fill="#D9FFFF"/>
<circle cx="121" cy="190.5" r="4.5" fill="#D9FFFF"/>
<circle cx="143.5" cy="198" r="4.5" fill="#D9FFFF"/>
<circle cx="110" cy="179.5" r="4.5" fill="#D9FFFF"/>
<circle cx="96" cy="164" r="4.5" fill="#D9FFFF"/>
<circle cx="94" cy="147.5" r="4.5" fill="#D9FFFF"/>
<circle cx="94" cy="130.5" r="4.5" fill="#D9FFFF"/>
<circle cx="102.5" cy="115" r="4.5" fill="#D9FFFF"/>
<circle cx="116" cy="102.5" r="4.5" fill="#D9FFFF"/>
<circle cx="131.5" cy="93" r="4.5" fill="#D9FFFF"/>
<circle cx="147.5" cy="92" r="4.5" fill="#D9FFFF"/>
<circle cx="164" cy="98.5" r="4.5" fill="#D9FFFF"/>
</g>
<defs>
<filter id="filter0_ddd_99572_19072" x="0.463867" y="0" width="289.536" height="288" filterUnits="userSpaceOnUse" color-interpolation-filters="sRGB">
<feFlood flood-opacity="0" result="BackgroundImageFix"/>
<feColorMatrix in="SourceAlpha" type="matrix" values="0 0 0 0 0 0 0 0 0 0 0 0 0 0 0 0 0 0 127 0" result="hardAlpha"/>
<feOffset/>
<feGaussianBlur stdDeviation="5"/>
<feComposite in2="hardAlpha" operator="out"/>
<feColorMatrix type="matrix" values="0 0 0 0 1 0 0 0 0 1 0 0 0 0 1 0 0 0 0.23 0"/>
<feBlend mode="normal" in2="BackgroundImageFix" result="effect1_dropShadow_99572_19072"/>
<feColorMatrix in="SourceAlpha" type="matrix" values="0 0 0 0 0 0 0 0 0 0 0 0 0 0 0 0 0 0 127 0" result="hardAlpha"/>
<feOffset/>
<feGaussianBlur stdDeviation="6.5"/>
<feComposite in2="hardAlpha" operator="out"/>
<feColorMatrix type="matrix" values="0 0 0 0 1 0 0 0 0 0.541667 0 0 0 0 0.541667 0 0 0 0.25 0"/>
<feBlend mode="normal" in2="effect1_dropShadow_99572_19072" result="effect2_dropShadow_99572_19072"/>
<feColorMatrix in="SourceAlpha" type="matrix" values="0 0 0 0 0 0 0 0 0 0 0 0 0 0 0 0 0 0 127 0" result="hardAlpha"/>
<feOffset/>
<feGaussianBlur stdDeviation="12"/>
<feComposite in2="hardAlpha" operator="out"/>
<feColorMatrix type="matrix" values="0 0 0 0 1 0 0 0 0 1 0 0 0 0 1 0 0 0 0.45 0"/>
<feBlend mode="normal" in2="effect2_dropShadow_99572_19072" result="effect3_dropShadow_99572_19072"/>
<feBlend mode="normal" in="SourceGraphic" in2="effect3_dropShadow_99572_19072" result="shape"/>
</filter>
</defs>
</svg>
