<svg width="298" height="296" viewBox="0 0 298 296" fill="none" xmlns="http://www.w3.org/2000/svg">
<g filter="url(#filter0_ddd_99572_19432)">
<circle cx="229" cy="68.5" r="4.5" fill="#D9FFFF"/>
<circle cx="240" cy="80.5" r="4.5" fill="#D9FFFF"/>
<circle cx="246.5" cy="96" r="4.5" fill="#D9FFFF"/>
<circle cx="255" cy="112" r="4.5" fill="#D9FFFF"/>
<circle cx="260.5" cy="131" r="4.5" fill="#D9FFFF"/>
<circle cx="261.5" cy="143" r="4.5" fill="#D9FFFF"/>
<circle cx="261.5" cy="163" r="4.5" fill="#D9FFFF"/>
<circle cx="257.5" cy="182" r="4.5" fill="#D9FFFF"/>
<circle cx="248.5" cy="200" r="4.5" fill="#D9FFFF"/>
<circle cx="239.5" cy="217.5" r="4.5" fill="#D9FFFF"/>
<circle cx="226.5" cy="227.5" r="4.5" fill="#D9FFFF"/>
<circle cx="214" cy="239.5" r="4.5" fill="#D9FFFF"/>
<circle cx="197.5" cy="248.5" r="4.5" fill="#D9FFFF"/>
<circle cx="180" cy="256" r="4.5" fill="#D9FFFF"/>
<circle cx="161" cy="259" r="4.5" fill="#D9FFFF"/>
<circle cx="90" cy="240" r="4.5" fill="#D9FFFF"/>
<circle cx="141" cy="260" r="4.5" fill="#D9FFFF"/>
<circle cx="121" cy="258" r="4.5" fill="#D9FFFF"/>
<circle cx="105" cy="251" r="4.5" fill="#D9FFFF"/>
<circle cx="115" cy="42.5" r="4.5" fill="#D9FFFF"/>
<circle cx="98" cy="52" r="4.5" fill="#D9FFFF"/>
<circle cx="154" cy="36" r="4.5" fill="#D9FFFF"/>
<circle cx="154" cy="36" r="4.5" fill="#D9FFFF"/>
<circle cx="154" cy="36" r="4.5" fill="#D9FFFF"/>
<circle cx="135" cy="38" r="4.5" fill="#D9FFFF"/>
<circle cx="168.5" cy="38" r="4.5" fill="#D9FFFF"/>
<circle cx="186" cy="42.5" r="4.5" fill="#D9FFFF"/>
<circle cx="203" cy="49" r="4.5" fill="#D9FFFF"/>
<circle cx="217" cy="58" r="4.5" fill="#D9FFFF"/>
<circle cx="75.0788" cy="232.16" r="4.5" transform="rotate(176.65 75.0788 232.16)" fill="#D9FFFF"/>
<circle cx="64.4157" cy="218.679" r="4.5" transform="rotate(176.65 64.4157 218.679)" fill="#D9FFFF"/>
<circle cx="55.82" cy="204.371" r="4.5" transform="rotate(176.65 55.82 204.371)" fill="#D9FFFF"/>
<circle cx="47.8864" cy="189.32" r="4.5" transform="rotate(176.65 47.8864 189.32)" fill="#D9FFFF"/>
<circle cx="41.277" cy="172.78" r="4.5" transform="rotate(176.65 41.277 172.78)" fill="#D9FFFF"/>
<circle cx="38.8834" cy="155.994" r="4.5" transform="rotate(176.65 38.8834 155.994)" fill="#D9FFFF"/>
<circle cx="37.8141" cy="137.72" r="4.5" transform="rotate(176.65 37.8141 137.72)" fill="#D9FFFF"/>
<circle cx="42.3678" cy="119.117" r="4.5" transform="rotate(176.65 42.3678 119.117)" fill="#D9FFFF"/>
<circle cx="48.4088" cy="101.837" r="4.5" transform="rotate(176.65 48.4088 101.837)" fill="#D9FFFF"/>
<circle cx="57.2204" cy="83.6896" r="4.5" transform="rotate(176.65 57.2204 83.6896)" fill="#D9FFFF"/>
<circle cx="67.8053" cy="70.295" r="4.5" transform="rotate(176.65 67.8053 70.295)" fill="#D9FFFF"/>
<circle cx="81.2067" cy="59.7169" r="4.5" transform="rotate(176.65 81.2067 59.7169)" fill="#D9FFFF"/>
<circle cx="219.276" cy="91.754" r="4.5" transform="rotate(0.726778 219.276 91.754)" fill="#FFFFC9"/>
<circle cx="231.789" cy="107.755" r="4.5" transform="rotate(0.726778 231.789 107.755)" fill="#FFFFC9"/>
<circle cx="235.954" cy="126.539" r="4.5" transform="rotate(0.726778 235.954 126.539)" fill="#FFFFC9"/>
<circle cx="240.137" cy="148.106" r="4.5" transform="rotate(0.726778 240.137 148.106)" fill="#FFFFC9"/>
<circle cx="235.963" cy="167.585" r="4.5" transform="rotate(0.726778 235.963 167.585)" fill="#FFFFC9"/>
<circle cx="229.693" cy="187.77" r="4.5" transform="rotate(0.726778 229.693 187.77)" fill="#FFFFC9"/>
<circle cx="218.449" cy="203.136" r="4.5" transform="rotate(0.726778 218.449 203.136)" fill="#FFFFC9"/>
<circle cx="205.362" cy="216.979" r="4.5" transform="rotate(0.726778 205.362 216.979)" fill="#FFFFC9"/>
<circle cx="189.352" cy="228.815" r="4.5" transform="rotate(0.726778 189.352 228.815)" fill="#FFFFC9"/>
<circle cx="166.394" cy="234.372" r="4.5" transform="rotate(0.726778 166.394 234.372)" fill="#FFFFC9"/>
<circle cx="92.6496" cy="217.675" r="4.5" transform="rotate(0.726778 92.6496 217.675)" fill="#FFFFC9"/>
<circle cx="147.61" cy="235.754" r="4.5" transform="rotate(0.726778 147.61 235.754)" fill="#FFFFC9"/>
<circle cx="128.121" cy="233.668" r="4.5" transform="rotate(0.726778 128.121 233.668)" fill="#FFFFC9"/>
<circle cx="109.337" cy="228.11" r="4.5" transform="rotate(0.726778 109.337 228.11)" fill="#FFFFC9"/>
<circle cx="130.904" cy="61.1348" r="4.5" transform="rotate(0.726778 130.904 61.1348)" fill="#FFFFC9"/>
<circle cx="114.903" cy="68.1007" r="4.5" transform="rotate(0.726778 114.903 68.1007)" fill="#FFFFC9"/>
<circle cx="150.686" cy="60.3428" r="4.5" transform="rotate(0.726778 150.686 60.3428)" fill="#FFFFC9"/>
<circle cx="150.686" cy="60.3428" r="4.5" transform="rotate(0.726778 150.686 60.3428)" fill="#FFFFC9"/>
<circle cx="172.647" cy="61.1348" r="4.5" transform="rotate(0.726778 172.647 61.1348)" fill="#FFFFC9"/>
<circle cx="190.214" cy="69.211" r="4.5" transform="rotate(0.726778 190.214 69.211)" fill="#FFFFC9"/>
<circle cx="206.736" cy="79.2315" r="4.5" transform="rotate(0.726778 206.736 79.2315)" fill="#FFFFC9"/>
<circle cx="81.1845" cy="202.685" r="4.5" transform="rotate(177.377 81.1845 202.685)" fill="#FFFFC9"/>
<circle cx="69.5156" cy="185.665" r="4.5" transform="rotate(177.377 69.5156 185.665)" fill="#FFFFC9"/>
<circle cx="63.456" cy="166.381" r="4.5" transform="rotate(177.377 63.456 166.381)" fill="#FFFFC9"/>
<circle cx="62.5586" cy="146.706" r="4.5" transform="rotate(177.377 62.5586 146.706)" fill="#FFFFC9"/>
<circle cx="65.3408" cy="127.226" r="4.5" transform="rotate(177.377 65.3408 127.226)" fill="#FFFFC9"/>
<circle cx="72.5517" cy="107.911" r="4.5" transform="rotate(177.377 72.5517 107.911)" fill="#FFFFC9"/>
<circle cx="83.4541" cy="90.2116" r="4.5" transform="rotate(177.377 83.4541 90.2116)" fill="#FFFFC9"/>
<circle cx="97.3681" cy="76.2975" r="4.5" transform="rotate(177.377 97.3681 76.2975)" fill="#FFFFC9"/>
<circle cx="184.5" cy="109" r="3" fill="#D9FFFF"/>
<circle cx="195.5" cy="122" r="3" fill="#D9FFFF"/>
<circle cx="202" cy="142" r="3" fill="#D9FFFF"/>
<circle cx="203" cy="156" r="3" fill="#D9FFFF"/>
<circle cx="195.5" cy="176" r="3" fill="#D9FFFF"/>
<circle cx="182" cy="190" r="3" fill="#D9FFFF"/>
<circle cx="165.5" cy="196.5" r="3" fill="#D9FFFF"/>
<circle cx="125" cy="194.5" r="3" fill="#D9FFFF"/>
<circle cx="147.5" cy="202" r="3" fill="#D9FFFF"/>
<circle cx="114" cy="183.5" r="3" fill="#D9FFFF"/>
<circle cx="100" cy="168" r="3" fill="#D9FFFF"/>
<circle cx="98" cy="151.5" r="3" fill="#D9FFFF"/>
<circle cx="98" cy="134.5" r="3" fill="#D9FFFF"/>
<circle cx="106.5" cy="119" r="3" fill="#D9FFFF"/>
<circle cx="120" cy="106.5" r="3" fill="#D9FFFF"/>
<circle cx="135.5" cy="97" r="3" fill="#D9FFFF"/>
<circle cx="151.5" cy="96" r="3" fill="#D9FFFF"/>
<circle cx="168" cy="102.5" r="3" fill="#D9FFFF"/>
</g>
<defs>
<filter id="filter0_ddd_99572_19432" x="0.463867" y="0" width="297.536" height="296" filterUnits="userSpaceOnUse" color-interpolation-filters="sRGB">
<feFlood flood-opacity="0" result="BackgroundImageFix"/>
<feColorMatrix in="SourceAlpha" type="matrix" values="0 0 0 0 0 0 0 0 0 0 0 0 0 0 0 0 0 0 127 0" result="hardAlpha"/>
<feOffset/>
<feGaussianBlur stdDeviation="5"/>
<feComposite in2="hardAlpha" operator="out"/>
<feColorMatrix type="matrix" values="0 0 0 0 1 0 0 0 0 1 0 0 0 0 1 0 0 0 0.23 0"/>
<feBlend mode="normal" in2="BackgroundImageFix" result="effect1_dropShadow_99572_19432"/>
<feColorMatrix in="SourceAlpha" type="matrix" values="0 0 0 0 0 0 0 0 0 0 0 0 0 0 0 0 0 0 127 0" result="hardAlpha"/>
<feOffset/>
<feGaussianBlur stdDeviation="6.5"/>
<feComposite in2="hardAlpha" operator="out"/>
<feColorMatrix type="matrix" values="0 0 0 0 1 0 0 0 0 0.541667 0 0 0 0 0.541667 0 0 0 0.25 0"/>
<feBlend mode="normal" in2="effect1_dropShadow_99572_19432" result="effect2_dropShadow_99572_19432"/>
<feColorMatrix in="SourceAlpha" type="matrix" values="0 0 0 0 0 0 0 0 0 0 0 0 0 0 0 0 0 0 127 0" result="hardAlpha"/>
<feOffset/>
<feGaussianBlur stdDeviation="12"/>
<feComposite in2="hardAlpha" operator="out"/>
<feColorMatrix type="matrix" values="0 0 0 0 1 0 0 0 0 1 0 0 0 0 1 0 0 0 0.45 0"/>
<feBlend mode="normal" in2="effect2_dropShadow_99572_19432" result="effect3_dropShadow_99572_19432"/>
<feBlend mode="normal" in="SourceGraphic" in2="effect3_dropShadow_99572_19432" result="shape"/>
</filter>
</defs>
</svg>
