<svg width="304" height="302" viewBox="0 0 304 302" fill="none" xmlns="http://www.w3.org/2000/svg">
<g filter="url(#filter0_ddd_99572_19792)">
<circle cx="234" cy="69.5" r="4.5" fill="#D9FFFF"/>
<circle cx="245" cy="82" r="4.5" fill="#D9FFFF"/>
<circle cx="252" cy="97.5" r="4.5" fill="#D9FFFF"/>
<circle cx="260.5" cy="114" r="4.5" fill="#D9FFFF"/>
<circle cx="266" cy="133.5" r="4.5" fill="#D9FFFF"/>
<circle cx="267" cy="146" r="4.5" fill="#D9FFFF"/>
<circle cx="267" cy="166.5" r="4.5" fill="#D9FFFF"/>
<circle cx="263" cy="186" r="4.5" fill="#D9FFFF"/>
<circle cx="254" cy="204.5" r="4.5" fill="#D9FFFF"/>
<circle cx="244.5" cy="222" r="4.5" fill="#D9FFFF"/>
<circle cx="231.5" cy="232.5" r="4.5" fill="#D9FFFF"/>
<circle cx="218.5" cy="244.5" r="4.5" fill="#D9FFFF"/>
<circle cx="201.5" cy="254" r="4.5" fill="#D9FFFF"/>
<circle cx="183.5" cy="261.5" r="4.5" fill="#D9FFFF"/>
<circle cx="164.5" cy="264.5" r="4.5" fill="#D9FFFF"/>
<circle cx="91.5" cy="245" r="4.5" fill="#D9FFFF"/>
<circle cx="144" cy="265.5" r="4.5" fill="#D9FFFF"/>
<circle cx="123.5" cy="263.5" r="4.5" fill="#D9FFFF"/>
<circle cx="107" cy="256.5" r="4.5" fill="#D9FFFF"/>
<circle cx="117" cy="43" r="4.5" fill="#D9FFFF"/>
<circle cx="99.5" cy="52.5" r="4.5" fill="#D9FFFF"/>
<circle cx="157" cy="36.5" r="4.5" fill="#D9FFFF"/>
<circle cx="157" cy="36.5" r="4.5" fill="#D9FFFF"/>
<circle cx="157" cy="36.5" r="4.5" fill="#D9FFFF"/>
<circle cx="137.5" cy="38.5" r="4.5" fill="#D9FFFF"/>
<circle cx="172" cy="38.5" r="4.5" fill="#D9FFFF"/>
<circle cx="190" cy="43" r="4.5" fill="#D9FFFF"/>
<circle cx="207.5" cy="49.5" r="4.5" fill="#D9FFFF"/>
<circle cx="221.5" cy="59" r="4.5" fill="#D9FFFF"/>
<circle cx="76.2946" cy="237.184" r="4.5" transform="rotate(176.65 76.2946 237.184)" fill="#D9FFFF"/>
<circle cx="65.3756" cy="223.378" r="4.5" transform="rotate(176.65 65.3756 223.378)" fill="#D9FFFF"/>
<circle cx="56.5748" cy="208.727" r="4.5" transform="rotate(176.65 56.5748 208.727)" fill="#D9FFFF"/>
<circle cx="48.4508" cy="193.314" r="4.5" transform="rotate(176.65 48.4508 193.314)" fill="#D9FFFF"/>
<circle cx="41.6813" cy="176.376" r="4.5" transform="rotate(176.65 41.6813 176.376)" fill="#D9FFFF"/>
<circle cx="39.2311" cy="159.187" r="4.5" transform="rotate(176.65 39.2311 159.187)" fill="#D9FFFF"/>
<circle cx="38.1354" cy="140.473" r="4.5" transform="rotate(176.65 38.1354 140.473)" fill="#D9FFFF"/>
<circle cx="42.7995" cy="121.423" r="4.5" transform="rotate(176.65 42.7995 121.423)" fill="#D9FFFF"/>
<circle cx="48.985" cy="103.728" r="4.5" transform="rotate(176.65 48.985 103.728)" fill="#D9FFFF"/>
<circle cx="58.0084" cy="85.1437" r="4.5" transform="rotate(176.65 58.0084 85.1437)" fill="#D9FFFF"/>
<circle cx="68.8473" cy="71.4269" r="4.5" transform="rotate(176.65 68.8473 71.4269)" fill="#D9FFFF"/>
<circle cx="82.5709" cy="60.5948" r="4.5" transform="rotate(176.65 82.5709 60.5948)" fill="#D9FFFF"/>
<circle cx="223.654" cy="93.6153" r="4.5" transform="rotate(0.726778 223.654 93.6153)" fill="#FFFFC9"/>
<circle cx="236.421" cy="109.941" r="4.5" transform="rotate(0.726778 236.421 109.941)" fill="#FFFFC9"/>
<circle cx="240.67" cy="129.105" r="4.5" transform="rotate(0.726778 240.67 129.105)" fill="#FFFFC9"/>
<circle cx="244.938" cy="151.107" r="4.5" transform="rotate(0.726778 244.938 151.107)" fill="#FFFFC9"/>
<circle cx="240.679" cy="170.98" r="4.5" transform="rotate(0.726778 240.679 170.98)" fill="#FFFFC9"/>
<circle cx="234.282" cy="191.572" r="4.5" transform="rotate(0.726778 234.282 191.572)" fill="#FFFFC9"/>
<circle cx="222.812" cy="207.249" r="4.5" transform="rotate(0.726778 222.812 207.249)" fill="#FFFFC9"/>
<circle cx="209.458" cy="221.373" r="4.5" transform="rotate(0.726778 209.458 221.373)" fill="#FFFFC9"/>
<circle cx="193.125" cy="233.448" r="4.5" transform="rotate(0.726778 193.125 233.448)" fill="#FFFFC9"/>
<circle cx="169.702" cy="239.117" r="4.5" transform="rotate(0.726778 169.702 239.117)" fill="#FFFFC9"/>
<circle cx="94.4679" cy="222.083" r="4.5" transform="rotate(0.726778 94.4679 222.083)" fill="#FFFFC9"/>
<circle cx="150.539" cy="240.527" r="4.5" transform="rotate(0.726778 150.539 240.527)" fill="#FFFFC9"/>
<circle cx="130.657" cy="238.399" r="4.5" transform="rotate(0.726778 130.657 238.399)" fill="#FFFFC9"/>
<circle cx="111.493" cy="232.73" r="4.5" transform="rotate(0.726778 111.493 232.73)" fill="#FFFFC9"/>
<circle cx="133.496" cy="62.377" r="4.5" transform="rotate(0.726778 133.496 62.377)" fill="#FFFFC9"/>
<circle cx="117.172" cy="69.4845" r="4.5" transform="rotate(0.726778 117.172 69.4845)" fill="#FFFFC9"/>
<circle cx="153.678" cy="61.5694" r="4.5" transform="rotate(0.726778 153.678 61.5694)" fill="#FFFFC9"/>
<circle cx="153.678" cy="61.5694" r="4.5" transform="rotate(0.726778 153.678 61.5694)" fill="#FFFFC9"/>
<circle cx="176.082" cy="62.377" r="4.5" transform="rotate(0.726778 176.082 62.377)" fill="#FFFFC9"/>
<circle cx="194.004" cy="70.6173" r="4.5" transform="rotate(0.726778 194.004 70.6173)" fill="#FFFFC9"/>
<circle cx="210.86" cy="80.8409" r="4.5" transform="rotate(0.726778 210.86 80.8409)" fill="#FFFFC9"/>
<circle cx="82.7715" cy="206.79" r="4.5" transform="rotate(177.377 82.7715 206.79)" fill="#FFFFC9"/>
<circle cx="70.8652" cy="189.425" r="4.5" transform="rotate(177.377 70.8652 189.425)" fill="#FFFFC9"/>
<circle cx="64.6845" cy="169.752" r="4.5" transform="rotate(177.377 64.6845 169.752)" fill="#FFFFC9"/>
<circle cx="63.7675" cy="149.678" r="4.5" transform="rotate(177.377 63.7675 149.678)" fill="#FFFFC9"/>
<circle cx="66.6074" cy="129.805" r="4.5" transform="rotate(177.377 66.6074 129.805)" fill="#FFFFC9"/>
<circle cx="73.9638" cy="110.1" r="4.5" transform="rotate(177.377 73.9638 110.1)" fill="#FFFFC9"/>
<circle cx="85.0859" cy="92.0417" r="4.5" transform="rotate(177.377 85.0859 92.0417)" fill="#FFFFC9"/>
<circle cx="99.2812" cy="77.8464" r="4.5" transform="rotate(177.377 99.2812 77.8464)" fill="#FFFFC9"/>
<circle cx="187.5" cy="112" r="3" fill="#D9FFFF"/>
<circle cx="198.5" cy="125" r="3" fill="#D9FFFF"/>
<circle cx="205" cy="145" r="3" fill="#D9FFFF"/>
<circle cx="206" cy="159" r="3" fill="#D9FFFF"/>
<circle cx="198.5" cy="179" r="3" fill="#D9FFFF"/>
<circle cx="185" cy="193" r="3" fill="#D9FFFF"/>
<circle cx="168.5" cy="199.5" r="3" fill="#D9FFFF"/>
<circle cx="128" cy="197.5" r="3" fill="#D9FFFF"/>
<circle cx="150.5" cy="205" r="3" fill="#D9FFFF"/>
<circle cx="117" cy="186.5" r="3" fill="#D9FFFF"/>
<circle cx="103" cy="171" r="3" fill="#D9FFFF"/>
<circle cx="101" cy="154.5" r="3" fill="#D9FFFF"/>
<circle cx="101" cy="137.5" r="3" fill="#D9FFFF"/>
<circle cx="109.5" cy="122" r="3" fill="#D9FFFF"/>
<circle cx="123" cy="109.5" r="3" fill="#D9FFFF"/>
<circle cx="138.5" cy="100" r="3" fill="#D9FFFF"/>
<circle cx="154.5" cy="99" r="3" fill="#D9FFFF"/>
<circle cx="171" cy="105.5" r="3" fill="#D9FFFF"/>
</g>
<defs>
<filter id="filter0_ddd_99572_19792" x="0.462891" y="0" width="303.537" height="302" filterUnits="userSpaceOnUse" color-interpolation-filters="sRGB">
<feFlood flood-opacity="0" result="BackgroundImageFix"/>
<feColorMatrix in="SourceAlpha" type="matrix" values="0 0 0 0 0 0 0 0 0 0 0 0 0 0 0 0 0 0 127 0" result="hardAlpha"/>
<feOffset/>
<feGaussianBlur stdDeviation="5"/>
<feComposite in2="hardAlpha" operator="out"/>
<feColorMatrix type="matrix" values="0 0 0 0 1 0 0 0 0 1 0 0 0 0 1 0 0 0 0.23 0"/>
<feBlend mode="normal" in2="BackgroundImageFix" result="effect1_dropShadow_99572_19792"/>
<feColorMatrix in="SourceAlpha" type="matrix" values="0 0 0 0 0 0 0 0 0 0 0 0 0 0 0 0 0 0 127 0" result="hardAlpha"/>
<feOffset/>
<feGaussianBlur stdDeviation="6.5"/>
<feComposite in2="hardAlpha" operator="out"/>
<feColorMatrix type="matrix" values="0 0 0 0 1 0 0 0 0 0.541667 0 0 0 0 0.541667 0 0 0 0.25 0"/>
<feBlend mode="normal" in2="effect1_dropShadow_99572_19792" result="effect2_dropShadow_99572_19792"/>
<feColorMatrix in="SourceAlpha" type="matrix" values="0 0 0 0 0 0 0 0 0 0 0 0 0 0 0 0 0 0 127 0" result="hardAlpha"/>
<feOffset/>
<feGaussianBlur stdDeviation="12"/>
<feComposite in2="hardAlpha" operator="out"/>
<feColorMatrix type="matrix" values="0 0 0 0 1 0 0 0 0 1 0 0 0 0 1 0 0 0 0.45 0"/>
<feBlend mode="normal" in2="effect2_dropShadow_99572_19792" result="effect3_dropShadow_99572_19792"/>
<feBlend mode="normal" in="SourceGraphic" in2="effect3_dropShadow_99572_19792" result="shape"/>
</filter>
</defs>
</svg>
