<svg width="312" height="310" viewBox="0 0 312 310" fill="none" xmlns="http://www.w3.org/2000/svg">
<g filter="url(#filter0_ddd_99572_20152)">
<circle cx="240.5" cy="71" r="4.5" fill="#D9FFFF"/>
<circle cx="252" cy="83.5" r="4.5" fill="#D9FFFF"/>
<circle cx="259.5" cy="100" r="4.5" fill="#D9FFFF"/>
<circle cx="268" cy="116.5" r="4.5" fill="#D9FFFF"/>
<circle cx="273.5" cy="137" r="4.5" fill="#D9FFFF"/>
<circle cx="274.5" cy="149.5" r="4.5" fill="#D9FFFF"/>
<circle cx="274.5" cy="171" r="4.5" fill="#D9FFFF"/>
<circle cx="270.5" cy="191" r="4.5" fill="#D9FFFF"/>
<circle cx="261.5" cy="210" r="4.5" fill="#D9FFFF"/>
<circle cx="251.5" cy="228.5" r="4.5" fill="#D9FFFF"/>
<circle cx="238" cy="239" r="4.5" fill="#D9FFFF"/>
<circle cx="225" cy="251.5" r="4.5" fill="#D9FFFF"/>
<circle cx="207" cy="261.5" r="4.5" fill="#D9FFFF"/>
<circle cx="188.5" cy="269" r="4.5" fill="#D9FFFF"/>
<circle cx="169" cy="272" r="4.5" fill="#D9FFFF"/>
<circle cx="93.5" cy="252" r="4.5" fill="#D9FFFF"/>
<circle cx="147.5" cy="273" r="4.5" fill="#D9FFFF"/>
<circle cx="126.5" cy="271" r="4.5" fill="#D9FFFF"/>
<circle cx="109.5" cy="264" r="4.5" fill="#D9FFFF"/>
<circle cx="120" cy="43.5" r="4.5" fill="#D9FFFF"/>
<circle cx="102" cy="53.5" r="4.5" fill="#D9FFFF"/>
<circle cx="161.5" cy="37" r="4.5" fill="#D9FFFF"/>
<circle cx="161.5" cy="37" r="4.5" fill="#D9FFFF"/>
<circle cx="161.5" cy="37" r="4.5" fill="#D9FFFF"/>
<circle cx="141" cy="39" r="4.5" fill="#D9FFFF"/>
<circle cx="176.5" cy="39" r="4.5" fill="#D9FFFF"/>
<circle cx="195.5" cy="43.5" r="4.5" fill="#D9FFFF"/>
<circle cx="213" cy="50" r="4.5" fill="#D9FFFF"/>
<circle cx="228" cy="60" r="4.5" fill="#D9FFFF"/>
<circle cx="77.903" cy="243.898" r="4.5" transform="rotate(176.65 77.903 243.898)" fill="#D9FFFF"/>
<circle cx="66.6393" cy="229.658" r="4.5" transform="rotate(176.65 66.6393 229.658)" fill="#D9FFFF"/>
<circle cx="57.5621" cy="214.545" r="4.5" transform="rotate(176.65 57.5621 214.545)" fill="#D9FFFF"/>
<circle cx="49.1813" cy="198.647" r="4.5" transform="rotate(176.65 49.1813 198.647)" fill="#D9FFFF"/>
<circle cx="42.1989" cy="181.176" r="4.5" transform="rotate(176.65 42.1989 181.176)" fill="#D9FFFF"/>
<circle cx="39.6715" cy="163.444" r="4.5" transform="rotate(176.65 39.6715 163.444)" fill="#D9FFFF"/>
<circle cx="38.5426" cy="144.142" r="4.5" transform="rotate(176.65 38.5426 144.142)" fill="#D9FFFF"/>
<circle cx="43.3512" cy="124.491" r="4.5" transform="rotate(176.65 43.3512 124.491)" fill="#D9FFFF"/>
<circle cx="49.734" cy="106.238" r="4.5" transform="rotate(176.65 49.734 106.238)" fill="#D9FFFF"/>
<circle cx="59.0416" cy="87.0685" r="4.5" transform="rotate(176.65 59.0416 87.0685)" fill="#D9FFFF"/>
<circle cx="70.2213" cy="72.92" r="4.5" transform="rotate(176.65 70.2213 72.92)" fill="#D9FFFF"/>
<circle cx="84.3776" cy="61.7472" r="4.5" transform="rotate(176.65 84.3776 61.7472)" fill="#D9FFFF"/>
<circle cx="231.103" cy="94.7701" r="4" transform="rotate(0.726778 231.103 94.7701)" fill="#FFFFC9"/>
<circle cx="244.501" cy="111.903" r="4" transform="rotate(0.726778 244.501 111.903)" fill="#FFFFC9"/>
<circle cx="248.962" cy="132.017" r="4" transform="rotate(0.726778 248.962 132.017)" fill="#FFFFC9"/>
<circle cx="253.44" cy="155.109" r="4" transform="rotate(0.726778 253.44 155.109)" fill="#FFFFC9"/>
<circle cx="248.971" cy="175.967" r="4" transform="rotate(0.726778 248.971 175.967)" fill="#FFFFC9"/>
<circle cx="242.258" cy="197.581" r="4" transform="rotate(0.726778 242.258 197.581)" fill="#FFFFC9"/>
<circle cx="230.216" cy="214.035" r="4" transform="rotate(0.726778 230.216 214.035)" fill="#FFFFC9"/>
<circle cx="216.203" cy="228.858" r="4" transform="rotate(0.726778 216.203 228.858)" fill="#FFFFC9"/>
<circle cx="199.06" cy="241.532" r="4" transform="rotate(0.726778 199.06 241.532)" fill="#FFFFC9"/>
<circle cx="174.475" cy="247.481" r="4" transform="rotate(0.726778 174.475 247.481)" fill="#FFFFC9"/>
<circle cx="95.5144" cy="229.603" r="4" transform="rotate(0.726778 95.5144 229.603)" fill="#FFFFC9"/>
<circle cx="154.364" cy="248.963" r="4" transform="rotate(0.726778 154.364 248.963)" fill="#FFFFC9"/>
<circle cx="133.496" cy="246.727" r="4" transform="rotate(0.726778 133.496 246.727)" fill="#FFFFC9"/>
<circle cx="113.384" cy="240.778" r="4" transform="rotate(0.726778 113.384 240.778)" fill="#FFFFC9"/>
<circle cx="136.474" cy="61.984" r="4" transform="rotate(0.726778 136.474 61.984)" fill="#FFFFC9"/>
<circle cx="119.342" cy="69.443" r="4" transform="rotate(0.726778 119.342 69.443)" fill="#FFFFC9"/>
<circle cx="157.657" cy="61.1358" r="4.5" transform="rotate(0.726778 157.657 61.1358)" fill="#FFFFC9"/>
<circle cx="181.172" cy="61.984" r="4" transform="rotate(0.726778 181.172 61.984)" fill="#FFFFC9"/>
<circle cx="199.983" cy="70.6315" r="4" transform="rotate(0.726778 199.983 70.6315)" fill="#FFFFC9"/>
<circle cx="217.675" cy="81.3619" r="4" transform="rotate(0.726778 217.675 81.3619)" fill="#FFFFC9"/>
<circle cx="83.2381" cy="213.552" r="4" transform="rotate(177.377 83.2381 213.552)" fill="#FFFFC9"/>
<circle cx="70.7411" cy="195.327" r="4" transform="rotate(177.377 70.7411 195.327)" fill="#FFFFC9"/>
<circle cx="64.2528" cy="174.678" r="4" transform="rotate(177.377 64.2528 174.678)" fill="#FFFFC9"/>
<circle cx="63.2919" cy="153.611" r="4" transform="rotate(177.377 63.2919 153.611)" fill="#FFFFC9"/>
<circle cx="66.2704" cy="132.753" r="4" transform="rotate(177.377 66.2704 132.753)" fill="#FFFFC9"/>
<circle cx="73.993" cy="112.071" r="4" transform="rotate(177.377 73.993 112.071)" fill="#FFFFC9"/>
<circle cx="85.6659" cy="93.1179" r="4" transform="rotate(177.377 85.6659 93.1179)" fill="#FFFFC9"/>
<circle cx="100.566" cy="78.2185" r="4" transform="rotate(177.377 100.566 78.2185)" fill="#FFFFC9"/>
<circle cx="191.5" cy="116" r="1" fill="#D9FFFF"/>
<circle cx="202.5" cy="129" r="1" fill="#D9FFFF"/>
<circle cx="209" cy="149" r="1" fill="#D9FFFF"/>
<circle cx="210" cy="163" r="1" fill="#D9FFFF"/>
<circle cx="202.5" cy="183" r="1" fill="#D9FFFF"/>
<circle cx="189" cy="197" r="1" fill="#D9FFFF"/>
<circle cx="172.5" cy="203.5" r="1" fill="#D9FFFF"/>
<circle cx="132" cy="201.5" r="1" fill="#D9FFFF"/>
<circle cx="154.5" cy="209" r="1" fill="#D9FFFF"/>
<circle cx="121" cy="190.5" r="1" fill="#D9FFFF"/>
<circle cx="107" cy="175" r="1" fill="#D9FFFF"/>
<circle cx="105" cy="158.5" r="1" fill="#D9FFFF"/>
<circle cx="105" cy="141.5" r="1" fill="#D9FFFF"/>
<circle cx="113.5" cy="126" r="1" fill="#D9FFFF"/>
<circle cx="127" cy="113.5" r="1" fill="#D9FFFF"/>
<circle cx="142.5" cy="104" r="1" fill="#D9FFFF"/>
<circle cx="158.5" cy="103" r="1" fill="#D9FFFF"/>
<circle cx="175" cy="109.5" r="1" fill="#D9FFFF"/>
</g>
<defs>
<filter id="filter0_ddd_99572_20152" x="0.439453" y="0" width="311.561" height="310" filterUnits="userSpaceOnUse" color-interpolation-filters="sRGB">
<feFlood flood-opacity="0" result="BackgroundImageFix"/>
<feColorMatrix in="SourceAlpha" type="matrix" values="0 0 0 0 0 0 0 0 0 0 0 0 0 0 0 0 0 0 127 0" result="hardAlpha"/>
<feOffset/>
<feGaussianBlur stdDeviation="5"/>
<feComposite in2="hardAlpha" operator="out"/>
<feColorMatrix type="matrix" values="0 0 0 0 1 0 0 0 0 1 0 0 0 0 1 0 0 0 0.23 0"/>
<feBlend mode="normal" in2="BackgroundImageFix" result="effect1_dropShadow_99572_20152"/>
<feColorMatrix in="SourceAlpha" type="matrix" values="0 0 0 0 0 0 0 0 0 0 0 0 0 0 0 0 0 0 127 0" result="hardAlpha"/>
<feOffset/>
<feGaussianBlur stdDeviation="6.5"/>
<feComposite in2="hardAlpha" operator="out"/>
<feColorMatrix type="matrix" values="0 0 0 0 1 0 0 0 0 0.541667 0 0 0 0 0.541667 0 0 0 0.25 0"/>
<feBlend mode="normal" in2="effect1_dropShadow_99572_20152" result="effect2_dropShadow_99572_20152"/>
<feColorMatrix in="SourceAlpha" type="matrix" values="0 0 0 0 0 0 0 0 0 0 0 0 0 0 0 0 0 0 127 0" result="hardAlpha"/>
<feOffset/>
<feGaussianBlur stdDeviation="12"/>
<feComposite in2="hardAlpha" operator="out"/>
<feColorMatrix type="matrix" values="0 0 0 0 1 0 0 0 0 1 0 0 0 0 1 0 0 0 0.45 0"/>
<feBlend mode="normal" in2="effect2_dropShadow_99572_20152" result="effect3_dropShadow_99572_20152"/>
<feBlend mode="normal" in="SourceGraphic" in2="effect3_dropShadow_99572_20152" result="shape"/>
</filter>
</defs>
</svg>
