<svg width="320" height="318" viewBox="0 0 320 318" fill="none" xmlns="http://www.w3.org/2000/svg">
<g filter="url(#filter0_ddd_99572_20508)">
<circle cx="247" cy="72.5" r="4.5" fill="#D9FFFF"/>
<circle cx="259" cy="85" r="4.5" fill="#D9FFFF"/>
<circle cx="267" cy="102.5" r="4.5" fill="#D9FFFF"/>
<circle cx="275.5" cy="119" r="4.5" fill="#D9FFFF"/>
<circle cx="281" cy="140.5" r="4.5" fill="#D9FFFF"/>
<circle cx="282" cy="153" r="4.5" fill="#D9FFFF"/>
<circle cx="282" cy="175.5" r="4.5" fill="#D9FFFF"/>
<circle cx="278" cy="196" r="4.5" fill="#D9FFFF"/>
<circle cx="269" cy="215.5" r="4.5" fill="#D9FFFF"/>
<circle cx="258.5" cy="235" r="4.5" fill="#D9FFFF"/>
<circle cx="244.5" cy="245.5" r="4.5" fill="#D9FFFF"/>
<circle cx="231.5" cy="258.5" r="4.5" fill="#D9FFFF"/>
<circle cx="212.5" cy="269" r="4.5" fill="#D9FFFF"/>
<circle cx="193.5" cy="276.5" r="4.5" fill="#D9FFFF"/>
<circle cx="173.5" cy="279.5" r="4.5" fill="#D9FFFF"/>
<circle cx="95.5" cy="259" r="4.5" fill="#D9FFFF"/>
<circle cx="151" cy="280.5" r="4.5" fill="#D9FFFF"/>
<circle cx="129.5" cy="278.5" r="4.5" fill="#D9FFFF"/>
<circle cx="112" cy="271.5" r="4.5" fill="#D9FFFF"/>
<circle cx="123" cy="44" r="4.5" fill="#D9FFFF"/>
<circle cx="104.5" cy="54.5" r="4.5" fill="#D9FFFF"/>
<circle cx="166" cy="37.5" r="4.5" fill="#D9FFFF"/>
<circle cx="166" cy="37.5" r="4.5" fill="#D9FFFF"/>
<circle cx="166" cy="37.5" r="4.5" fill="#D9FFFF"/>
<circle cx="144.5" cy="39.5" r="4.5" fill="#D9FFFF"/>
<circle cx="181" cy="39.5" r="4.5" fill="#D9FFFF"/>
<circle cx="201" cy="44" r="4.5" fill="#D9FFFF"/>
<circle cx="218.5" cy="50.5" r="4.5" fill="#D9FFFF"/>
<circle cx="234.5" cy="61" r="4.5" fill="#D9FFFF"/>
<circle cx="79.526" cy="250.597" r="4.5" transform="rotate(176.65 79.526 250.597)" fill="#D9FFFF"/>
<circle cx="67.9205" cy="235.924" r="4.5" transform="rotate(176.65 67.9205 235.924)" fill="#D9FFFF"/>
<circle cx="58.567" cy="220.353" r="4.5" transform="rotate(176.65 58.567 220.353)" fill="#D9FFFF"/>
<circle cx="49.9323" cy="203.972" r="4.5" transform="rotate(176.65 49.9323 203.972)" fill="#D9FFFF"/>
<circle cx="42.7389" cy="185.971" r="4.5" transform="rotate(176.65 42.7389 185.971)" fill="#D9FFFF"/>
<circle cx="40.1334" cy="167.701" r="4.5" transform="rotate(176.65 40.1334 167.701)" fill="#D9FFFF"/>
<circle cx="38.9694" cy="147.812" r="4.5" transform="rotate(176.65 38.9694 147.812)" fill="#D9FFFF"/>
<circle cx="43.9264" cy="127.565" r="4.5" transform="rotate(176.65 43.9264 127.565)" fill="#D9FFFF"/>
<circle cx="50.5006" cy="108.758" r="4.5" transform="rotate(176.65 50.5006 108.758)" fill="#D9FFFF"/>
<circle cx="60.0924" cy="89.0069" r="4.5" transform="rotate(176.65 60.0924 89.0069)" fill="#D9FFFF"/>
<circle cx="71.612" cy="74.4288" r="4.5" transform="rotate(176.65 71.612 74.4288)" fill="#D9FFFF"/>
<circle cx="86.1959" cy="62.9161" r="4.5" transform="rotate(176.65 86.1959 62.9161)" fill="#D9FFFF"/>
<circle cx="235.103" cy="98.7698" r="2.5" transform="rotate(0.726778 235.103 98.7698)" fill="#FFFFC9"/>
<circle cx="248.501" cy="115.904" r="2.5" transform="rotate(0.726778 248.501 115.904)" fill="#FFFFC9"/>
<circle cx="252.961" cy="136.017" r="2.5" transform="rotate(0.726778 252.961 136.017)" fill="#FFFFC9"/>
<circle cx="257.441" cy="159.11" r="2.5" transform="rotate(0.726778 257.441 159.11)" fill="#FFFFC9"/>
<circle cx="252.972" cy="179.968" r="2.5" transform="rotate(0.726778 252.972 179.968)" fill="#FFFFC9"/>
<circle cx="246.257" cy="201.581" r="2.5" transform="rotate(0.726778 246.257 201.581)" fill="#FFFFC9"/>
<circle cx="234.216" cy="218.035" r="2.5" transform="rotate(0.726778 234.216 218.035)" fill="#FFFFC9"/>
<circle cx="220.202" cy="232.858" r="2.5" transform="rotate(0.726778 220.202 232.858)" fill="#FFFFC9"/>
<circle cx="203.06" cy="245.532" r="2.5" transform="rotate(0.726778 203.06 245.532)" fill="#FFFFC9"/>
<circle cx="178.476" cy="251.482" r="2.5" transform="rotate(0.726778 178.476 251.482)" fill="#FFFFC9"/>
<circle cx="99.515" cy="233.604" r="2.5" transform="rotate(0.726778 99.515 233.604)" fill="#FFFFC9"/>
<circle cx="158.364" cy="252.962" r="2.5" transform="rotate(0.726778 158.364 252.962)" fill="#FFFFC9"/>
<circle cx="137.496" cy="250.727" r="2.5" transform="rotate(0.726778 137.496 250.727)" fill="#FFFFC9"/>
<circle cx="117.383" cy="244.778" r="2.5" transform="rotate(0.726778 117.383 244.778)" fill="#FFFFC9"/>
<circle cx="140.475" cy="65.9837" r="2.5" transform="rotate(0.726778 140.475 65.9837)" fill="#FFFFC9"/>
<circle cx="123.342" cy="73.4426" r="2.5" transform="rotate(0.726778 123.342 73.4426)" fill="#FFFFC9"/>
<circle cx="161.658" cy="65.136" r="2.5" transform="rotate(0.726778 161.658 65.136)" fill="#FFFFC9"/>
<circle cx="185.172" cy="65.9837" r="2.5" transform="rotate(0.726778 185.172 65.9837)" fill="#FFFFC9"/>
<circle cx="203.983" cy="74.6311" r="2.5" transform="rotate(0.726778 203.983 74.6311)" fill="#FFFFC9"/>
<circle cx="221.674" cy="85.3616" r="2.5" transform="rotate(0.726778 221.674 85.3616)" fill="#FFFFC9"/>
<circle cx="87.2378" cy="217.553" r="2.5" transform="rotate(177.377 87.2378 217.553)" fill="#FFFFC9"/>
<circle cx="74.7417" cy="199.326" r="2.5" transform="rotate(177.377 74.7417 199.326)" fill="#FFFFC9"/>
<circle cx="68.2535" cy="178.678" r="2.5" transform="rotate(177.377 68.2535 178.678)" fill="#FFFFC9"/>
<circle cx="67.2925" cy="157.61" r="2.5" transform="rotate(177.377 67.2925 157.61)" fill="#FFFFC9"/>
<circle cx="70.271" cy="136.752" r="2.5" transform="rotate(177.377 70.271 136.752)" fill="#FFFFC9"/>
<circle cx="77.9937" cy="116.07" r="2.5" transform="rotate(177.377 77.9937 116.07)" fill="#FFFFC9"/>
<circle cx="89.6656" cy="97.118" r="2.5" transform="rotate(177.377 89.6656 97.118)" fill="#FFFFC9"/>
<circle cx="104.566" cy="82.2186" r="2.5" transform="rotate(177.377 104.566 82.2186)" fill="#FFFFC9"/>
</g>
<defs>
<filter id="filter0_ddd_99572_20508" x="0.439453" y="0" width="319.561" height="318" filterUnits="userSpaceOnUse" color-interpolation-filters="sRGB">
<feFlood flood-opacity="0" result="BackgroundImageFix"/>
<feColorMatrix in="SourceAlpha" type="matrix" values="0 0 0 0 0 0 0 0 0 0 0 0 0 0 0 0 0 0 127 0" result="hardAlpha"/>
<feOffset/>
<feGaussianBlur stdDeviation="5"/>
<feComposite in2="hardAlpha" operator="out"/>
<feColorMatrix type="matrix" values="0 0 0 0 1 0 0 0 0 1 0 0 0 0 1 0 0 0 0.23 0"/>
<feBlend mode="normal" in2="BackgroundImageFix" result="effect1_dropShadow_99572_20508"/>
<feColorMatrix in="SourceAlpha" type="matrix" values="0 0 0 0 0 0 0 0 0 0 0 0 0 0 0 0 0 0 127 0" result="hardAlpha"/>
<feOffset/>
<feGaussianBlur stdDeviation="6.5"/>
<feComposite in2="hardAlpha" operator="out"/>
<feColorMatrix type="matrix" values="0 0 0 0 1 0 0 0 0 0.541667 0 0 0 0 0.541667 0 0 0 0.25 0"/>
<feBlend mode="normal" in2="effect1_dropShadow_99572_20508" result="effect2_dropShadow_99572_20508"/>
<feColorMatrix in="SourceAlpha" type="matrix" values="0 0 0 0 0 0 0 0 0 0 0 0 0 0 0 0 0 0 127 0" result="hardAlpha"/>
<feOffset/>
<feGaussianBlur stdDeviation="12"/>
<feComposite in2="hardAlpha" operator="out"/>
<feColorMatrix type="matrix" values="0 0 0 0 1 0 0 0 0 1 0 0 0 0 1 0 0 0 0.45 0"/>
<feBlend mode="normal" in2="effect2_dropShadow_99572_20508" result="effect3_dropShadow_99572_20508"/>
<feBlend mode="normal" in="SourceGraphic" in2="effect3_dropShadow_99572_20508" result="shape"/>
</filter>
</defs>
</svg>
