<svg width="222" height="224" viewBox="0 0 222 224" fill="none" xmlns="http://www.w3.org/2000/svg">
<g filter="url(#filter0_ddd_99572_25140)">
<circle cx="139" cy="82" r="4.5" fill="#D9FFFF"/>
<circle cx="143" cy="88" r="4.5" fill="#D9FFFF"/>
<circle cx="146" cy="93.5" r="4.5" fill="#D9FFFF"/>
<circle cx="148" cy="99" r="4.5" fill="#D9FFFF"/>
<circle cx="150" cy="105" r="4.5" fill="#D9FFFF"/>
<circle cx="151" cy="111.5" r="4.5" fill="#D9FFFF"/>
<circle cx="151" cy="118" r="4.5" fill="#D9FFFF"/>
<circle cx="149" cy="124.5" r="4.5" fill="#D9FFFF"/>
<circle cx="146.5" cy="130.5" r="4.5" fill="#D9FFFF"/>
<circle cx="143" cy="137.5" r="4.5" fill="#D9FFFF"/>
<circle cx="138" cy="142" r="4.5" fill="#D9FFFF"/>
<circle cx="133" cy="146" r="4.5" fill="#D9FFFF"/>
<circle cx="127" cy="149.5" r="4.5" fill="#D9FFFF"/>
<circle cx="120.5" cy="151" r="4.5" fill="#D9FFFF"/>
<circle cx="114" cy="153" r="4.5" fill="#D9FFFF"/>
<circle cx="87" cy="146.5" r="4.5" fill="#D9FFFF"/>
<circle cx="107" cy="153.5" r="4.5" fill="#D9FFFF"/>
<circle cx="100" cy="152.5" r="4.5" fill="#D9FFFF"/>
<circle cx="93" cy="150" r="4.5" fill="#D9FFFF"/>
<circle cx="96" cy="73" r="4.5" fill="#D9FFFF"/>
<circle cx="91" cy="76" r="4.5" fill="#D9FFFF"/>
<circle cx="110" cy="70.5" r="4.5" fill="#D9FFFF"/>
<circle cx="110" cy="70.5" r="4.5" fill="#D9FFFF"/>
<circle cx="110" cy="70.5" r="4.5" fill="#D9FFFF"/>
<circle cx="103.5" cy="71.5" r="4.5" fill="#D9FFFF"/>
<circle cx="117" cy="71.5" r="4.5" fill="#D9FFFF"/>
<circle cx="123" cy="73" r="4.5" fill="#D9FFFF"/>
<circle cx="129" cy="75" r="4.5" fill="#D9FFFF"/>
<circle cx="133.5" cy="79" r="4.5" fill="#D9FFFF"/>
<circle cx="81.775" cy="143.173" r="4.5" transform="rotate(176.65 81.775 143.173)" fill="#D9FFFF"/>
<circle cx="77.8258" cy="138.18" r="4.5" transform="rotate(176.65 77.8258 138.18)" fill="#D9FFFF"/>
<circle cx="74.6422" cy="132.881" r="4.5" transform="rotate(176.65 74.6422 132.881)" fill="#D9FFFF"/>
<circle cx="71.7028" cy="127.306" r="4.5" transform="rotate(176.65 71.7028 127.306)" fill="#D9FFFF"/>
<circle cx="69.2555" cy="121.179" r="4.5" transform="rotate(176.65 69.2555 121.179)" fill="#D9FFFF"/>
<circle cx="68.3688" cy="114.961" r="4.5" transform="rotate(176.65 68.3688 114.961)" fill="#D9FFFF"/>
<circle cx="67.9723" cy="108.192" r="4.5" transform="rotate(176.65 67.9723 108.192)" fill="#D9FFFF"/>
<circle cx="69.6588" cy="101.302" r="4.5" transform="rotate(176.65 69.6588 101.302)" fill="#D9FFFF"/>
<circle cx="71.8971" cy="94.9015" r="4.5" transform="rotate(176.65 71.8971 94.9015)" fill="#D9FFFF"/>
<circle cx="75.1608" cy="88.1788" r="4.5" transform="rotate(176.65 75.1608 88.1788)" fill="#D9FFFF"/>
<circle cx="79.0817" cy="83.2179" r="4.5" transform="rotate(176.65 79.0817 83.2179)" fill="#D9FFFF"/>
<circle cx="84.0465" cy="79.2989" r="4.5" transform="rotate(176.65 84.0465 79.2989)" fill="#D9FFFF"/>
<circle cx="135.58" cy="91.8253" r="4.5" transform="rotate(0.726778 135.58 91.8253)" fill="#FFFFC9"/>
<circle cx="140.075" cy="97.5723" r="4.5" transform="rotate(0.726778 140.075 97.5723)" fill="#FFFFC9"/>
<circle cx="141.571" cy="104.32" r="4.5" transform="rotate(0.726778 141.571 104.32)" fill="#FFFFC9"/>
<circle cx="143.073" cy="112.066" r="4.5" transform="rotate(0.726778 143.073 112.066)" fill="#FFFFC9"/>
<circle cx="141.574" cy="119.063" r="4.5" transform="rotate(0.726778 141.574 119.063)" fill="#FFFFC9"/>
<circle cx="139.323" cy="126.314" r="4.5" transform="rotate(0.726778 139.323 126.314)" fill="#FFFFC9"/>
<circle cx="135.283" cy="131.832" r="4.5" transform="rotate(0.726778 135.283 131.832)" fill="#FFFFC9"/>
<circle cx="130.582" cy="136.805" r="4.5" transform="rotate(0.726778 130.582 136.805)" fill="#FFFFC9"/>
<circle cx="124.832" cy="141.057" r="4.5" transform="rotate(0.726778 124.832 141.057)" fill="#FFFFC9"/>
<circle cx="116.585" cy="143.052" r="4.5" transform="rotate(0.726778 116.585 143.052)" fill="#FFFFC9"/>
<circle cx="90.0978" cy="137.055" r="4.5" transform="rotate(0.726778 90.0978 137.055)" fill="#FFFFC9"/>
<circle cx="109.84" cy="143.549" r="4.5" transform="rotate(0.726778 109.84 143.549)" fill="#FFFFC9"/>
<circle cx="102.839" cy="142.799" r="4.5" transform="rotate(0.726778 102.839 142.799)" fill="#FFFFC9"/>
<circle cx="96.092" cy="140.804" r="4.5" transform="rotate(0.726778 96.092 140.804)" fill="#FFFFC9"/>
<circle cx="103.839" cy="80.8262" r="4.5" transform="rotate(0.726778 103.839 80.8262)" fill="#FFFFC9"/>
<circle cx="98.091" cy="83.3292" r="4.5" transform="rotate(0.726778 98.091 83.3292)" fill="#FFFFC9"/>
<circle cx="110.944" cy="80.5421" r="4.5" transform="rotate(0.726778 110.944 80.5421)" fill="#FFFFC9"/>
<circle cx="110.944" cy="80.5421" r="4.5" transform="rotate(0.726778 110.944 80.5421)" fill="#FFFFC9"/>
<circle cx="118.832" cy="80.8262" r="4.5" transform="rotate(0.726778 118.832 80.8262)" fill="#FFFFC9"/>
<circle cx="125.142" cy="83.7276" r="4.5" transform="rotate(0.726778 125.142 83.7276)" fill="#FFFFC9"/>
<circle cx="131.076" cy="87.3272" r="4.5" transform="rotate(0.726778 131.076 87.3272)" fill="#FFFFC9"/>
<circle cx="85.9804" cy="131.671" r="4.5" transform="rotate(177.377 85.9804 131.671)" fill="#FFFFC9"/>
<circle cx="81.7881" cy="125.556" r="4.5" transform="rotate(177.377 81.7881 125.556)" fill="#FFFFC9"/>
<circle cx="79.6123" cy="118.63" r="4.5" transform="rotate(177.377 79.6123 118.63)" fill="#FFFFC9"/>
<circle cx="79.289" cy="111.563" r="4.5" transform="rotate(177.377 79.289 111.563)" fill="#FFFFC9"/>
<circle cx="80.289" cy="104.566" r="4.5" transform="rotate(177.377 80.289 104.566)" fill="#FFFFC9"/>
<circle cx="82.8789" cy="97.6286" r="4.5" transform="rotate(177.377 82.8789 97.6286)" fill="#FFFFC9"/>
<circle cx="86.7939" cy="91.2712" r="4.5" transform="rotate(177.377 86.7939 91.2712)" fill="#FFFFC9"/>
<circle cx="91.792" cy="86.2731" r="4.5" transform="rotate(177.377 91.792 86.2731)" fill="#FFFFC9"/>
<circle cx="125.5" cy="96.5" r="4.5" fill="#D9FFFF"/>
<circle cx="128.5" cy="101.5" r="4.5" fill="#D9FFFF"/>
<circle cx="131.5" cy="109.5" r="4.5" fill="#D9FFFF"/>
<circle cx="131.5" cy="116.5" r="4.5" fill="#D9FFFF"/>
<circle cx="128.5" cy="124.5" r="4.5" fill="#D9FFFF"/>
<circle cx="123.5" cy="129.5" r="4.5" fill="#D9FFFF"/>
<circle cx="117" cy="133.5" r="4.5" fill="#D9FFFF"/>
<circle cx="100.5" cy="131.5" r="4.5" fill="#D9FFFF"/>
<circle cx="108.5" cy="134.5" r="4.5" fill="#D9FFFF"/>
<circle cx="94.5" cy="128.5" r="4.5" fill="#D9FFFF"/>
<circle cx="90" cy="121" r="4.5" fill="#D9FFFF"/>
<circle cx="89.5" cy="114.5" r="4.5" fill="#D9FFFF"/>
<circle cx="89.5" cy="106.5" r="4.5" fill="#D9FFFF"/>
<circle cx="92.5" cy="100.5" r="4.5" fill="#D9FFFF"/>
<circle cx="97.5" cy="95.5" r="4.5" fill="#D9FFFF"/>
<circle cx="104" cy="91.5" r="4.5" fill="#D9FFFF"/>
<circle cx="111.5" cy="91.5" r="4.5" fill="#D9FFFF"/>
<circle cx="118" cy="93.5" r="4.5" fill="#D9FFFF"/>
</g>
<defs>
<filter id="filter0_ddd_99572_25140" x="-1" y="0" width="223" height="226" filterUnits="userSpaceOnUse" color-interpolation-filters="sRGB">
<feFlood flood-opacity="0" result="BackgroundImageFix"/>
<feColorMatrix in="SourceAlpha" type="matrix" values="0 0 0 0 0 0 0 0 0 0 0 0 0 0 0 0 0 0 127 0" result="hardAlpha"/>
<feOffset/>
<feGaussianBlur stdDeviation="5"/>
<feComposite in2="hardAlpha" operator="out"/>
<feColorMatrix type="matrix" values="0 0 0 0 1 0 0 0 0 1 0 0 0 0 1 0 0 0 0.23 0"/>
<feBlend mode="normal" in2="BackgroundImageFix" result="effect1_dropShadow_99572_25140"/>
<feColorMatrix in="SourceAlpha" type="matrix" values="0 0 0 0 0 0 0 0 0 0 0 0 0 0 0 0 0 0 127 0" result="hardAlpha"/>
<feOffset/>
<feGaussianBlur stdDeviation="6.5"/>
<feComposite in2="hardAlpha" operator="out"/>
<feColorMatrix type="matrix" values="0 0 0 0 1 0 0 0 0 0.541667 0 0 0 0 0.541667 0 0 0 0.25 0"/>
<feBlend mode="normal" in2="effect1_dropShadow_99572_25140" result="effect2_dropShadow_99572_25140"/>
<feColorMatrix in="SourceAlpha" type="matrix" values="0 0 0 0 0 0 0 0 0 0 0 0 0 0 0 0 0 0 127 0" result="hardAlpha"/>
<feOffset/>
<feGaussianBlur stdDeviation="12"/>
<feComposite in2="hardAlpha" operator="out"/>
<feColorMatrix type="matrix" values="0 0 0 0 1 0 0 0 0 1 0 0 0 0 1 0 0 0 0.45 0"/>
<feBlend mode="normal" in2="effect2_dropShadow_99572_25140" result="effect3_dropShadow_99572_25140"/>
<feBlend mode="normal" in="SourceGraphic" in2="effect3_dropShadow_99572_25140" result="shape"/>
</filter>
</defs>
</svg>
