<svg width="326" height="324" viewBox="0 0 326 324" fill="none" xmlns="http://www.w3.org/2000/svg">
<g filter="url(#filter0_ddd_99572_20864)">
<circle cx="252" cy="73.5" r="4.5" fill="#D9FFFF"/>
<circle cx="264" cy="86.5" r="4.5" fill="#D9FFFF"/>
<circle cx="272.5" cy="104" r="4.5" fill="#D9FFFF"/>
<circle cx="281" cy="121" r="4.5" fill="#D9FFFF"/>
<circle cx="286.5" cy="143" r="4.5" fill="#D9FFFF"/>
<circle cx="287.5" cy="156" r="4.5" fill="#D9FFFF"/>
<circle cx="287.5" cy="179" r="4.5" fill="#D9FFFF"/>
<circle cx="283.5" cy="200" r="4.5" fill="#D9FFFF"/>
<circle cx="274.5" cy="220" r="4.5" fill="#D9FFFF"/>
<circle cx="263.5" cy="239.5" r="4.5" fill="#D9FFFF"/>
<circle cx="249.5" cy="250.5" r="4.5" fill="#D9FFFF"/>
<circle cx="236" cy="263.5" r="4.5" fill="#D9FFFF"/>
<circle cx="216.5" cy="274.5" r="4.5" fill="#D9FFFF"/>
<circle cx="197" cy="282" r="4.5" fill="#D9FFFF"/>
<circle cx="177" cy="285" r="4.5" fill="#D9FFFF"/>
<circle cx="97" cy="264" r="4.5" fill="#D9FFFF"/>
<circle cx="154" cy="286" r="4.5" fill="#D9FFFF"/>
<circle cx="132" cy="284" r="4.5" fill="#D9FFFF"/>
<circle cx="114" cy="277" r="4.5" fill="#D9FFFF"/>
<circle cx="125" cy="44.5" r="4.5" fill="#D9FFFF"/>
<circle cx="106" cy="55" r="4.5" fill="#D9FFFF"/>
<circle cx="169" cy="38" r="4.5" fill="#D9FFFF"/>
<circle cx="169" cy="38" r="4.5" fill="#D9FFFF"/>
<circle cx="169" cy="38" r="4.5" fill="#D9FFFF"/>
<circle cx="147" cy="40" r="4.5" fill="#D9FFFF"/>
<circle cx="184.5" cy="40" r="4.5" fill="#D9FFFF"/>
<circle cx="205" cy="44.5" r="4.5" fill="#D9FFFF"/>
<circle cx="223" cy="51" r="4.5" fill="#D9FFFF"/>
<circle cx="239" cy="62" r="4.5" fill="#D9FFFF"/>
<circle cx="80.734" cy="255.632" r="4.5" transform="rotate(176.65 80.734 255.632)" fill="#D9FFFF"/>
<circle cx="68.8707" cy="240.634" r="4.5" transform="rotate(176.65 68.8707 240.634)" fill="#D9FFFF"/>
<circle cx="59.3073" cy="224.716" r="4.5" transform="rotate(176.65 59.3073 224.716)" fill="#D9FFFF"/>
<circle cx="50.483" cy="207.97" r="4.5" transform="rotate(176.65 50.483 207.97)" fill="#D9FFFF"/>
<circle cx="43.1276" cy="189.569" r="4.5" transform="rotate(176.65 43.1276 189.569)" fill="#D9FFFF"/>
<circle cx="40.4674" cy="170.894" r="4.5" transform="rotate(176.65 40.4674 170.894)" fill="#D9FFFF"/>
<circle cx="39.276" cy="150.563" r="4.5" transform="rotate(176.65 39.276 150.563)" fill="#D9FFFF"/>
<circle cx="44.3424" cy="129.866" r="4.5" transform="rotate(176.65 44.3424 129.866)" fill="#D9FFFF"/>
<circle cx="51.0631" cy="110.642" r="4.5" transform="rotate(176.65 51.0631 110.642)" fill="#D9FFFF"/>
<circle cx="60.8668" cy="90.4513" r="4.5" transform="rotate(176.65 60.8668 90.4513)" fill="#D9FFFF"/>
<circle cx="72.6422" cy="75.5499" r="4.5" transform="rotate(176.65 72.6422 75.5499)" fill="#D9FFFF"/>
<circle cx="87.5524" cy="63.7814" r="4.5" transform="rotate(176.65 87.5524 63.7814)" fill="#D9FFFF"/>
<circle cx="238.789" cy="101.202" r="1.5" transform="rotate(0.726778 238.789 101.202)" fill="#FFFFC9"/>
<circle cx="252.317" cy="118.496" r="1.5" transform="rotate(0.726778 252.317 118.496)" fill="#FFFFC9"/>
<circle cx="256.819" cy="138.8" r="1.5" transform="rotate(0.726778 256.819 138.8)" fill="#FFFFC9"/>
<circle cx="261.338" cy="162.111" r="1.5" transform="rotate(0.726778 261.338 162.111)" fill="#FFFFC9"/>
<circle cx="256.829" cy="183.165" r="1.5" transform="rotate(0.726778 256.829 183.165)" fill="#FFFFC9"/>
<circle cx="250.051" cy="204.983" r="1.5" transform="rotate(0.726778 250.051 204.983)" fill="#FFFFC9"/>
<circle cx="237.897" cy="221.592" r="1.5" transform="rotate(0.726778 237.897 221.592)" fill="#FFFFC9"/>
<circle cx="223.75" cy="236.555" r="1.5" transform="rotate(0.726778 223.75 236.555)" fill="#FFFFC9"/>
<circle cx="206.446" cy="249.348" r="1.5" transform="rotate(0.726778 206.446 249.348)" fill="#FFFFC9"/>
<circle cx="181.631" cy="255.355" r="1.5" transform="rotate(0.726778 181.631 255.355)" fill="#FFFFC9"/>
<circle cx="101.924" cy="237.308" r="1.5" transform="rotate(0.726778 101.924 237.308)" fill="#FFFFC9"/>
<circle cx="161.329" cy="256.849" r="1.5" transform="rotate(0.726778 161.329 256.849)" fill="#FFFFC9"/>
<circle cx="140.264" cy="254.593" r="1.5" transform="rotate(0.726778 140.264 254.593)" fill="#FFFFC9"/>
<circle cx="119.961" cy="248.587" r="1.5" transform="rotate(0.726778 119.961 248.587)" fill="#FFFFC9"/>
<circle cx="143.272" cy="68.1048" r="1.5" transform="rotate(0.726778 143.272 68.1048)" fill="#FFFFC9"/>
<circle cx="125.977" cy="75.6341" r="1.5" transform="rotate(0.726778 125.977 75.6341)" fill="#FFFFC9"/>
<circle cx="164.653" cy="67.2494" r="1.5" transform="rotate(0.726778 164.653 67.2494)" fill="#FFFFC9"/>
<circle cx="188.389" cy="68.1048" r="1.5" transform="rotate(0.726778 188.389 68.1048)" fill="#FFFFC9"/>
<circle cx="207.379" cy="76.8343" r="1.5" transform="rotate(0.726778 207.379 76.8343)" fill="#FFFFC9"/>
<circle cx="225.235" cy="87.6664" r="1.5" transform="rotate(0.726778 225.235 87.6664)" fill="#FFFFC9"/>
<circle cx="89.5286" cy="221.104" r="1.5" transform="rotate(177.377 89.5286 221.104)" fill="#FFFFC9"/>
<circle cx="76.9163" cy="202.707" r="1.5" transform="rotate(177.377 76.9163 202.707)" fill="#FFFFC9"/>
<circle cx="70.3695" cy="181.863" r="1.5" transform="rotate(177.377 70.3695 181.863)" fill="#FFFFC9"/>
<circle cx="69.3968" cy="160.598" r="1.5" transform="rotate(177.377 69.3968 160.598)" fill="#FFFFC9"/>
<circle cx="72.4046" cy="139.542" r="1.5" transform="rotate(177.377 72.4046 139.542)" fill="#FFFFC9"/>
<circle cx="80.1995" cy="118.665" r="1.5" transform="rotate(177.377 80.1995 118.665)" fill="#FFFFC9"/>
<circle cx="91.9837" cy="99.5331" r="1.5" transform="rotate(177.377 91.9837 99.5331)" fill="#FFFFC9"/>
<circle cx="107.021" cy="84.494" r="1.5" transform="rotate(177.377 107.021 84.494)" fill="#FFFFC9"/>
</g>
<defs>
<filter id="filter0_ddd_99572_20864" x="0.422852" y="0" width="325.577" height="324" filterUnits="userSpaceOnUse" color-interpolation-filters="sRGB">
<feFlood flood-opacity="0" result="BackgroundImageFix"/>
<feColorMatrix in="SourceAlpha" type="matrix" values="0 0 0 0 0 0 0 0 0 0 0 0 0 0 0 0 0 0 127 0" result="hardAlpha"/>
<feOffset/>
<feGaussianBlur stdDeviation="5"/>
<feComposite in2="hardAlpha" operator="out"/>
<feColorMatrix type="matrix" values="0 0 0 0 1 0 0 0 0 1 0 0 0 0 1 0 0 0 0.23 0"/>
<feBlend mode="normal" in2="BackgroundImageFix" result="effect1_dropShadow_99572_20864"/>
<feColorMatrix in="SourceAlpha" type="matrix" values="0 0 0 0 0 0 0 0 0 0 0 0 0 0 0 0 0 0 127 0" result="hardAlpha"/>
<feOffset/>
<feGaussianBlur stdDeviation="6.5"/>
<feComposite in2="hardAlpha" operator="out"/>
<feColorMatrix type="matrix" values="0 0 0 0 1 0 0 0 0 0.541667 0 0 0 0 0.541667 0 0 0 0.25 0"/>
<feBlend mode="normal" in2="effect1_dropShadow_99572_20864" result="effect2_dropShadow_99572_20864"/>
<feColorMatrix in="SourceAlpha" type="matrix" values="0 0 0 0 0 0 0 0 0 0 0 0 0 0 0 0 0 0 127 0" result="hardAlpha"/>
<feOffset/>
<feGaussianBlur stdDeviation="12"/>
<feComposite in2="hardAlpha" operator="out"/>
<feColorMatrix type="matrix" values="0 0 0 0 1 0 0 0 0 1 0 0 0 0 1 0 0 0 0.45 0"/>
<feBlend mode="normal" in2="effect2_dropShadow_99572_20864" result="effect3_dropShadow_99572_20864"/>
<feBlend mode="normal" in="SourceGraphic" in2="effect3_dropShadow_99572_20864" result="shape"/>
</filter>
</defs>
</svg>
