<svg width="326" height="324" viewBox="0 0 326 324" fill="none" xmlns="http://www.w3.org/2000/svg">
<g filter="url(#filter0_ddd_99572_21220)">
<circle cx="252" cy="73.5" r="4.5" fill="#D9FFFF"/>
<circle cx="264" cy="86.5" r="4.5" fill="#D9FFFF"/>
<circle cx="272.5" cy="104" r="4.5" fill="#D9FFFF"/>
<circle cx="281" cy="121" r="4.5" fill="#D9FFFF"/>
<circle cx="286.5" cy="143" r="4.5" fill="#D9FFFF"/>
<circle cx="287.5" cy="156" r="4.5" fill="#D9FFFF"/>
<circle cx="287.5" cy="179" r="4.5" fill="#D9FFFF"/>
<circle cx="283.5" cy="200" r="4.5" fill="#D9FFFF"/>
<circle cx="274.5" cy="220" r="4.5" fill="#D9FFFF"/>
<circle cx="263.5" cy="239.5" r="4.5" fill="#D9FFFF"/>
<circle cx="249.5" cy="250.5" r="4.5" fill="#D9FFFF"/>
<circle cx="236" cy="263.5" r="4.5" fill="#D9FFFF"/>
<circle cx="216.5" cy="274.5" r="4.5" fill="#D9FFFF"/>
<circle cx="197" cy="282" r="4.5" fill="#D9FFFF"/>
<circle cx="177" cy="285" r="4.5" fill="#D9FFFF"/>
<circle cx="97" cy="264" r="4.5" fill="#D9FFFF"/>
<circle cx="154" cy="286" r="4.5" fill="#D9FFFF"/>
<circle cx="132" cy="284" r="4.5" fill="#D9FFFF"/>
<circle cx="114" cy="277" r="4.5" fill="#D9FFFF"/>
<circle cx="125" cy="44.5" r="4.5" fill="#D9FFFF"/>
<circle cx="106" cy="55" r="4.5" fill="#D9FFFF"/>
<circle cx="169" cy="38" r="4.5" fill="#D9FFFF"/>
<circle cx="169" cy="38" r="4.5" fill="#D9FFFF"/>
<circle cx="169" cy="38" r="4.5" fill="#D9FFFF"/>
<circle cx="147" cy="40" r="4.5" fill="#D9FFFF"/>
<circle cx="184.5" cy="40" r="4.5" fill="#D9FFFF"/>
<circle cx="205" cy="44.5" r="4.5" fill="#D9FFFF"/>
<circle cx="223" cy="51" r="4.5" fill="#D9FFFF"/>
<circle cx="239" cy="62" r="4.5" fill="#D9FFFF"/>
<circle cx="80.734" cy="255.632" r="4.5" transform="rotate(176.65 80.734 255.632)" fill="#D9FFFF"/>
<circle cx="68.8707" cy="240.634" r="4.5" transform="rotate(176.65 68.8707 240.634)" fill="#D9FFFF"/>
<circle cx="59.3073" cy="224.716" r="4.5" transform="rotate(176.65 59.3073 224.716)" fill="#D9FFFF"/>
<circle cx="50.483" cy="207.97" r="4.5" transform="rotate(176.65 50.483 207.97)" fill="#D9FFFF"/>
<circle cx="43.1276" cy="189.569" r="4.5" transform="rotate(176.65 43.1276 189.569)" fill="#D9FFFF"/>
<circle cx="40.4674" cy="170.894" r="4.5" transform="rotate(176.65 40.4674 170.894)" fill="#D9FFFF"/>
<circle cx="39.276" cy="150.563" r="4.5" transform="rotate(176.65 39.276 150.563)" fill="#D9FFFF"/>
<circle cx="44.3424" cy="129.866" r="4.5" transform="rotate(176.65 44.3424 129.866)" fill="#D9FFFF"/>
<circle cx="51.0631" cy="110.642" r="4.5" transform="rotate(176.65 51.0631 110.642)" fill="#D9FFFF"/>
<circle cx="60.8668" cy="90.4513" r="4.5" transform="rotate(176.65 60.8668 90.4513)" fill="#D9FFFF"/>
<circle cx="72.6422" cy="75.5499" r="4.5" transform="rotate(176.65 72.6422 75.5499)" fill="#D9FFFF"/>
<circle cx="87.5524" cy="63.7814" r="4.5" transform="rotate(176.65 87.5524 63.7814)" fill="#D9FFFF"/>
<circle cx="239.481" cy="100.632" r="1" transform="rotate(0.726778 239.481 100.632)" fill="#FFFFC9"/>
<circle cx="253.134" cy="118.089" r="1" transform="rotate(0.726778 253.134 118.089)" fill="#FFFFC9"/>
<circle cx="257.677" cy="138.582" r="1" transform="rotate(0.726778 257.677 138.582)" fill="#FFFFC9"/>
<circle cx="262.241" cy="162.111" r="1" transform="rotate(0.726778 262.241 162.111)" fill="#FFFFC9"/>
<circle cx="257.686" cy="183.363" r="1" transform="rotate(0.726778 257.686 183.363)" fill="#FFFFC9"/>
<circle cx="250.845" cy="205.384" r="1" transform="rotate(0.726778 250.845 205.384)" fill="#FFFFC9"/>
<circle cx="238.581" cy="222.148" r="1" transform="rotate(0.726778 238.581 222.148)" fill="#FFFFC9"/>
<circle cx="224.3" cy="237.252" r="1" transform="rotate(0.726778 224.3 237.252)" fill="#FFFFC9"/>
<circle cx="206.833" cy="250.165" r="1" transform="rotate(0.726778 206.833 250.165)" fill="#FFFFC9"/>
<circle cx="181.788" cy="256.226" r="1" transform="rotate(0.726778 181.788 256.226)" fill="#FFFFC9"/>
<circle cx="101.332" cy="238.011" r="1" transform="rotate(0.726778 101.332 238.011)" fill="#FFFFC9"/>
<circle cx="161.294" cy="257.735" r="1" transform="rotate(0.726778 161.294 257.735)" fill="#FFFFC9"/>
<circle cx="140.032" cy="255.458" r="1" transform="rotate(0.726778 140.032 255.458)" fill="#FFFFC9"/>
<circle cx="119.539" cy="249.396" r="1" transform="rotate(0.726778 119.539 249.396)" fill="#FFFFC9"/>
<circle cx="143.067" cy="67.2265" r="1" transform="rotate(0.726778 143.067 67.2265)" fill="#FFFFC9"/>
<circle cx="125.611" cy="74.8261" r="1" transform="rotate(0.726778 125.611 74.8261)" fill="#FFFFC9"/>
<circle cx="164.651" cy="66.3622" r="1" transform="rotate(0.726778 164.651 66.3622)" fill="#FFFFC9"/>
<circle cx="188.608" cy="67.2255" r="1" transform="rotate(0.726778 188.608 67.2255)" fill="#FFFFC9"/>
<circle cx="207.774" cy="76.037" r="1" transform="rotate(0.726778 207.774 76.037)" fill="#FFFFC9"/>
<circle cx="225.8" cy="86.9696" r="1" transform="rotate(0.726778 225.8 86.9696)" fill="#FFFFC9"/>
<circle cx="88.8234" cy="221.656" r="1" transform="rotate(177.377 88.8234 221.656)" fill="#FFFFC9"/>
<circle cx="76.092" cy="203.087" r="1" transform="rotate(177.377 76.092 203.087)" fill="#FFFFC9"/>
<circle cx="69.4826" cy="182.049" r="1" transform="rotate(177.377 69.4826 182.049)" fill="#FFFFC9"/>
<circle cx="68.5022" cy="160.583" r="1" transform="rotate(177.377 68.5022 160.583)" fill="#FFFFC9"/>
<circle cx="71.5373" cy="139.331" r="1" transform="rotate(177.377 71.5373 139.331)" fill="#FFFFC9"/>
<circle cx="79.4045" cy="118.259" r="1" transform="rotate(177.377 79.4045 118.259)" fill="#FFFFC9"/>
<circle cx="91.299" cy="98.9492" r="1" transform="rotate(177.377 91.299 98.9492)" fill="#FFFFC9"/>
<circle cx="106.479" cy="83.7685" r="1" transform="rotate(177.377 106.479 83.7685)" fill="#FFFFC9"/>
</g>
<defs>
<filter id="filter0_ddd_99572_21220" x="0.422852" y="0" width="325.577" height="324" filterUnits="userSpaceOnUse" color-interpolation-filters="sRGB">
<feFlood flood-opacity="0" result="BackgroundImageFix"/>
<feColorMatrix in="SourceAlpha" type="matrix" values="0 0 0 0 0 0 0 0 0 0 0 0 0 0 0 0 0 0 127 0" result="hardAlpha"/>
<feOffset/>
<feGaussianBlur stdDeviation="5"/>
<feComposite in2="hardAlpha" operator="out"/>
<feColorMatrix type="matrix" values="0 0 0 0 1 0 0 0 0 1 0 0 0 0 1 0 0 0 0.23 0"/>
<feBlend mode="normal" in2="BackgroundImageFix" result="effect1_dropShadow_99572_21220"/>
<feColorMatrix in="SourceAlpha" type="matrix" values="0 0 0 0 0 0 0 0 0 0 0 0 0 0 0 0 0 0 127 0" result="hardAlpha"/>
<feOffset/>
<feGaussianBlur stdDeviation="6.5"/>
<feComposite in2="hardAlpha" operator="out"/>
<feColorMatrix type="matrix" values="0 0 0 0 1 0 0 0 0 0.541667 0 0 0 0 0.541667 0 0 0 0.25 0"/>
<feBlend mode="normal" in2="effect1_dropShadow_99572_21220" result="effect2_dropShadow_99572_21220"/>
<feColorMatrix in="SourceAlpha" type="matrix" values="0 0 0 0 0 0 0 0 0 0 0 0 0 0 0 0 0 0 127 0" result="hardAlpha"/>
<feOffset/>
<feGaussianBlur stdDeviation="12"/>
<feComposite in2="hardAlpha" operator="out"/>
<feColorMatrix type="matrix" values="0 0 0 0 1 0 0 0 0 1 0 0 0 0 1 0 0 0 0.45 0"/>
<feBlend mode="normal" in2="effect2_dropShadow_99572_21220" result="effect3_dropShadow_99572_21220"/>
<feBlend mode="normal" in="SourceGraphic" in2="effect3_dropShadow_99572_21220" result="shape"/>
</filter>
</defs>
</svg>
