<svg width="336" height="334" viewBox="0 0 336 334" fill="none" xmlns="http://www.w3.org/2000/svg">
<g filter="url(#filter0_ddd_99572_21576)">
<circle cx="260" cy="75.5" r="3" fill="#D9FFFF"/>
<circle cx="272.5" cy="89" r="3" fill="#D9FFFF"/>
<circle cx="281.5" cy="106.5" r="3" fill="#D9FFFF"/>
<circle cx="290" cy="124.5" r="3" fill="#D9FFFF"/>
<circle cx="296" cy="147.5" r="3" fill="#D9FFFF"/>
<circle cx="297" cy="161" r="3" fill="#D9FFFF"/>
<circle cx="297" cy="184.5" r="3" fill="#D9FFFF"/>
<circle cx="293" cy="206.5" r="3" fill="#D9FFFF"/>
<circle cx="283.5" cy="227.5" r="3" fill="#D9FFFF"/>
<circle cx="272" cy="247" r="3" fill="#D9FFFF"/>
<circle cx="257.5" cy="258.5" r="3" fill="#D9FFFF"/>
<circle cx="243.5" cy="272" r="3" fill="#D9FFFF"/>
<circle cx="223.5" cy="283.5" r="3" fill="#D9FFFF"/>
<circle cx="203" cy="291.5" r="3" fill="#D9FFFF"/>
<circle cx="182.5" cy="294.5" r="3" fill="#D9FFFF"/>
<circle cx="99.5" cy="272.5" r="3" fill="#D9FFFF"/>
<circle cx="159" cy="295.5" r="3" fill="#D9FFFF"/>
<circle cx="136" cy="293.5" r="3" fill="#D9FFFF"/>
<circle cx="117" cy="286" r="3" fill="#D9FFFF"/>
<circle cx="128.5" cy="45.5" r="3" fill="#D9FFFF"/>
<circle cx="108.5" cy="56" r="3" fill="#D9FFFF"/>
<circle cx="174" cy="38.5" r="3" fill="#D9FFFF"/>
<circle cx="174" cy="38.5" r="3" fill="#D9FFFF"/>
<circle cx="174" cy="38.5" r="3" fill="#D9FFFF"/>
<circle cx="151.5" cy="40.5" r="3" fill="#D9FFFF"/>
<circle cx="190.5" cy="40.5" r="3" fill="#D9FFFF"/>
<circle cx="211.5" cy="45.5" r="3" fill="#D9FFFF"/>
<circle cx="230.5" cy="52" r="3" fill="#D9FFFF"/>
<circle cx="246.5" cy="63.5" r="3" fill="#D9FFFF"/>
<circle cx="82.7615" cy="264.005" r="3" transform="rotate(176.65 82.7615 264.005)" fill="#D9FFFF"/>
<circle cx="70.4724" cy="248.466" r="3" transform="rotate(176.65 70.4724 248.466)" fill="#D9FFFF"/>
<circle cx="60.5642" cy="231.974" r="3" transform="rotate(176.65 60.5642 231.974)" fill="#D9FFFF"/>
<circle cx="51.4197" cy="214.626" r="3" transform="rotate(176.65 51.4197 214.626)" fill="#D9FFFF"/>
<circle cx="43.8025" cy="195.562" r="3" transform="rotate(176.65 43.8025 195.562)" fill="#D9FFFF"/>
<circle cx="41.0447" cy="176.214" r="3" transform="rotate(176.65 41.0447 176.214)" fill="#D9FFFF"/>
<circle cx="39.8103" cy="155.151" r="3" transform="rotate(176.65 39.8103 155.151)" fill="#D9FFFF"/>
<circle cx="45.0584" cy="133.708" r="3" transform="rotate(176.65 45.0584 133.708)" fill="#D9FFFF"/>
<circle cx="52.0213" cy="113.791" r="3" transform="rotate(176.65 52.0213 113.791)" fill="#D9FFFF"/>
<circle cx="62.1795" cy="92.8747" r="3" transform="rotate(176.65 62.1795 92.8747)" fill="#D9FFFF"/>
<circle cx="74.3787" cy="77.4353" r="3" transform="rotate(176.65 74.3787 77.4353)" fill="#D9FFFF"/>
<circle cx="89.8259" cy="65.2429" r="3" transform="rotate(176.65 89.8259 65.2429)" fill="#D9FFFF"/>
</g>
<defs>
<filter id="filter0_ddd_99572_21576" x="0.421875" y="0" width="335.578" height="334" filterUnits="userSpaceOnUse" color-interpolation-filters="sRGB">
<feFlood flood-opacity="0" result="BackgroundImageFix"/>
<feColorMatrix in="SourceAlpha" type="matrix" values="0 0 0 0 0 0 0 0 0 0 0 0 0 0 0 0 0 0 127 0" result="hardAlpha"/>
<feOffset/>
<feGaussianBlur stdDeviation="5"/>
<feComposite in2="hardAlpha" operator="out"/>
<feColorMatrix type="matrix" values="0 0 0 0 1 0 0 0 0 1 0 0 0 0 1 0 0 0 0.23 0"/>
<feBlend mode="normal" in2="BackgroundImageFix" result="effect1_dropShadow_99572_21576"/>
<feColorMatrix in="SourceAlpha" type="matrix" values="0 0 0 0 0 0 0 0 0 0 0 0 0 0 0 0 0 0 127 0" result="hardAlpha"/>
<feOffset/>
<feGaussianBlur stdDeviation="6.5"/>
<feComposite in2="hardAlpha" operator="out"/>
<feColorMatrix type="matrix" values="0 0 0 0 1 0 0 0 0 0.541667 0 0 0 0 0.541667 0 0 0 0.25 0"/>
<feBlend mode="normal" in2="effect1_dropShadow_99572_21576" result="effect2_dropShadow_99572_21576"/>
<feColorMatrix in="SourceAlpha" type="matrix" values="0 0 0 0 0 0 0 0 0 0 0 0 0 0 0 0 0 0 127 0" result="hardAlpha"/>
<feOffset/>
<feGaussianBlur stdDeviation="12"/>
<feComposite in2="hardAlpha" operator="out"/>
<feColorMatrix type="matrix" values="0 0 0 0 1 0 0 0 0 1 0 0 0 0 1 0 0 0 0.45 0"/>
<feBlend mode="normal" in2="effect2_dropShadow_99572_21576" result="effect3_dropShadow_99572_21576"/>
<feBlend mode="normal" in="SourceGraphic" in2="effect3_dropShadow_99572_21576" result="shape"/>
</filter>
</defs>
</svg>
