<svg width="222" height="224" viewBox="0 0 222 224" fill="none" xmlns="http://www.w3.org/2000/svg">
<g filter="url(#filter0_ddd_99572_25500)">
<circle cx="142.5" cy="78" r="4.5" fill="#D9FFFF"/>
<circle cx="147.5" cy="85" r="4.5" fill="#D9FFFF"/>
<circle cx="150.5" cy="91" r="4.5" fill="#D9FFFF"/>
<circle cx="152.5" cy="97.5" r="4.5" fill="#D9FFFF"/>
<circle cx="155.5" cy="104" r="4.5" fill="#D9FFFF"/>
<circle cx="156.5" cy="111.5" r="4.5" fill="#D9FFFF"/>
<circle cx="156.5" cy="118.5" r="4.5" fill="#D9FFFF"/>
<circle cx="154" cy="126" r="4.5" fill="#D9FFFF"/>
<circle cx="151" cy="133" r="4.5" fill="#D9FFFF"/>
<circle cx="147.5" cy="141" r="4.5" fill="#D9FFFF"/>
<circle cx="141.5" cy="146" r="4.5" fill="#D9FFFF"/>
<circle cx="136" cy="150.5" r="4.5" fill="#D9FFFF"/>
<circle cx="129.5" cy="154" r="4.5" fill="#D9FFFF"/>
<circle cx="122" cy="156.5" r="4.5" fill="#D9FFFF"/>
<circle cx="114.5" cy="158.5" r="4.5" fill="#D9FFFF"/>
<circle cx="84" cy="151" r="4.5" fill="#D9FFFF"/>
<circle cx="106.5" cy="159" r="4.5" fill="#D9FFFF"/>
<circle cx="98.5" cy="158" r="4.5" fill="#D9FFFF"/>
<circle cx="91" cy="154.5" r="4.5" fill="#D9FFFF"/>
<circle cx="94.5" cy="67.5" r="4.5" fill="#D9FFFF"/>
<circle cx="88.5" cy="71.5" r="4.5" fill="#D9FFFF"/>
<circle cx="110" cy="65" r="4.5" fill="#D9FFFF"/>
<circle cx="110" cy="65" r="4.5" fill="#D9FFFF"/>
<circle cx="110" cy="65" r="4.5" fill="#D9FFFF"/>
<circle cx="103" cy="66" r="4.5" fill="#D9FFFF"/>
<circle cx="117.5" cy="66" r="4.5" fill="#D9FFFF"/>
<circle cx="124.5" cy="67.5" r="4.5" fill="#D9FFFF"/>
<circle cx="131.5" cy="70.5" r="4.5" fill="#D9FFFF"/>
<circle cx="137" cy="74.5" r="4.5" fill="#D9FFFF"/>
<circle cx="78.195" cy="147.196" r="4.5" transform="rotate(176.65 78.195 147.196)" fill="#D9FFFF"/>
<circle cx="73.736" cy="141.559" r="4.5" transform="rotate(176.65 73.736 141.559)" fill="#D9FFFF"/>
<circle cx="70.1422" cy="135.575" r="4.5" transform="rotate(176.65 70.1422 135.575)" fill="#D9FFFF"/>
<circle cx="66.8229" cy="129.28" r="4.5" transform="rotate(176.65 66.8229 129.28)" fill="#D9FFFF"/>
<circle cx="64.0602" cy="122.363" r="4.5" transform="rotate(176.65 64.0602 122.363)" fill="#D9FFFF"/>
<circle cx="63.0592" cy="115.344" r="4.5" transform="rotate(176.65 63.0592 115.344)" fill="#D9FFFF"/>
<circle cx="62.611" cy="107.7" r="4.5" transform="rotate(176.65 62.611 107.7)" fill="#D9FFFF"/>
<circle cx="64.5153" cy="99.921" r="4.5" transform="rotate(176.65 64.5153 99.921)" fill="#D9FFFF"/>
<circle cx="67.0426" cy="92.6935" r="4.5" transform="rotate(176.65 67.0426 92.6935)" fill="#D9FFFF"/>
<circle cx="70.7262" cy="85.1046" r="4.5" transform="rotate(176.65 70.7262 85.1046)" fill="#D9FFFF"/>
<circle cx="75.153" cy="79.503" r="4.5" transform="rotate(176.65 75.153 79.503)" fill="#D9FFFF"/>
<circle cx="80.7594" cy="75.0782" r="4.5" transform="rotate(176.65 80.7594 75.0782)" fill="#D9FFFF"/>
<circle cx="139.774" cy="88.3634" r="4.5" transform="rotate(0.726778 139.774 88.3634)" fill="#FFFFC9"/>
<circle cx="145.039" cy="95.0958" r="4.5" transform="rotate(0.726778 145.039 95.0958)" fill="#FFFFC9"/>
<circle cx="146.79" cy="102.997" r="4.5" transform="rotate(0.726778 146.79 102.997)" fill="#FFFFC9"/>
<circle cx="148.55" cy="112.07" r="4.5" transform="rotate(0.726778 148.55 112.07)" fill="#FFFFC9"/>
<circle cx="146.795" cy="120.265" r="4.5" transform="rotate(0.726778 146.795 120.265)" fill="#FFFFC9"/>
<circle cx="144.156" cy="128.756" r="4.5" transform="rotate(0.726778 144.156 128.756)" fill="#FFFFC9"/>
<circle cx="139.427" cy="135.221" r="4.5" transform="rotate(0.726778 139.427 135.221)" fill="#FFFFC9"/>
<circle cx="133.92" cy="141.044" r="4.5" transform="rotate(0.726778 133.92 141.044)" fill="#FFFFC9"/>
<circle cx="127.186" cy="146.024" r="4.5" transform="rotate(0.726778 127.186 146.024)" fill="#FFFFC9"/>
<circle cx="117.527" cy="148.361" r="4.5" transform="rotate(0.726778 117.527 148.361)" fill="#FFFFC9"/>
<circle cx="86.5051" cy="141.338" r="4.5" transform="rotate(0.726778 86.5051 141.338)" fill="#FFFFC9"/>
<circle cx="109.625" cy="148.943" r="4.5" transform="rotate(0.726778 109.625 148.943)" fill="#FFFFC9"/>
<circle cx="101.427" cy="148.065" r="4.5" transform="rotate(0.726778 101.427 148.065)" fill="#FFFFC9"/>
<circle cx="93.5246" cy="145.728" r="4.5" transform="rotate(0.726778 93.5246 145.728)" fill="#FFFFC9"/>
<circle cx="102.598" cy="75.4825" r="4.5" transform="rotate(0.726778 102.598 75.4825)" fill="#FFFFC9"/>
<circle cx="95.8654" cy="78.4132" r="4.5" transform="rotate(0.726778 95.8654 78.4132)" fill="#FFFFC9"/>
<circle cx="110.919" cy="75.1495" r="4.5" transform="rotate(0.726778 110.919 75.1495)" fill="#FFFFC9"/>
<circle cx="110.919" cy="75.1495" r="4.5" transform="rotate(0.726778 110.919 75.1495)" fill="#FFFFC9"/>
<circle cx="120.157" cy="75.4825" r="4.5" transform="rotate(0.726778 120.157 75.4825)" fill="#FFFFC9"/>
<circle cx="127.547" cy="78.88" r="4.5" transform="rotate(0.726778 127.547 78.88)" fill="#FFFFC9"/>
<circle cx="134.498" cy="83.0958" r="4.5" transform="rotate(0.726778 134.498 83.0958)" fill="#FFFFC9"/>
<circle cx="81.6816" cy="135.031" r="4.5" transform="rotate(177.377 81.6816 135.031)" fill="#FFFFC9"/>
<circle cx="76.7715" cy="127.871" r="4.5" transform="rotate(177.377 76.7715 127.871)" fill="#FFFFC9"/>
<circle cx="74.2226" cy="119.758" r="4.5" transform="rotate(177.377 74.2226 119.758)" fill="#FFFFC9"/>
<circle cx="73.8447" cy="111.481" r="4.5" transform="rotate(177.377 73.8447 111.481)" fill="#FFFFC9"/>
<circle cx="75.0156" cy="103.286" r="4.5" transform="rotate(177.377 75.0156 103.286)" fill="#FFFFC9"/>
<circle cx="78.0488" cy="95.1599" r="4.5" transform="rotate(177.377 78.0488 95.1599)" fill="#FFFFC9"/>
<circle cx="82.6347" cy="87.7145" r="4.5" transform="rotate(177.377 82.6347 87.7145)" fill="#FFFFC9"/>
<circle cx="88.4883" cy="81.861" r="4.5" transform="rotate(177.377 88.4883 81.861)" fill="#FFFFC9"/>
<circle cx="128" cy="94" r="4.5" fill="#D9FFFF"/>
<circle cx="131.5" cy="100" r="4.5" fill="#D9FFFF"/>
<circle cx="135" cy="109" r="4.5" fill="#D9FFFF"/>
<circle cx="135" cy="117" r="4.5" fill="#D9FFFF"/>
<circle cx="131.5" cy="126.5" r="4.5" fill="#D9FFFF"/>
<circle cx="126" cy="132" r="4.5" fill="#D9FFFF"/>
<circle cx="118" cy="137" r="4.5" fill="#D9FFFF"/>
<circle cx="99" cy="135" r="4.5" fill="#D9FFFF"/>
<circle cx="108" cy="138" r="4.5" fill="#D9FFFF"/>
<circle cx="92" cy="131" r="4.5" fill="#D9FFFF"/>
<circle cx="86.5" cy="122.5" r="4.5" fill="#D9FFFF"/>
<circle cx="86" cy="115" r="4.5" fill="#D9FFFF"/>
<circle cx="86" cy="105.5" r="4.5" fill="#D9FFFF"/>
<circle cx="89.5" cy="98.5" r="4.5" fill="#D9FFFF"/>
<circle cx="95" cy="93" r="4.5" fill="#D9FFFF"/>
<circle cx="103" cy="88" r="4.5" fill="#D9FFFF"/>
<circle cx="112" cy="88" r="4.5" fill="#D9FFFF"/>
<circle cx="119.5" cy="90.5" r="4.5" fill="#D9FFFF"/>
</g>
<defs>
<filter id="filter0_ddd_99572_25500" x="-1" y="0" width="223" height="226" filterUnits="userSpaceOnUse" color-interpolation-filters="sRGB">
<feFlood flood-opacity="0" result="BackgroundImageFix"/>
<feColorMatrix in="SourceAlpha" type="matrix" values="0 0 0 0 0 0 0 0 0 0 0 0 0 0 0 0 0 0 127 0" result="hardAlpha"/>
<feOffset/>
<feGaussianBlur stdDeviation="5"/>
<feComposite in2="hardAlpha" operator="out"/>
<feColorMatrix type="matrix" values="0 0 0 0 1 0 0 0 0 1 0 0 0 0 1 0 0 0 0.23 0"/>
<feBlend mode="normal" in2="BackgroundImageFix" result="effect1_dropShadow_99572_25500"/>
<feColorMatrix in="SourceAlpha" type="matrix" values="0 0 0 0 0 0 0 0 0 0 0 0 0 0 0 0 0 0 127 0" result="hardAlpha"/>
<feOffset/>
<feGaussianBlur stdDeviation="6.5"/>
<feComposite in2="hardAlpha" operator="out"/>
<feColorMatrix type="matrix" values="0 0 0 0 1 0 0 0 0 0.541667 0 0 0 0 0.541667 0 0 0 0.25 0"/>
<feBlend mode="normal" in2="effect1_dropShadow_99572_25500" result="effect2_dropShadow_99572_25500"/>
<feColorMatrix in="SourceAlpha" type="matrix" values="0 0 0 0 0 0 0 0 0 0 0 0 0 0 0 0 0 0 127 0" result="hardAlpha"/>
<feOffset/>
<feGaussianBlur stdDeviation="12"/>
<feComposite in2="hardAlpha" operator="out"/>
<feColorMatrix type="matrix" values="0 0 0 0 1 0 0 0 0 1 0 0 0 0 1 0 0 0 0.45 0"/>
<feBlend mode="normal" in2="effect2_dropShadow_99572_25500" result="effect3_dropShadow_99572_25500"/>
<feBlend mode="normal" in="SourceGraphic" in2="effect3_dropShadow_99572_25500" result="shape"/>
</filter>
</defs>
</svg>
