<svg width="222" height="224" viewBox="0 0 222 224" fill="none" xmlns="http://www.w3.org/2000/svg">
<g filter="url(#filter0_ddd_99572_25860)">
<circle cx="146" cy="74" r="4.5" fill="#D9FFFF"/>
<circle cx="152" cy="82" r="4.5" fill="#D9FFFF"/>
<circle cx="155" cy="88.5" r="4.5" fill="#D9FFFF"/>
<circle cx="157" cy="96" r="4.5" fill="#D9FFFF"/>
<circle cx="161" cy="103" r="4.5" fill="#D9FFFF"/>
<circle cx="162" cy="111.5" r="4.5" fill="#D9FFFF"/>
<circle cx="162" cy="119" r="4.5" fill="#D9FFFF"/>
<circle cx="159" cy="127.5" r="4.5" fill="#D9FFFF"/>
<circle cx="155.5" cy="135.5" r="4.5" fill="#D9FFFF"/>
<circle cx="152" cy="144.5" r="4.5" fill="#D9FFFF"/>
<circle cx="145" cy="150" r="4.5" fill="#D9FFFF"/>
<circle cx="139" cy="155" r="4.5" fill="#D9FFFF"/>
<circle cx="132" cy="158.5" r="4.5" fill="#D9FFFF"/>
<circle cx="123.5" cy="162" r="4.5" fill="#D9FFFF"/>
<circle cx="115" cy="164" r="4.5" fill="#D9FFFF"/>
<circle cx="81" cy="155.5" r="4.5" fill="#D9FFFF"/>
<circle cx="106" cy="164.5" r="4.5" fill="#D9FFFF"/>
<circle cx="97" cy="163.5" r="4.5" fill="#D9FFFF"/>
<circle cx="89" cy="159" r="4.5" fill="#D9FFFF"/>
<circle cx="93" cy="62" r="4.5" fill="#D9FFFF"/>
<circle cx="86" cy="67" r="4.5" fill="#D9FFFF"/>
<circle cx="110" cy="59.5" r="4.5" fill="#D9FFFF"/>
<circle cx="110" cy="59.5" r="4.5" fill="#D9FFFF"/>
<circle cx="110" cy="59.5" r="4.5" fill="#D9FFFF"/>
<circle cx="102.5" cy="60.5" r="4.5" fill="#D9FFFF"/>
<circle cx="118" cy="60.5" r="4.5" fill="#D9FFFF"/>
<circle cx="126" cy="62" r="4.5" fill="#D9FFFF"/>
<circle cx="134" cy="66" r="4.5" fill="#D9FFFF"/>
<circle cx="140.5" cy="70" r="4.5" fill="#D9FFFF"/>
<circle cx="74.5817" cy="151.259" r="4.5" transform="rotate(176.65 74.5817 151.259)" fill="#D9FFFF"/>
<circle cx="69.608" cy="144.97" r="4.5" transform="rotate(176.65 69.608 144.97)" fill="#D9FFFF"/>
<circle cx="65.5993" cy="138.296" r="4.5" transform="rotate(176.65 65.5993 138.296)" fill="#D9FFFF"/>
<circle cx="61.8971" cy="131.275" r="4.5" transform="rotate(176.65 61.8971 131.275)" fill="#D9FFFF"/>
<circle cx="58.8151" cy="123.56" r="4.5" transform="rotate(176.65 58.8151 123.56)" fill="#D9FFFF"/>
<circle cx="57.6989" cy="115.729" r="4.5" transform="rotate(176.65 57.6989 115.729)" fill="#D9FFFF"/>
<circle cx="57.1989" cy="107.204" r="4.5" transform="rotate(176.65 57.1989 107.204)" fill="#D9FFFF"/>
<circle cx="59.3229" cy="98.5265" r="4.5" transform="rotate(176.65 59.3229 98.5265)" fill="#D9FFFF"/>
<circle cx="62.1422" cy="90.4659" r="4.5" transform="rotate(176.65 62.1422 90.4659)" fill="#D9FFFF"/>
<circle cx="66.2506" cy="82.0001" r="4.5" transform="rotate(176.65 66.2506 82.0001)" fill="#D9FFFF"/>
<circle cx="71.1881" cy="75.7521" r="4.5" transform="rotate(176.65 71.1881 75.7521)" fill="#D9FFFF"/>
<circle cx="77.4411" cy="70.8185" r="4.5" transform="rotate(176.65 77.4411 70.8185)" fill="#D9FFFF"/>
<circle cx="142.738" cy="85.9151" r="4.5" transform="rotate(0.726778 142.738 85.9151)" fill="#FFFFC9"/>
<circle cx="148.548" cy="93.3438" r="4.5" transform="rotate(0.726778 148.548 93.3438)" fill="#FFFFC9"/>
<circle cx="150.48" cy="102.062" r="4.5" transform="rotate(0.726778 150.48 102.062)" fill="#FFFFC9"/>
<circle cx="152.422" cy="112.073" r="4.5" transform="rotate(0.726778 152.422 112.073)" fill="#FFFFC9"/>
<circle cx="150.486" cy="121.114" r="4.5" transform="rotate(0.726778 150.486 121.114)" fill="#FFFFC9"/>
<circle cx="147.574" cy="130.483" r="4.5" transform="rotate(0.726778 147.574 130.483)" fill="#FFFFC9"/>
<circle cx="142.356" cy="137.616" r="4.5" transform="rotate(0.726778 142.356 137.616)" fill="#FFFFC9"/>
<circle cx="136.28" cy="144.041" r="4.5" transform="rotate(0.726778 136.28 144.041)" fill="#FFFFC9"/>
<circle cx="128.85" cy="149.536" r="4.5" transform="rotate(0.726778 128.85 149.536)" fill="#FFFFC9"/>
<circle cx="118.192" cy="152.115" r="4.5" transform="rotate(0.726778 118.192 152.115)" fill="#FFFFC9"/>
<circle cx="83.964" cy="144.365" r="4.5" transform="rotate(0.726778 83.964 144.365)" fill="#FFFFC9"/>
<circle cx="109.474" cy="152.756" r="4.5" transform="rotate(0.726778 109.474 152.756)" fill="#FFFFC9"/>
<circle cx="100.429" cy="151.788" r="4.5" transform="rotate(0.726778 100.429 151.788)" fill="#FFFFC9"/>
<circle cx="91.7092" cy="149.209" r="4.5" transform="rotate(0.726778 91.7092 149.209)" fill="#FFFFC9"/>
<circle cx="101.721" cy="71.7032" r="4.5" transform="rotate(0.726778 101.721 71.7032)" fill="#FFFFC9"/>
<circle cx="94.2912" cy="74.9366" r="4.5" transform="rotate(0.726778 94.2912 74.9366)" fill="#FFFFC9"/>
<circle cx="110.902" cy="71.336" r="4.5" transform="rotate(0.726778 110.902 71.336)" fill="#FFFFC9"/>
<circle cx="110.902" cy="71.336" r="4.5" transform="rotate(0.726778 110.902 71.336)" fill="#FFFFC9"/>
<circle cx="121.095" cy="71.7032" r="4.5" transform="rotate(0.726778 121.095 71.7032)" fill="#FFFFC9"/>
<circle cx="129.248" cy="75.4512" r="4.5" transform="rotate(0.726778 129.248 75.4512)" fill="#FFFFC9"/>
<circle cx="136.917" cy="80.1036" r="4.5" transform="rotate(0.726778 136.917 80.1036)" fill="#FFFFC9"/>
<circle cx="78.6416" cy="137.407" r="4.5" transform="rotate(177.377 78.6416 137.407)" fill="#FFFFC9"/>
<circle cx="73.2246" cy="129.507" r="4.5" transform="rotate(177.377 73.2246 129.507)" fill="#FFFFC9"/>
<circle cx="70.4121" cy="120.555" r="4.5" transform="rotate(177.377 70.4121 120.555)" fill="#FFFFC9"/>
<circle cx="69.9951" cy="111.423" r="4.5" transform="rotate(177.377 69.9951 111.423)" fill="#FFFFC9"/>
<circle cx="71.2871" cy="102.381" r="4.5" transform="rotate(177.377 71.2871 102.381)" fill="#FFFFC9"/>
<circle cx="74.6338" cy="93.4157" r="4.5" transform="rotate(177.377 74.6338 93.4157)" fill="#FFFFC9"/>
<circle cx="79.6943" cy="85.1989" r="4.5" transform="rotate(177.377 79.6943 85.1989)" fill="#FFFFC9"/>
<circle cx="86.1523" cy="78.7409" r="4.5" transform="rotate(177.377 86.1523 78.7409)" fill="#FFFFC9"/>
<circle cx="129" cy="92.5" r="4.5" fill="#D9FFFF"/>
<circle cx="133" cy="99" r="4.5" fill="#D9FFFF"/>
<circle cx="137" cy="109" r="4.5" fill="#D9FFFF"/>
<circle cx="137" cy="117" r="4.5" fill="#D9FFFF"/>
<circle cx="133" cy="127.5" r="4.5" fill="#D9FFFF"/>
<circle cx="127" cy="133.5" r="4.5" fill="#D9FFFF"/>
<circle cx="118.5" cy="138.5" r="4.5" fill="#D9FFFF"/>
<circle cx="98" cy="136.5" r="4.5" fill="#D9FFFF"/>
<circle cx="108" cy="140" r="4.5" fill="#D9FFFF"/>
<circle cx="90.5" cy="132" r="4.5" fill="#D9FFFF"/>
<circle cx="84.5" cy="123.5" r="4.5" fill="#D9FFFF"/>
<circle cx="84" cy="115" r="4.5" fill="#D9FFFF"/>
<circle cx="84" cy="105" r="4.5" fill="#D9FFFF"/>
<circle cx="88" cy="97.5" r="4.5" fill="#D9FFFF"/>
<circle cx="94" cy="91.5" r="4.5" fill="#D9FFFF"/>
<circle cx="102.5" cy="86" r="4.5" fill="#D9FFFF"/>
<circle cx="112" cy="86" r="4.5" fill="#D9FFFF"/>
<circle cx="120" cy="88.5" r="4.5" fill="#D9FFFF"/>
</g>
<defs>
<filter id="filter0_ddd_99572_25860" x="-1" y="0" width="223" height="226" filterUnits="userSpaceOnUse" color-interpolation-filters="sRGB">
<feFlood flood-opacity="0" result="BackgroundImageFix"/>
<feColorMatrix in="SourceAlpha" type="matrix" values="0 0 0 0 0 0 0 0 0 0 0 0 0 0 0 0 0 0 127 0" result="hardAlpha"/>
<feOffset/>
<feGaussianBlur stdDeviation="5"/>
<feComposite in2="hardAlpha" operator="out"/>
<feColorMatrix type="matrix" values="0 0 0 0 1 0 0 0 0 1 0 0 0 0 1 0 0 0 0.23 0"/>
<feBlend mode="normal" in2="BackgroundImageFix" result="effect1_dropShadow_99572_25860"/>
<feColorMatrix in="SourceAlpha" type="matrix" values="0 0 0 0 0 0 0 0 0 0 0 0 0 0 0 0 0 0 127 0" result="hardAlpha"/>
<feOffset/>
<feGaussianBlur stdDeviation="6.5"/>
<feComposite in2="hardAlpha" operator="out"/>
<feColorMatrix type="matrix" values="0 0 0 0 1 0 0 0 0 0.541667 0 0 0 0 0.541667 0 0 0 0.25 0"/>
<feBlend mode="normal" in2="effect1_dropShadow_99572_25860" result="effect2_dropShadow_99572_25860"/>
<feColorMatrix in="SourceAlpha" type="matrix" values="0 0 0 0 0 0 0 0 0 0 0 0 0 0 0 0 0 0 127 0" result="hardAlpha"/>
<feOffset/>
<feGaussianBlur stdDeviation="12"/>
<feComposite in2="hardAlpha" operator="out"/>
<feColorMatrix type="matrix" values="0 0 0 0 1 0 0 0 0 1 0 0 0 0 1 0 0 0 0.45 0"/>
<feBlend mode="normal" in2="effect2_dropShadow_99572_25860" result="effect3_dropShadow_99572_25860"/>
<feBlend mode="normal" in="SourceGraphic" in2="effect3_dropShadow_99572_25860" result="shape"/>
</filter>
</defs>
</svg>
