<svg width="222" height="224" viewBox="0 0 222 224" fill="none" xmlns="http://www.w3.org/2000/svg">
<g filter="url(#filter0_ddd_99572_26220)">
<circle cx="150.5" cy="69.5" r="4.5" fill="#D9FFFF"/>
<circle cx="157" cy="78.5" r="4.5" fill="#D9FFFF"/>
<circle cx="160.5" cy="86" r="4.5" fill="#D9FFFF"/>
<circle cx="162.5" cy="94" r="4.5" fill="#D9FFFF"/>
<circle cx="167" cy="102" r="4.5" fill="#D9FFFF"/>
<circle cx="168.5" cy="111.5" r="4.5" fill="#D9FFFF"/>
<circle cx="168.5" cy="120" r="4.5" fill="#D9FFFF"/>
<circle cx="165" cy="129.5" r="4.5" fill="#D9FFFF"/>
<circle cx="161" cy="138" r="4.5" fill="#D9FFFF"/>
<circle cx="157" cy="148.5" r="4.5" fill="#D9FFFF"/>
<circle cx="149.5" cy="154.5" r="4.5" fill="#D9FFFF"/>
<circle cx="142.5" cy="160" r="4.5" fill="#D9FFFF"/>
<circle cx="134.5" cy="164" r="4.5" fill="#D9FFFF"/>
<circle cx="125" cy="168" r="4.5" fill="#D9FFFF"/>
<circle cx="115.5" cy="170.5" r="4.5" fill="#D9FFFF"/>
<circle cx="77.5" cy="161" r="4.5" fill="#D9FFFF"/>
<circle cx="105.5" cy="171" r="4.5" fill="#D9FFFF"/>
<circle cx="95.5" cy="170" r="4.5" fill="#D9FFFF"/>
<circle cx="86.5" cy="164.5" r="4.5" fill="#D9FFFF"/>
<circle cx="91" cy="56" r="4.5" fill="#D9FFFF"/>
<circle cx="83" cy="61.5" r="4.5" fill="#D9FFFF"/>
<circle cx="110" cy="53" r="4.5" fill="#D9FFFF"/>
<circle cx="110" cy="53" r="4.5" fill="#D9FFFF"/>
<circle cx="110" cy="53" r="4.5" fill="#D9FFFF"/>
<circle cx="101.5" cy="54" r="4.5" fill="#D9FFFF"/>
<circle cx="119" cy="54" r="4.5" fill="#D9FFFF"/>
<circle cx="128" cy="56" r="4.5" fill="#D9FFFF"/>
<circle cx="137" cy="60.5" r="4.5" fill="#D9FFFF"/>
<circle cx="144" cy="65" r="4.5" fill="#D9FFFF"/>
<circle cx="70.3698" cy="155.997" r="4.5" transform="rotate(176.65 70.3698 155.997)" fill="#D9FFFF"/>
<circle cx="64.7955" cy="148.949" r="4.5" transform="rotate(176.65 64.7955 148.949)" fill="#D9FFFF"/>
<circle cx="60.3024" cy="141.47" r="4.5" transform="rotate(176.65 60.3024 141.47)" fill="#D9FFFF"/>
<circle cx="56.153" cy="133.601" r="4.5" transform="rotate(176.65 56.153 133.601)" fill="#D9FFFF"/>
<circle cx="52.6989" cy="124.954" r="4.5" transform="rotate(176.65 52.6989 124.954)" fill="#D9FFFF"/>
<circle cx="51.4489" cy="116.179" r="4.5" transform="rotate(176.65 51.4489 116.179)" fill="#D9FFFF"/>
<circle cx="50.8883" cy="106.626" r="4.5" transform="rotate(176.65 50.8883 106.626)" fill="#D9FFFF"/>
<circle cx="53.2682" cy="96.9005" r="4.5" transform="rotate(176.65 53.2682 96.9005)" fill="#D9FFFF"/>
<circle cx="56.4284" cy="87.8673" r="4.5" transform="rotate(176.65 56.4284 87.8673)" fill="#D9FFFF"/>
<circle cx="61.0329" cy="78.381" r="4.5" transform="rotate(176.65 61.0329 78.381)" fill="#D9FFFF"/>
<circle cx="66.5661" cy="71.378" r="4.5" transform="rotate(176.65 66.5661 71.378)" fill="#D9FFFF"/>
<circle cx="73.5739" cy="65.8487" r="4.5" transform="rotate(176.65 73.5739 65.8487)" fill="#D9FFFF"/>
<circle cx="146.762" cy="82.5938" r="4.5" transform="rotate(0.726778 146.762 82.5938)" fill="#FFFFC9"/>
<circle cx="153.311" cy="90.9659" r="4.5" transform="rotate(0.726778 153.311 90.9659)" fill="#FFFFC9"/>
<circle cx="155.488" cy="100.793" r="4.5" transform="rotate(0.726778 155.488 100.793)" fill="#FFFFC9"/>
<circle cx="157.677" cy="112.076" r="4.5" transform="rotate(0.726778 157.677 112.076)" fill="#FFFFC9"/>
<circle cx="155.494" cy="122.268" r="4.5" transform="rotate(0.726778 155.494 122.268)" fill="#FFFFC9"/>
<circle cx="152.214" cy="132.828" r="4.5" transform="rotate(0.726778 152.214 132.828)" fill="#FFFFC9"/>
<circle cx="146.331" cy="140.867" r="4.5" transform="rotate(0.726778 146.331 140.867)" fill="#FFFFC9"/>
<circle cx="139.483" cy="148.109" r="4.5" transform="rotate(0.726778 139.483 148.109)" fill="#FFFFC9"/>
<circle cx="131.108" cy="154.302" r="4.5" transform="rotate(0.726778 131.108 154.302)" fill="#FFFFC9"/>
<circle cx="119.095" cy="157.21" r="4.5" transform="rotate(0.726778 119.095 157.21)" fill="#FFFFC9"/>
<circle cx="80.5158" cy="148.475" r="4.5" transform="rotate(0.726778 80.5158 148.475)" fill="#FFFFC9"/>
<circle cx="109.27" cy="157.933" r="4.5" transform="rotate(0.726778 109.27 157.933)" fill="#FFFFC9"/>
<circle cx="99.0734" cy="156.841" r="4.5" transform="rotate(0.726778 99.0734 156.841)" fill="#FFFFC9"/>
<circle cx="89.2453" cy="153.934" r="4.5" transform="rotate(0.726778 89.2453 153.934)" fill="#FFFFC9"/>
<circle cx="100.529" cy="66.5743" r="4.5" transform="rotate(0.726778 100.529 66.5743)" fill="#FFFFC9"/>
<circle cx="92.1564" cy="70.2188" r="4.5" transform="rotate(0.726778 92.1564 70.2188)" fill="#FFFFC9"/>
<circle cx="110.878" cy="66.1602" r="4.5" transform="rotate(0.726778 110.878 66.1602)" fill="#FFFFC9"/>
<circle cx="110.878" cy="66.1602" r="4.5" transform="rotate(0.726778 110.878 66.1602)" fill="#FFFFC9"/>
<circle cx="122.366" cy="66.5743" r="4.5" transform="rotate(0.726778 122.366 66.5743)" fill="#FFFFC9"/>
<circle cx="131.558" cy="70.7999" r="4.5" transform="rotate(0.726778 131.558 70.7999)" fill="#FFFFC9"/>
<circle cx="140.201" cy="76.0421" r="4.5" transform="rotate(0.726778 140.201 76.0421)" fill="#FFFFC9"/>
<circle cx="74.5166" cy="140.632" r="4.5" transform="rotate(177.377 74.5166 140.632)" fill="#FFFFC9"/>
<circle cx="68.4101" cy="131.727" r="4.5" transform="rotate(177.377 68.4101 131.727)" fill="#FFFFC9"/>
<circle cx="65.2402" cy="121.637" r="4.5" transform="rotate(177.377 65.2402 121.637)" fill="#FFFFC9"/>
<circle cx="64.7695" cy="111.344" r="4.5" transform="rotate(177.377 64.7695 111.344)" fill="#FFFFC9"/>
<circle cx="66.2265" cy="101.153" r="4.5" transform="rotate(177.377 66.2265 101.153)" fill="#FFFFC9"/>
<circle cx="69.998" cy="91.0475" r="4.5" transform="rotate(177.377 69.998 91.0475)" fill="#FFFFC9"/>
<circle cx="75.7031" cy="81.7868" r="4.5" transform="rotate(177.377 75.7031 81.7868)" fill="#FFFFC9"/>
<circle cx="82.9814" cy="74.5075" r="4.5" transform="rotate(177.377 82.9814 74.5075)" fill="#FFFFC9"/>
<circle cx="131.5" cy="90" r="4.5" fill="#D9FFFF"/>
<circle cx="136" cy="97.5" r="4.5" fill="#D9FFFF"/>
<circle cx="140.5" cy="108.5" r="4.5" fill="#D9FFFF"/>
<circle cx="140.5" cy="117.5" r="4.5" fill="#D9FFFF"/>
<circle cx="136" cy="129.5" r="4.5" fill="#D9FFFF"/>
<circle cx="129.5" cy="136" r="4.5" fill="#D9FFFF"/>
<circle cx="119.5" cy="142" r="4.5" fill="#D9FFFF"/>
<circle cx="96.5" cy="140" r="4.5" fill="#D9FFFF"/>
<circle cx="107.5" cy="143.5" r="4.5" fill="#D9FFFF"/>
<circle cx="88" cy="134.5" r="4.5" fill="#D9FFFF"/>
<circle cx="81" cy="125" r="4.5" fill="#D9FFFF"/>
<circle cx="80.5" cy="115.5" r="4.5" fill="#D9FFFF"/>
<circle cx="80.5" cy="104" r="4.5" fill="#D9FFFF"/>
<circle cx="85" cy="95.5" r="4.5" fill="#D9FFFF"/>
<circle cx="91.5" cy="89" r="4.5" fill="#D9FFFF"/>
<circle cx="101.5" cy="82.5" r="4.5" fill="#D9FFFF"/>
<circle cx="112.5" cy="82.5" r="4.5" fill="#D9FFFF"/>
<circle cx="121.5" cy="85.5" r="4.5" fill="#D9FFFF"/>
</g>
<defs>
<filter id="filter0_ddd_99572_26220" x="-1" y="0" width="223" height="226" filterUnits="userSpaceOnUse" color-interpolation-filters="sRGB">
<feFlood flood-opacity="0" result="BackgroundImageFix"/>
<feColorMatrix in="SourceAlpha" type="matrix" values="0 0 0 0 0 0 0 0 0 0 0 0 0 0 0 0 0 0 127 0" result="hardAlpha"/>
<feOffset/>
<feGaussianBlur stdDeviation="5"/>
<feComposite in2="hardAlpha" operator="out"/>
<feColorMatrix type="matrix" values="0 0 0 0 1 0 0 0 0 1 0 0 0 0 1 0 0 0 0.23 0"/>
<feBlend mode="normal" in2="BackgroundImageFix" result="effect1_dropShadow_99572_26220"/>
<feColorMatrix in="SourceAlpha" type="matrix" values="0 0 0 0 0 0 0 0 0 0 0 0 0 0 0 0 0 0 127 0" result="hardAlpha"/>
<feOffset/>
<feGaussianBlur stdDeviation="6.5"/>
<feComposite in2="hardAlpha" operator="out"/>
<feColorMatrix type="matrix" values="0 0 0 0 1 0 0 0 0 0.541667 0 0 0 0 0.541667 0 0 0 0.25 0"/>
<feBlend mode="normal" in2="effect1_dropShadow_99572_26220" result="effect2_dropShadow_99572_26220"/>
<feColorMatrix in="SourceAlpha" type="matrix" values="0 0 0 0 0 0 0 0 0 0 0 0 0 0 0 0 0 0 127 0" result="hardAlpha"/>
<feOffset/>
<feGaussianBlur stdDeviation="12"/>
<feComposite in2="hardAlpha" operator="out"/>
<feColorMatrix type="matrix" values="0 0 0 0 1 0 0 0 0 1 0 0 0 0 1 0 0 0 0.45 0"/>
<feBlend mode="normal" in2="effect2_dropShadow_99572_26220" result="effect3_dropShadow_99572_26220"/>
<feBlend mode="normal" in="SourceGraphic" in2="effect3_dropShadow_99572_26220" result="shape"/>
</filter>
</defs>
</svg>
