<svg width="222" height="224" viewBox="0 0 222 224" fill="none" xmlns="http://www.w3.org/2000/svg">
<g filter="url(#filter0_ddd_99572_26580)">
<circle cx="158" cy="62" r="4.5" fill="#D9FFFF"/>
<circle cx="165.5" cy="72" r="4.5" fill="#D9FFFF"/>
<circle cx="169.5" cy="81" r="4.5" fill="#D9FFFF"/>
<circle cx="172.5" cy="90.5" r="4.5" fill="#D9FFFF"/>
<circle cx="177.5" cy="100.5" r="4.5" fill="#D9FFFF"/>
<circle cx="179.5" cy="111.5" r="4.5" fill="#D9FFFF"/>
<circle cx="179.5" cy="121.5" r="4.5" fill="#D9FFFF"/>
<circle cx="175.5" cy="132.5" r="4.5" fill="#D9FFFF"/>
<circle cx="170.5" cy="143" r="4.5" fill="#D9FFFF"/>
<circle cx="165.5" cy="155" r="4.5" fill="#D9FFFF"/>
<circle cx="157" cy="162" r="4.5" fill="#D9FFFF"/>
<circle cx="148.5" cy="169" r="4.5" fill="#D9FFFF"/>
<circle cx="139" cy="173.5" r="4.5" fill="#D9FFFF"/>
<circle cx="128" cy="178" r="4.5" fill="#D9FFFF"/>
<circle cx="116.5" cy="181.5" r="4.5" fill="#D9FFFF"/>
<circle cx="72" cy="170" r="4.5" fill="#D9FFFF"/>
<circle cx="104.5" cy="182" r="4.5" fill="#D9FFFF"/>
<circle cx="92.5" cy="181" r="4.5" fill="#D9FFFF"/>
<circle cx="82" cy="174.5" r="4.5" fill="#D9FFFF"/>
<circle cx="88" cy="46" r="4.5" fill="#D9FFFF"/>
<circle cx="78" cy="52.5" r="4.5" fill="#D9FFFF"/>
<circle cx="110.5" cy="42" r="4.5" fill="#D9FFFF"/>
<circle cx="110.5" cy="42" r="4.5" fill="#D9FFFF"/>
<circle cx="110.5" cy="42" r="4.5" fill="#D9FFFF"/>
<circle cx="100" cy="43" r="4.5" fill="#D9FFFF"/>
<circle cx="121" cy="43" r="4.5" fill="#D9FFFF"/>
<circle cx="131" cy="46" r="4.5" fill="#D9FFFF"/>
<circle cx="142" cy="51.5" r="4.5" fill="#D9FFFF"/>
<circle cx="150" cy="56" r="4.5" fill="#D9FFFF"/>
<circle cx="63.2125" cy="164.051" r="4.5" transform="rotate(176.65 63.2125 164.051)" fill="#D9FFFF"/>
<circle cx="56.6207" cy="155.713" r="4.5" transform="rotate(176.65 56.6207 155.713)" fill="#D9FFFF"/>
<circle cx="51.3034" cy="146.865" r="4.5" transform="rotate(176.65 51.3034 146.865)" fill="#D9FFFF"/>
<circle cx="46.3952" cy="137.556" r="4.5" transform="rotate(176.65 46.3952 137.556)" fill="#D9FFFF"/>
<circle cx="42.3102" cy="127.326" r="4.5" transform="rotate(176.65 42.3102 127.326)" fill="#D9FFFF"/>
<circle cx="40.8288" cy="116.944" r="4.5" transform="rotate(176.65 40.8288 116.944)" fill="#D9FFFF"/>
<circle cx="40.1657" cy="105.643" r="4.5" transform="rotate(176.65 40.1657 105.643)" fill="#D9FFFF"/>
<circle cx="42.9821" cy="94.1368" r="4.5" transform="rotate(176.65 42.9821 94.1368)" fill="#D9FFFF"/>
<circle cx="46.7213" cy="83.4493" r="4.5" transform="rotate(176.65 46.7213 83.4493)" fill="#D9FFFF"/>
<circle cx="52.1676" cy="72.2247" r="4.5" transform="rotate(176.65 52.1676 72.2247)" fill="#D9FFFF"/>
<circle cx="58.7155" cy="63.9405" r="4.5" transform="rotate(176.65 58.7155 63.9405)" fill="#D9FFFF"/>
<circle cx="67.0045" cy="57.3985" r="4.5" transform="rotate(176.65 67.0045 57.3985)" fill="#D9FFFF"/>
<circle cx="153.053" cy="77.4014" r="4.5" transform="rotate(0.726778 153.053 77.4014)" fill="#FFFFC9"/>
<circle cx="160.755" cy="87.2481" r="4.5" transform="rotate(0.726778 160.755 87.2481)" fill="#FFFFC9"/>
<circle cx="163.317" cy="98.8096" r="4.5" transform="rotate(0.726778 163.317 98.8096)" fill="#FFFFC9"/>
<circle cx="165.892" cy="112.081" r="4.5" transform="rotate(0.726778 165.892 112.081)" fill="#FFFFC9"/>
<circle cx="163.325" cy="124.07" r="4.5" transform="rotate(0.726778 163.325 124.07)" fill="#FFFFC9"/>
<circle cx="159.464" cy="136.492" r="4.5" transform="rotate(0.726778 159.464 136.492)" fill="#FFFFC9"/>
<circle cx="152.546" cy="145.949" r="4.5" transform="rotate(0.726778 152.546 145.949)" fill="#FFFFC9"/>
<circle cx="144.489" cy="154.47" r="4.5" transform="rotate(0.726778 144.489 154.47)" fill="#FFFFC9"/>
<circle cx="134.638" cy="161.753" r="4.5" transform="rotate(0.726778 134.638 161.753)" fill="#FFFFC9"/>
<circle cx="120.507" cy="165.173" r="4.5" transform="rotate(0.726778 120.507 165.173)" fill="#FFFFC9"/>
<circle cx="75.1252" cy="154.898" r="4.5" transform="rotate(0.726778 75.1252 154.898)" fill="#FFFFC9"/>
<circle cx="108.947" cy="166.024" r="4.5" transform="rotate(0.726778 108.947 166.024)" fill="#FFFFC9"/>
<circle cx="96.9553" cy="164.739" r="4.5" transform="rotate(0.726778 96.9553 164.739)" fill="#FFFFC9"/>
<circle cx="85.3947" cy="161.319" r="4.5" transform="rotate(0.726778 85.3947 161.319)" fill="#FFFFC9"/>
<circle cx="98.6672" cy="58.5567" r="4.5" transform="rotate(0.726778 98.6672 58.5567)" fill="#FFFFC9"/>
<circle cx="88.8185" cy="62.8438" r="4.5" transform="rotate(0.726778 88.8185 62.8438)" fill="#FFFFC9"/>
<circle cx="110.842" cy="58.0694" r="4.5" transform="rotate(0.726778 110.842 58.0694)" fill="#FFFFC9"/>
<circle cx="110.842" cy="58.0694" r="4.5" transform="rotate(0.726778 110.842 58.0694)" fill="#FFFFC9"/>
<circle cx="124.356" cy="58.5567" r="4.5" transform="rotate(0.726778 124.356 58.5567)" fill="#FFFFC9"/>
<circle cx="135.166" cy="63.5274" r="4.5" transform="rotate(0.726778 135.166 63.5274)" fill="#FFFFC9"/>
<circle cx="145.334" cy="69.6944" r="4.5" transform="rotate(0.726778 145.334 69.6944)" fill="#FFFFC9"/>
<circle cx="68.0683" cy="145.673" r="4.5" transform="rotate(177.377 68.0683 145.673)" fill="#FFFFC9"/>
<circle cx="60.8857" cy="135.197" r="4.5" transform="rotate(177.377 60.8857 135.197)" fill="#FFFFC9"/>
<circle cx="57.1572" cy="123.329" r="4.5" transform="rotate(177.377 57.1572 123.329)" fill="#FFFFC9"/>
<circle cx="56.6035" cy="111.22" r="4.5" transform="rotate(177.377 56.6035 111.22)" fill="#FFFFC9"/>
<circle cx="58.3173" cy="99.2321" r="4.5" transform="rotate(177.377 58.3173 99.2321)" fill="#FFFFC9"/>
<circle cx="62.7539" cy="87.3444" r="4.5" transform="rotate(177.377 62.7539 87.3444)" fill="#FFFFC9"/>
<circle cx="69.4629" cy="76.4518" r="4.5" transform="rotate(177.377 69.4629 76.4518)" fill="#FFFFC9"/>
<circle cx="78.0254" cy="67.8893" r="4.5" transform="rotate(177.377 78.0254 67.8893)" fill="#FFFFC9"/>
<circle cx="135" cy="86" r="4.5" fill="#D9FFFF"/>
<circle cx="140.5" cy="95" r="4.5" fill="#D9FFFF"/>
<circle cx="146" cy="108" r="4.5" fill="#D9FFFF"/>
<circle cx="146" cy="118" r="4.5" fill="#D9FFFF"/>
<circle cx="140.5" cy="132" r="4.5" fill="#D9FFFF"/>
<circle cx="133" cy="140" r="4.5" fill="#D9FFFF"/>
<circle cx="121" cy="147" r="4.5" fill="#D9FFFF"/>
<circle cx="94" cy="144.5" r="4.5" fill="#D9FFFF"/>
<circle cx="107" cy="149" r="4.5" fill="#D9FFFF"/>
<circle cx="84" cy="138" r="4.5" fill="#D9FFFF"/>
<circle cx="75.5" cy="127.5" r="4.5" fill="#D9FFFF"/>
<circle cx="75" cy="116" r="4.5" fill="#D9FFFF"/>
<circle cx="75" cy="102.5" r="4.5" fill="#D9FFFF"/>
<circle cx="80.5" cy="92" r="4.5" fill="#D9FFFF"/>
<circle cx="88" cy="84.5" r="4.5" fill="#D9FFFF"/>
<circle cx="100" cy="77" r="4.5" fill="#D9FFFF"/>
<circle cx="113" cy="77" r="4.5" fill="#D9FFFF"/>
<circle cx="123.5" cy="80.5" r="4.5" fill="#D9FFFF"/>
</g>
<defs>
<filter id="filter0_ddd_99572_26580" x="-1" y="0" width="223" height="226" filterUnits="userSpaceOnUse" color-interpolation-filters="sRGB">
<feFlood flood-opacity="0" result="BackgroundImageFix"/>
<feColorMatrix in="SourceAlpha" type="matrix" values="0 0 0 0 0 0 0 0 0 0 0 0 0 0 0 0 0 0 127 0" result="hardAlpha"/>
<feOffset/>
<feGaussianBlur stdDeviation="5"/>
<feComposite in2="hardAlpha" operator="out"/>
<feColorMatrix type="matrix" values="0 0 0 0 1 0 0 0 0 1 0 0 0 0 1 0 0 0 0.23 0"/>
<feBlend mode="normal" in2="BackgroundImageFix" result="effect1_dropShadow_99572_26580"/>
<feColorMatrix in="SourceAlpha" type="matrix" values="0 0 0 0 0 0 0 0 0 0 0 0 0 0 0 0 0 0 127 0" result="hardAlpha"/>
<feOffset/>
<feGaussianBlur stdDeviation="6.5"/>
<feComposite in2="hardAlpha" operator="out"/>
<feColorMatrix type="matrix" values="0 0 0 0 1 0 0 0 0 0.541667 0 0 0 0 0.541667 0 0 0 0.25 0"/>
<feBlend mode="normal" in2="effect1_dropShadow_99572_26580" result="effect2_dropShadow_99572_26580"/>
<feColorMatrix in="SourceAlpha" type="matrix" values="0 0 0 0 0 0 0 0 0 0 0 0 0 0 0 0 0 0 127 0" result="hardAlpha"/>
<feOffset/>
<feGaussianBlur stdDeviation="12"/>
<feComposite in2="hardAlpha" operator="out"/>
<feColorMatrix type="matrix" values="0 0 0 0 1 0 0 0 0 1 0 0 0 0 1 0 0 0 0.45 0"/>
<feBlend mode="normal" in2="effect2_dropShadow_99572_26580" result="effect3_dropShadow_99572_26580"/>
<feBlend mode="normal" in="SourceGraphic" in2="effect3_dropShadow_99572_26580" result="shape"/>
</filter>
</defs>
</svg>
