<svg width="222" height="224" viewBox="0 0 222 224" fill="none" xmlns="http://www.w3.org/2000/svg">
<g filter="url(#filter0_ddd_99572_27300)">
<circle cx="161.5" cy="58" r="4.5" fill="#D9FFFF"/>
<circle cx="170" cy="69" r="4.5" fill="#D9FFFF"/>
<circle cx="174" cy="78.5" r="4.5" fill="#D9FFFF"/>
<circle cx="177" cy="89" r="4.5" fill="#D9FFFF"/>
<circle cx="183" cy="99.5" r="4.5" fill="#D9FFFF"/>
<circle cx="185" cy="111.5" r="4.5" fill="#D9FFFF"/>
<circle cx="185" cy="122" r="4.5" fill="#D9FFFF"/>
<circle cx="180.5" cy="134" r="4.5" fill="#D9FFFF"/>
<circle cx="175" cy="145.5" r="4.5" fill="#D9FFFF"/>
<circle cx="170" cy="158.5" r="4.5" fill="#D9FFFF"/>
<circle cx="160.5" cy="166" r="4.5" fill="#D9FFFF"/>
<circle cx="151.5" cy="173.5" r="4.5" fill="#D9FFFF"/>
<circle cx="141.5" cy="178" r="4.5" fill="#D9FFFF"/>
<circle cx="129.5" cy="183.5" r="4.5" fill="#D9FFFF"/>
<circle cx="117" cy="187" r="4.5" fill="#D9FFFF"/>
<circle cx="69" cy="174.5" r="4.5" fill="#D9FFFF"/>
<circle cx="104" cy="187.5" r="4.5" fill="#D9FFFF"/>
<circle cx="91" cy="186.5" r="4.5" fill="#D9FFFF"/>
<circle cx="80" cy="179" r="4.5" fill="#D9FFFF"/>
<circle cx="86.5" cy="40.5" r="4.5" fill="#D9FFFF"/>
<circle cx="75.5" cy="48" r="4.5" fill="#D9FFFF"/>
<circle cx="110.5" cy="36.5" r="4.5" fill="#D9FFFF"/>
<circle cx="110.5" cy="36.5" r="4.5" fill="#D9FFFF"/>
<circle cx="110.5" cy="36.5" r="4.5" fill="#D9FFFF"/>
<circle cx="99.5" cy="37.5" r="4.5" fill="#D9FFFF"/>
<circle cx="121.5" cy="37.5" r="4.5" fill="#D9FFFF"/>
<circle cx="132.5" cy="40.5" r="4.5" fill="#D9FFFF"/>
<circle cx="144.5" cy="47" r="4.5" fill="#D9FFFF"/>
<circle cx="153.5" cy="51.5" r="4.5" fill="#D9FFFF"/>
<circle cx="59.6344" cy="168.079" r="4.5" transform="rotate(176.65 59.6344 168.079)" fill="#D9FFFF"/>
<circle cx="52.5329" cy="159.096" r="4.5" transform="rotate(176.65 52.5329 159.096)" fill="#D9FFFF"/>
<circle cx="46.8043" cy="149.562" r="4.5" transform="rotate(176.65 46.8043 149.562)" fill="#D9FFFF"/>
<circle cx="41.5163" cy="139.532" r="4.5" transform="rotate(176.65 41.5163 139.532)" fill="#D9FFFF"/>
<circle cx="37.1139" cy="128.512" r="4.5" transform="rotate(176.65 37.1139 128.512)" fill="#D9FFFF"/>
<circle cx="35.5192" cy="117.326" r="4.5" transform="rotate(176.65 35.5192 117.326)" fill="#D9FFFF"/>
<circle cx="34.8034" cy="105.15" r="4.5" transform="rotate(176.65 34.8034 105.15)" fill="#D9FFFF"/>
<circle cx="37.8405" cy="92.754" r="4.5" transform="rotate(176.65 37.8405 92.754)" fill="#D9FFFF"/>
<circle cx="41.8678" cy="81.2394" r="4.5" transform="rotate(176.65 41.8678 81.2394)" fill="#D9FFFF"/>
<circle cx="47.734" cy="69.1476" r="4.5" transform="rotate(176.65 47.734 69.1476)" fill="#D9FFFF"/>
<circle cx="54.7897" cy="60.2228" r="4.5" transform="rotate(176.65 54.7897 60.2228)" fill="#D9FFFF"/>
<circle cx="63.7204" cy="53.1749" r="4.5" transform="rotate(176.65 63.7204 53.1749)" fill="#D9FFFF"/>
<circle cx="156.526" cy="74.5343" r="4.5" transform="rotate(0.726778 156.526 74.5343)" fill="#FFFFC9"/>
<circle cx="164.863" cy="85.1973" r="4.5" transform="rotate(0.726778 164.863 85.1973)" fill="#FFFFC9"/>
<circle cx="167.64" cy="97.7139" r="4.5" transform="rotate(0.726778 167.64 97.7139)" fill="#FFFFC9"/>
<circle cx="170.427" cy="112.085" r="4.5" transform="rotate(0.726778 170.427 112.085)" fill="#FFFFC9"/>
<circle cx="167.649" cy="125.066" r="4.5" transform="rotate(0.726778 167.649 125.066)" fill="#FFFFC9"/>
<circle cx="163.468" cy="138.516" r="4.5" transform="rotate(0.726778 163.468 138.516)" fill="#FFFFC9"/>
<circle cx="155.975" cy="148.755" r="4.5" transform="rotate(0.726778 155.975 148.755)" fill="#FFFFC9"/>
<circle cx="147.254" cy="157.98" r="4.5" transform="rotate(0.726778 147.254 157.98)" fill="#FFFFC9"/>
<circle cx="136.586" cy="165.867" r="4.5" transform="rotate(0.726778 136.586 165.867)" fill="#FFFFC9"/>
<circle cx="121.287" cy="169.569" r="4.5" transform="rotate(0.726778 121.287 169.569)" fill="#FFFFC9"/>
<circle cx="72.1486" cy="158.443" r="4.5" transform="rotate(0.726778 72.1486 158.443)" fill="#FFFFC9"/>
<circle cx="108.769" cy="170.491" r="4.5" transform="rotate(0.726778 108.769 170.491)" fill="#FFFFC9"/>
<circle cx="95.7863" cy="169.1" r="4.5" transform="rotate(0.726778 95.7863 169.1)" fill="#FFFFC9"/>
<circle cx="83.2697" cy="165.398" r="4.5" transform="rotate(0.726778 83.2697 165.398)" fill="#FFFFC9"/>
<circle cx="97.6388" cy="54.1309" r="4.5" transform="rotate(0.726778 97.6388 54.1309)" fill="#FFFFC9"/>
<circle cx="86.9748" cy="58.7725" r="4.5" transform="rotate(0.726778 86.9748 58.7725)" fill="#FFFFC9"/>
<circle cx="110.821" cy="53.6036" r="4.5" transform="rotate(0.726778 110.821 53.6036)" fill="#FFFFC9"/>
<circle cx="110.821" cy="53.6036" r="4.5" transform="rotate(0.726778 110.821 53.6036)" fill="#FFFFC9"/>
<circle cx="125.451" cy="54.1309" r="4.5" transform="rotate(0.726778 125.451 54.1309)" fill="#FFFFC9"/>
<circle cx="137.159" cy="59.5137" r="4.5" transform="rotate(0.726778 137.159 59.5137)" fill="#FFFFC9"/>
<circle cx="148.169" cy="66.1905" r="4.5" transform="rotate(0.726778 148.169 66.1905)" fill="#FFFFC9"/>
<circle cx="64.5088" cy="148.454" r="4.5" transform="rotate(177.377 64.5088 148.454)" fill="#FFFFC9"/>
<circle cx="56.7324" cy="137.113" r="4.5" transform="rotate(177.377 56.7324 137.113)" fill="#FFFFC9"/>
<circle cx="52.6923" cy="124.263" r="4.5" transform="rotate(177.377 52.6923 124.263)" fill="#FFFFC9"/>
<circle cx="52.0947" cy="111.152" r="4.5" transform="rotate(177.377 52.0947 111.152)" fill="#FFFFC9"/>
<circle cx="53.9492" cy="98.1716" r="4.5" transform="rotate(177.377 53.9492 98.1716)" fill="#FFFFC9"/>
<circle cx="58.7539" cy="85.3015" r="4.5" transform="rotate(177.377 58.7539 85.3015)" fill="#FFFFC9"/>
<circle cx="66.0185" cy="73.5065" r="4.5" transform="rotate(177.377 66.0185 73.5065)" fill="#FFFFC9"/>
<circle cx="75.289" cy="64.2341" r="4.5" transform="rotate(177.377 75.289 64.2341)" fill="#FFFFC9"/>
<circle cx="136" cy="84.5" r="4.5" fill="#D9FFFF"/>
<circle cx="142" cy="94" r="4.5" fill="#D9FFFF"/>
<circle cx="148" cy="108" r="4.5" fill="#D9FFFF"/>
<circle cx="148" cy="118" r="4.5" fill="#D9FFFF"/>
<circle cx="142" cy="133" r="4.5" fill="#D9FFFF"/>
<circle cx="134" cy="141.5" r="4.5" fill="#D9FFFF"/>
<circle cx="121.5" cy="148.5" r="4.5" fill="#D9FFFF"/>
<circle cx="93" cy="146" r="4.5" fill="#D9FFFF"/>
<circle cx="107" cy="151" r="4.5" fill="#D9FFFF"/>
<circle cx="82.5" cy="139" r="4.5" fill="#D9FFFF"/>
<circle cx="73.5" cy="128.5" r="4.5" fill="#D9FFFF"/>
<circle cx="73" cy="116" r="4.5" fill="#D9FFFF"/>
<circle cx="73" cy="102" r="4.5" fill="#D9FFFF"/>
<circle cx="79" cy="91" r="4.5" fill="#D9FFFF"/>
<circle cx="87" cy="83" r="4.5" fill="#D9FFFF"/>
<circle cx="99.5" cy="75" r="4.5" fill="#D9FFFF"/>
<circle cx="113" cy="75" r="4.5" fill="#D9FFFF"/>
<circle cx="124" cy="78.5" r="4.5" fill="#D9FFFF"/>
</g>
<defs>
<filter id="filter0_ddd_99572_27300" x="-1" y="0" width="223" height="226" filterUnits="userSpaceOnUse" color-interpolation-filters="sRGB">
<feFlood flood-opacity="0" result="BackgroundImageFix"/>
<feColorMatrix in="SourceAlpha" type="matrix" values="0 0 0 0 0 0 0 0 0 0 0 0 0 0 0 0 0 0 127 0" result="hardAlpha"/>
<feOffset/>
<feGaussianBlur stdDeviation="5"/>
<feComposite in2="hardAlpha" operator="out"/>
<feColorMatrix type="matrix" values="0 0 0 0 1 0 0 0 0 1 0 0 0 0 1 0 0 0 0.23 0"/>
<feBlend mode="normal" in2="BackgroundImageFix" result="effect1_dropShadow_99572_27300"/>
<feColorMatrix in="SourceAlpha" type="matrix" values="0 0 0 0 0 0 0 0 0 0 0 0 0 0 0 0 0 0 127 0" result="hardAlpha"/>
<feOffset/>
<feGaussianBlur stdDeviation="6.5"/>
<feComposite in2="hardAlpha" operator="out"/>
<feColorMatrix type="matrix" values="0 0 0 0 1 0 0 0 0 0.541667 0 0 0 0 0.541667 0 0 0 0.25 0"/>
<feBlend mode="normal" in2="effect1_dropShadow_99572_27300" result="effect2_dropShadow_99572_27300"/>
<feColorMatrix in="SourceAlpha" type="matrix" values="0 0 0 0 0 0 0 0 0 0 0 0 0 0 0 0 0 0 127 0" result="hardAlpha"/>
<feOffset/>
<feGaussianBlur stdDeviation="12"/>
<feComposite in2="hardAlpha" operator="out"/>
<feColorMatrix type="matrix" values="0 0 0 0 1 0 0 0 0 1 0 0 0 0 1 0 0 0 0.45 0"/>
<feBlend mode="normal" in2="effect2_dropShadow_99572_27300" result="effect3_dropShadow_99572_27300"/>
<feBlend mode="normal" in="SourceGraphic" in2="effect3_dropShadow_99572_27300" result="shape"/>
</filter>
</defs>
</svg>
