<svg width="226" height="224" viewBox="0 0 226 224" fill="none" xmlns="http://www.w3.org/2000/svg">
<g filter="url(#filter0_ddd_99572_16912)">
<circle cx="170.5" cy="55" r="4.5" fill="#D9FFFF"/>
<circle cx="177.5" cy="65" r="4.5" fill="#D9FFFF"/>
<circle cx="183" cy="75.5" r="4.5" fill="#D9FFFF"/>
<circle cx="188" cy="86.5" r="4.5" fill="#D9FFFF"/>
<circle cx="192" cy="98.5" r="4.5" fill="#D9FFFF"/>
<circle cx="193" cy="110.5" r="4.5" fill="#D9FFFF"/>
<circle cx="193" cy="123.5" r="4.5" fill="#D9FFFF"/>
<circle cx="189" cy="136.5" r="4.5" fill="#D9FFFF"/>
<circle cx="184" cy="148.5" r="4.5" fill="#D9FFFF"/>
<circle cx="177" cy="161" r="4.5" fill="#D9FFFF"/>
<circle cx="168" cy="169" r="4.5" fill="#D9FFFF"/>
<circle cx="159" cy="177" r="4.5" fill="#D9FFFF"/>
<circle cx="148" cy="183" r="4.5" fill="#D9FFFF"/>
<circle cx="134.5" cy="187.5" r="4.5" fill="#D9FFFF"/>
<circle cx="121.5" cy="190.5" r="4.5" fill="#D9FFFF"/>
<circle cx="70.5" cy="177.5" r="4.5" fill="#D9FFFF"/>
<circle cx="108.5" cy="191.5" r="4.5" fill="#D9FFFF"/>
<circle cx="94.5" cy="189.5" r="4.5" fill="#D9FFFF"/>
<circle cx="82.5" cy="184.5" r="4.5" fill="#D9FFFF"/>
<circle cx="88.5" cy="37.5" r="4.5" fill="#D9FFFF"/>
<circle cx="77.5" cy="42.5" r="4.5" fill="#D9FFFF"/>
<circle cx="114.5" cy="32.5" r="4.5" fill="#D9FFFF"/>
<circle cx="114.5" cy="32.5" r="4.5" fill="#D9FFFF"/>
<circle cx="114.5" cy="32.5" r="4.5" fill="#D9FFFF"/>
<circle cx="102.5" cy="34.5" r="4.5" fill="#D9FFFF"/>
<circle cx="127.5" cy="34.5" r="4.5" fill="#D9FFFF"/>
<circle cx="139.5" cy="37.5" r="4.5" fill="#D9FFFF"/>
<circle cx="151.5" cy="41.5" r="4.5" fill="#D9FFFF"/>
<circle cx="160.5" cy="48.5" r="4.5" fill="#D9FFFF"/>
<circle cx="60.5875" cy="171.768" r="4.5" transform="rotate(176.65 60.5875 171.768)" fill="#D9FFFF"/>
<circle cx="53.0153" cy="162.193" r="4.5" transform="rotate(176.65 53.0153 162.193)" fill="#D9FFFF"/>
<circle cx="46.9118" cy="152.033" r="4.5" transform="rotate(176.65 46.9118 152.033)" fill="#D9FFFF"/>
<circle cx="41.277" cy="141.344" r="4.5" transform="rotate(176.65 41.277 141.344)" fill="#D9FFFF"/>
<circle cx="36.5827" cy="129.598" r="4.5" transform="rotate(176.65 36.5827 129.598)" fill="#D9FFFF"/>
<circle cx="34.8834" cy="117.677" r="4.5" transform="rotate(176.65 34.8834 117.677)" fill="#D9FFFF"/>
<circle cx="34.1237" cy="104.699" r="4.5" transform="rotate(176.65 34.1237 104.699)" fill="#D9FFFF"/>
<circle cx="37.358" cy="91.4874" r="4.5" transform="rotate(176.65 37.358 91.4874)" fill="#D9FFFF"/>
<circle cx="41.6481" cy="79.2159" r="4.5" transform="rotate(176.65 41.6481 79.2159)" fill="#D9FFFF"/>
<circle cx="47.9059" cy="66.3282" r="4.5" transform="rotate(176.65 47.9059 66.3282)" fill="#D9FFFF"/>
<circle cx="55.4225" cy="56.8165" r="4.5" transform="rotate(176.65 55.4225 56.8165)" fill="#D9FFFF"/>
<circle cx="64.9401" cy="49.3038" r="4.5" transform="rotate(176.65 64.9401 49.3038)" fill="#D9FFFF"/>
<circle cx="164.095" cy="71.588" r="4.5" transform="rotate(0.726778 164.095 71.588)" fill="#FFFFC9"/>
<circle cx="173.088" cy="83.088" r="4.5" transform="rotate(0.726778 173.088 83.088)" fill="#FFFFC9"/>
<circle cx="176.082" cy="96.588" r="4.5" transform="rotate(0.726778 176.082 96.588)" fill="#FFFFC9"/>
<circle cx="179.088" cy="112.088" r="4.5" transform="rotate(0.726778 179.088 112.088)" fill="#FFFFC9"/>
<circle cx="176.088" cy="126.088" r="4.5" transform="rotate(0.726778 176.088 126.088)" fill="#FFFFC9"/>
<circle cx="171.582" cy="140.595" r="4.5" transform="rotate(0.726778 171.582 140.595)" fill="#FFFFC9"/>
<circle cx="163.501" cy="151.639" r="4.5" transform="rotate(0.726778 163.501 151.639)" fill="#FFFFC9"/>
<circle cx="154.095" cy="161.588" r="4.5" transform="rotate(0.726778 154.095 161.588)" fill="#FFFFC9"/>
<circle cx="142.588" cy="170.095" r="4.5" transform="rotate(0.726778 142.588 170.095)" fill="#FFFFC9"/>
<circle cx="126.088" cy="174.088" r="4.5" transform="rotate(0.726778 126.088 174.088)" fill="#FFFFC9"/>
<circle cx="73.0881" cy="162.088" r="4.5" transform="rotate(0.726778 73.0881 162.088)" fill="#FFFFC9"/>
<circle cx="112.588" cy="175.082" r="4.5" transform="rotate(0.726778 112.588 175.082)" fill="#FFFFC9"/>
<circle cx="98.5822" cy="173.582" r="4.5" transform="rotate(0.726778 98.5822 173.582)" fill="#FFFFC9"/>
<circle cx="85.0822" cy="169.588" r="4.5" transform="rotate(0.726778 85.0822 169.588)" fill="#FFFFC9"/>
<circle cx="100.582" cy="49.5821" r="4.5" transform="rotate(0.726778 100.582 49.5821)" fill="#FFFFC9"/>
<circle cx="89.0822" cy="54.588" r="4.5" transform="rotate(0.726778 89.0822 54.588)" fill="#FFFFC9"/>
<circle cx="114.799" cy="49.0128" r="4.5" transform="rotate(0.726778 114.799 49.0128)" fill="#FFFFC9"/>
<circle cx="114.799" cy="49.0128" r="4.5" transform="rotate(0.726778 114.799 49.0128)" fill="#FFFFC9"/>
<circle cx="130.582" cy="49.5821" r="4.5" transform="rotate(0.726778 130.582 49.5821)" fill="#FFFFC9"/>
<circle cx="143.207" cy="55.3868" r="4.5" transform="rotate(0.726778 143.207 55.3868)" fill="#FFFFC9"/>
<circle cx="155.082" cy="62.588" r="4.5" transform="rotate(0.726778 155.082 62.588)" fill="#FFFFC9"/>
<circle cx="64.8476" cy="151.314" r="4.5" transform="rotate(177.377 64.8476 151.314)" fill="#FFFFC9"/>
<circle cx="56.4609" cy="139.082" r="4.5" transform="rotate(177.377 56.4609 139.082)" fill="#FFFFC9"/>
<circle cx="52.1064" cy="125.222" r="4.5" transform="rotate(177.377 52.1064 125.222)" fill="#FFFFC9"/>
<circle cx="51.4609" cy="111.082" r="4.5" transform="rotate(177.377 51.4609 111.082)" fill="#FFFFC9"/>
<circle cx="53.4609" cy="97.0817" r="4.5" transform="rotate(177.377 53.4609 97.0817)" fill="#FFFFC9"/>
<circle cx="58.6435" cy="83.1999" r="4.5" transform="rotate(177.377 58.6435 83.1999)" fill="#FFFFC9"/>
<circle cx="66.4785" cy="70.4792" r="4.5" transform="rotate(177.377 66.4785 70.4792)" fill="#FFFFC9"/>
<circle cx="76.4785" cy="60.4792" r="4.5" transform="rotate(177.377 76.4785 60.4792)" fill="#FFFFC9"/>
<circle cx="141.5" cy="82.5" r="4.5" fill="#D9FFFF"/>
<circle cx="149.5" cy="92.5" r="4.5" fill="#D9FFFF"/>
<circle cx="153.5" cy="106.5" r="4.5" fill="#D9FFFF"/>
<circle cx="154.5" cy="119.5" r="4.5" fill="#D9FFFF"/>
<circle cx="149.5" cy="133.5" r="4.5" fill="#D9FFFF"/>
<circle cx="139.5" cy="144.5" r="4.5" fill="#D9FFFF"/>
<circle cx="126.5" cy="150.5" r="4.5" fill="#D9FFFF"/>
<circle cx="95.5" cy="148.5" r="4.5" fill="#D9FFFF"/>
<circle cx="111.5" cy="153.5" r="4.5" fill="#D9FFFF"/>
<circle cx="85.5" cy="140.5" r="4.5" fill="#D9FFFF"/>
<circle cx="76.5" cy="128.5" r="4.5" fill="#D9FFFF"/>
<circle cx="74.5" cy="115.5" r="4.5" fill="#D9FFFF"/>
<circle cx="74.5" cy="101.5" r="4.5" fill="#D9FFFF"/>
<circle cx="80.5" cy="89.5" r="4.5" fill="#D9FFFF"/>
<circle cx="90.5" cy="80.5" r="4.5" fill="#D9FFFF"/>
<circle cx="102.5" cy="73.5" r="4.5" fill="#D9FFFF"/>
<circle cx="115.5" cy="72.5" r="4.5" fill="#D9FFFF"/>
<circle cx="128.5" cy="76.5" r="4.5" fill="#D9FFFF"/>
</g>
<defs>
<filter id="filter0_ddd_99572_16912" x="0.641602" y="0" width="225.358" height="226" filterUnits="userSpaceOnUse" color-interpolation-filters="sRGB">
<feFlood flood-opacity="0" result="BackgroundImageFix"/>
<feColorMatrix in="SourceAlpha" type="matrix" values="0 0 0 0 0 0 0 0 0 0 0 0 0 0 0 0 0 0 127 0" result="hardAlpha"/>
<feOffset/>
<feGaussianBlur stdDeviation="5"/>
<feComposite in2="hardAlpha" operator="out"/>
<feColorMatrix type="matrix" values="0 0 0 0 1 0 0 0 0 1 0 0 0 0 1 0 0 0 0.23 0"/>
<feBlend mode="normal" in2="BackgroundImageFix" result="effect1_dropShadow_99572_16912"/>
<feColorMatrix in="SourceAlpha" type="matrix" values="0 0 0 0 0 0 0 0 0 0 0 0 0 0 0 0 0 0 127 0" result="hardAlpha"/>
<feOffset/>
<feGaussianBlur stdDeviation="6.5"/>
<feComposite in2="hardAlpha" operator="out"/>
<feColorMatrix type="matrix" values="0 0 0 0 1 0 0 0 0 0.541667 0 0 0 0 0.541667 0 0 0 0.25 0"/>
<feBlend mode="normal" in2="effect1_dropShadow_99572_16912" result="effect2_dropShadow_99572_16912"/>
<feColorMatrix in="SourceAlpha" type="matrix" values="0 0 0 0 0 0 0 0 0 0 0 0 0 0 0 0 0 0 127 0" result="hardAlpha"/>
<feOffset/>
<feGaussianBlur stdDeviation="12"/>
<feComposite in2="hardAlpha" operator="out"/>
<feColorMatrix type="matrix" values="0 0 0 0 1 0 0 0 0 1 0 0 0 0 1 0 0 0 0.45 0"/>
<feBlend mode="normal" in2="effect2_dropShadow_99572_16912" result="effect3_dropShadow_99572_16912"/>
<feBlend mode="normal" in="SourceGraphic" in2="effect3_dropShadow_99572_16912" result="shape"/>
</filter>
</defs>
</svg>
